# This file uses centimeters as units for non-parametric coordinates.

g default
v 179.654022 -0.665951 36.306885
v 160.099182 -0.665951 70.177002
v 179.046112 -0.665951 103.856461
v 61.442879 -0.665951 103.136810
v 2.126190 -0.665951 205.876328
v -96.586800 -0.665951 34.944756
v -115.750656 -0.665951 68.137527
v 3.705215 -0.665951 274.929749
v 82.489967 -0.665951 138.470612
v 239.109207 -0.665951 138.533936
v 179.654022 0.000000 36.306885
v 160.099182 0.000000 70.177002
v 179.046112 0.000000 103.856461
v 61.442879 0.000000 103.136810
v 2.126190 0.000000 205.876328
v -96.586800 0.000000 34.944756
v -115.750656 0.000000 68.137527
v 3.705215 0.000000 274.929749
v 82.489967 0.000000 138.470612
v 239.109207 0.000000 138.533936
vt 0.000000 0.711178
vt 0.190679 1.000000
vt 0.175193 0.800902
vt 0.112721 0.711178
vt 0.841932 0.570273
vt 0.474227 0.000000
vt 0.363871 0.002161
vt 0.667265 0.481051
vt 0.389523 0.604029
vt 0.326243 0.498565
vt 0.000000 0.711178
vt 0.112721 0.711178
vt 0.175193 0.800902
vt 0.190679 1.000000
vt 0.841932 0.570273
vt 0.667265 0.481051
vt 0.363871 0.002161
vt 0.474227 0.000000
vt 0.389523 0.604029
vt 0.326243 0.498565
vn 0.000000 -1.000000 0.000000
vn 0.000000 -1.000000 0.000000
vn 0.000000 -1.000000 0.000000
vn 0.000000 -1.000000 0.000000
vn 0.000000 -1.000000 0.000000
vn 0.000000 -1.000000 0.000000
vn 0.000000 -1.000000 0.000000
vn 0.000000 -1.000000 0.000000
vn 0.000000 -1.000000 0.000000
vn 0.000000 -1.000000 0.000000
vn 0.000000 -1.000000 0.000000
vn 0.000000 -1.000000 0.000000
vn 0.000000 -1.000000 0.000000
vn 0.000000 -1.000000 0.000000
vn 0.000000 -1.000000 0.000000
vn 0.000000 -1.000000 0.000000
vn 0.000000 1.000000 0.000000
vn 0.000000 1.000000 0.000000
vn 0.000000 1.000000 0.000000
vn 0.000000 1.000000 0.000000
vn 0.000000 1.000000 0.000000
vn 0.000000 1.000000 0.000000
vn 0.000000 1.000000 0.000000
vn 0.000000 1.000000 0.000000
vn 0.000000 1.000000 0.000000
vn 0.000000 1.000000 0.000000
vn 0.000000 1.000000 0.000000
vn 0.000000 1.000000 0.000000
vn 0.000000 1.000000 0.000000
vn 0.000000 1.000000 0.000000
vn 0.000000 1.000000 0.000000
vn 0.000000 1.000000 0.000000
s 1
g l4
f 10/2/1 3/3/2 1/1/3
f 1/1/3 3/3/2 2/4/4
s 2
f 8/5/5 7/6/6 5/8/7
f 5/8/7 7/6/6 6/7/8
s 3
f 8/5/9 5/8/10 9/9/11
f 9/9/11 5/8/10 4/10/12
s 4
f 10/2/13 9/9/14 3/3/15
f 3/3/15 9/9/14 4/10/16
s 5
f 12/12/17 13/13/18 11/11/19
f 11/11/19 13/13/18 20/14/20
s 6
f 18/15/21 15/16/22 17/18/23
f 17/18/23 15/16/22 16/17/24
s 7
f 14/20/25 15/16/26 19/19/27
f 19/19/27 15/16/26 18/15/28
s 8
f 20/14/29 13/13/30 19/19/31
f 19/19/31 13/13/30 14/20/32
g default
v 1.466919 -0.665951 137.370544
v 60.866817 -0.665951 34.486908
v 21.271708 -0.665951 35.399021
v 1.781105 -0.665951 69.157707
v -17.744091 -0.665951 35.476467
v -57.552361 -0.665951 34.901524
v 1.466919 0.000000 137.370544
v 60.866817 0.000000 34.486908
v 21.271708 0.000000 35.399021
v 1.781105 0.000000 69.157707
v -17.744091 0.000000 35.476467
v -57.552361 0.000000 34.901524
vt 0.000000 0.000000
vt 0.491615 0.869274
vt 0.659182 0.572370
vt 0.495301 0.289279
vt 0.825309 0.284036
vt 1.000000 0.000000
vt 0.000000 0.000000
vt 0.495301 0.289279
vt 0.659182 0.572370
vt 0.491615 0.869274
vt 1.000000 0.000000
vt 0.825309 0.284036
vn 0.000000 -1.000000 -0.000000
vn 0.000000 -1.000000 0.000000
vn 0.000000 -1.000000 0.000000
vn 0.000000 -1.000000 0.000000
vn 0.000000 -1.000000 0.000000
vn 0.000000 -1.000000 0.000000
vn 0.000000 -1.000000 0.000000
vn 0.000000 -1.000000 0.000000
vn 0.000000 1.000000 0.000000
vn 0.000000 1.000000 0.000000
vn 0.000000 1.000000 0.000000
vn 0.000000 1.000000 0.000000
vn 0.000000 1.000000 0.000000
vn 0.000000 1.000000 0.000000
vn 0.000000 1.000000 0.000000
vn 0.000000 1.000000 0.000000
s 1
g l2
f 21/21/33 26/22/34 24/24/35
f 24/24/35 26/22/34 25/23/36
s 2
f 21/21/37 24/24/38 22/26/39
f 22/26/39 24/24/38 23/25/40
s 3
f 27/27/41 30/28/42 32/30/43
f 32/30/43 30/28/42 31/29/44
s 4
f 27/27/45 28/31/46 30/28/47
f 30/28/47 28/31/46 29/32/48
g default
v -58.384331 -0.665951 -173.738403
v -19.274513 -0.665951 -173.738449
v 0.419291 -0.665951 -206.986710
v 58.597652 -0.665951 -104.779495
v 177.231033 -0.665951 -104.779495
v 78.556450 -0.665951 66.174248
v 116.884155 -0.665951 66.174240
v 236.243530 -0.665951 -140.673676
v 78.674072 -0.665951 -140.673706
v 0.419310 -0.665951 -276.341614
v -58.384331 0.000000 -173.738403
v -19.274513 0.000000 -173.738449
v 0.419291 0.000000 -206.986710
v 58.597652 0.000000 -104.779495
v 177.231033 0.000000 -104.779495
v 78.556450 0.000000 66.174248
v 116.884155 0.000000 66.174240
v 236.243530 0.000000 -140.673676
v 78.674072 0.000000 -140.673706
v 0.419310 0.000000 -276.341614
vt 0.000000 0.711178
vt 0.190679 1.000000
vt 0.175193 0.800902
vt 0.112721 0.711178
vt 0.841932 0.570273
vt 0.474227 0.000000
vt 0.363871 0.002161
vt 0.667265 0.481051
vt 0.389523 0.604029
vt 0.326243 0.498565
vt 0.000000 0.711178
vt 0.112721 0.711178
vt 0.175193 0.800902
vt 0.190679 1.000000
vt 0.841932 0.570273
vt 0.667265 0.481051
vt 0.363871 0.002161
vt 0.474227 0.000000
vt 0.389523 0.604029
vt 0.326243 0.498565
vn 0.000000 -1.000000 0.000000
vn 0.000000 -1.000000 0.000000
vn 0.000000 -1.000000 0.000000
vn 0.000000 -1.000000 0.000000
vn 0.000000 -1.000000 0.000000
vn 0.000000 -1.000000 0.000000
vn 0.000000 -1.000000 0.000000
vn 0.000000 -1.000000 0.000000
vn 0.000000 -1.000000 0.000000
vn 0.000000 -1.000000 0.000000
vn 0.000000 -1.000000 0.000000
vn 0.000000 -1.000000 0.000000
vn 0.000000 -1.000000 0.000000
vn 0.000000 -1.000000 0.000000
vn 0.000000 -1.000000 0.000000
vn 0.000000 -1.000000 0.000000
vn 0.000000 1.000000 0.000000
vn 0.000000 1.000000 0.000000
vn 0.000000 1.000000 0.000000
vn 0.000000 1.000000 0.000000
vn 0.000000 1.000000 0.000000
vn 0.000000 1.000000 0.000000
vn 0.000000 1.000000 0.000000
vn 0.000000 1.000000 0.000000
vn 0.000000 1.000000 0.000000
vn 0.000000 1.000000 0.000000
vn 0.000000 1.000000 0.000000
vn 0.000000 1.000000 0.000000
vn 0.000000 1.000000 0.000000
vn 0.000000 1.000000 0.000000
vn 0.000000 1.000000 0.000000
vn 0.000000 1.000000 0.000000
s 1
g l6
f 42/34/49 35/35/50 33/33/51
f 33/33/51 35/35/50 34/36/52
s 2
f 40/37/53 39/38/54 37/40/55
f 37/40/55 39/38/54 38/39/56
s 3
f 40/37/57 37/40/58 41/41/59
f 41/41/59 37/40/58 36/42/60
s 4
f 42/34/61 41/41/62 35/35/63
f 35/35/63 41/41/62 36/42/64
s 5
f 44/44/65 45/45/66 43/43/67
f 43/43/67 45/45/66 52/46/68
s 6
f 50/47/69 47/48/70 49/50/71
f 49/50/71 47/48/70 48/49/72
s 7
f 46/52/73 47/48/74 51/51/75
f 51/51/75 47/48/74 50/47/76
s 8
f 52/46/77 45/45/78 51/51/79
f 51/51/79 45/45/78 46/52/80
g default
v -121.269707 -0.665951 137.431519
v -140.824646 -0.665951 103.561447
v -179.465393 -0.665951 103.130234
v -120.040527 -0.665951 1.642693
v -179.357224 -0.665951 -101.096832
v 18.030354 -0.665951 -101.119011
v -1.133507 -0.665951 -134.311768
v -239.948730 -0.665951 -134.256058
v -161.164032 -0.665951 2.203110
v -239.528503 -0.665951 137.807678
v -121.269707 0.000000 137.431519
v -140.824646 0.000000 103.561447
v -179.465393 0.000000 103.130234
v -120.040527 0.000000 1.642693
v -179.357224 0.000000 -101.096832
v 18.030354 0.000000 -101.119011
v -1.133507 0.000000 -134.311768
v -239.948730 0.000000 -134.256058
v -161.164032 0.000000 2.203110
v -239.528503 0.000000 137.807678
vt 0.000000 0.711178
vt 0.190679 1.000000
vt 0.175193 0.800902
vt 0.112721 0.711178
vt 0.841932 0.570273
vt 0.474227 0.000000
vt 0.363871 0.002161
vt 0.667265 0.481051
vt 0.389523 0.604029
vt 0.326243 0.498565
vt 0.000000 0.711178
vt 0.112721 0.711178
vt 0.175193 0.800902
vt 0.190679 1.000000
vt 0.841932 0.570273
vt 0.667265 0.481051
vt 0.363871 0.002161
vt 0.474227 0.000000
vt 0.389523 0.604029
vt 0.326243 0.498565
vn 0.000000 -1.000000 0.000000
vn 0.000000 -1.000000 -0.000000
vn 0.000000 -1.000000 -0.000000
vn 0.000000 -1.000000 -0.000000
vn 0.000000 -1.000000 0.000000
vn 0.000000 -1.000000 0.000000
vn 0.000000 -1.000000 0.000000
vn 0.000000 -1.000000 0.000000
vn 0.000000 -1.000000 0.000000
vn 0.000000 -1.000000 0.000000
vn 0.000000 -1.000000 0.000000
vn 0.000000 -1.000000 0.000000
vn 0.000000 -1.000000 0.000000
vn 0.000000 -1.000000 0.000000
vn 0.000000 -1.000000 0.000000
vn 0.000000 -1.000000 0.000000
vn 0.000000 1.000000 0.000000
vn 0.000000 1.000000 0.000000
vn 0.000000 1.000000 0.000000
vn 0.000000 1.000000 0.000000
vn 0.000000 1.000000 0.000000
vn 0.000000 1.000000 0.000000
vn 0.000000 1.000000 0.000000
vn 0.000000 1.000000 0.000000
vn 0.000000 1.000000 0.000000
vn 0.000000 1.000000 0.000000
vn 0.000000 1.000000 0.000000
vn 0.000000 1.000000 0.000000
vn 0.000000 1.000000 0.000000
vn 0.000000 1.000000 0.000000
vn 0.000000 1.000000 0.000000
vn 0.000000 1.000000 0.000000
s 1
g l3
f 62/54/81 55/55/82 53/53/83
f 53/53/83 55/55/82 54/56/84
s 2
f 60/57/85 59/58/86 57/60/87
f 57/60/87 59/58/86 58/59/88
s 3
f 60/57/89 57/60/90 61/61/91
f 61/61/91 57/60/90 56/62/92
s 4
f 62/54/93 61/61/94 55/55/95
f 55/55/95 61/61/94 56/62/96
s 5
f 64/64/97 65/65/98 63/63/99
f 63/63/99 65/65/98 72/66/100
s 6
f 70/67/101 67/68/102 69/70/103
f 69/70/103 67/68/102 68/69/104
s 7
f 66/72/105 67/68/106 71/71/107
f 71/71/107 67/68/106 70/67/108
s 8
f 72/66/109 65/65/110 71/71/111
f 71/71/111 65/65/110 66/72/112
g default
v 118.232933 -0.665951 -69.955666
v -0.566870 -0.665951 -69.955666
v 20.020596 -0.665951 -36.121349
v 59.001781 -0.665951 -36.121338
v 39.595566 -0.665951 -2.371399
v 59.001785 -0.665951 32.391045
v 118.232933 0.000000 -69.955666
v -0.566870 0.000000 -69.955666
v 20.020596 0.000000 -36.121349
v 59.001781 0.000000 -36.121338
v 39.595566 0.000000 -2.371399
v 59.001785 0.000000 32.391045
vt 0.000000 0.000000
vt 0.491615 0.869274
vt 0.659182 0.572370
vt 0.495301 0.289279
vt 0.825309 0.284036
vt 1.000000 0.000000
vt 0.000000 0.000000
vt 0.495301 0.289279
vt 0.659182 0.572370
vt 0.491615 0.869274
vt 1.000000 0.000000
vt 0.825309 0.284036
vn 0.000000 -1.000000 0.000000
vn 0.000000 -1.000000 0.000000
vn 0.000000 -1.000000 0.000000
vn 0.000000 -1.000000 0.000000
vn 0.000000 -1.000000 0.000000
vn 0.000000 -1.000000 0.000000
vn 0.000000 -1.000000 0.000000
vn 0.000000 -1.000000 0.000000
vn 0.000000 1.000000 0.000000
vn 0.000000 1.000000 0.000000
vn 0.000000 1.000000 0.000000
vn 0.000000 1.000000 0.000000
vn 0.000000 1.000000 0.000000
vn 0.000000 1.000000 0.000000
vn 0.000000 1.000000 0.000000
vn 0.000000 1.000000 0.000000
s 1
g l5
f 73/73/113 78/74/114 76/76/115
f 76/76/115 78/74/114 77/75/116
s 2
f 73/73/117 76/76/118 74/78/119
f 74/78/119 76/76/118 75/77/120
s 3
f 79/79/121 82/80/122 84/82/123
f 84/82/123 82/80/122 83/81/124
s 4
f 79/79/125 80/83/126 82/80/127
f 82/80/127 80/83/126 81/84/128
g default
v -119.699852 -0.665951 -67.414894
v -60.299950 -0.665951 35.468758
v -41.292305 -0.665951 0.722332
v -60.782887 -0.665951 -33.036373
v -21.851475 -0.665951 -33.105068
v -1.449425 -0.665951 -67.292564
v -119.699852 0.000000 -67.414894
v -60.299950 0.000000 35.468758
v -41.292305 0.000000 0.722332
v -60.782887 0.000000 -33.036373
v -21.851475 0.000000 -33.105068
v -1.449425 0.000000 -67.292564
vt 0.000000 0.000000
vt 0.491615 0.869274
vt 0.659182 0.572370
vt 0.495301 0.289279
vt 0.825309 0.284036
vt 1.000000 0.000000
vt 0.000000 0.000000
vt 0.495301 0.289279
vt 0.659182 0.572370
vt 0.491615 0.869274
vt 1.000000 0.000000
vt 0.825309 0.284036
vn 0.000000 -1.000000 0.000000
vn 0.000000 -1.000000 0.000000
vn 0.000000 -1.000000 0.000000
vn 0.000000 -1.000000 0.000000
vn 0.000000 -1.000000 0.000000
vn 0.000000 -1.000000 0.000000
vn 0.000000 -1.000000 0.000000
vn 0.000000 -1.000000 0.000000
vn 0.000000 1.000000 0.000000
vn 0.000000 1.000000 0.000000
vn 0.000000 1.000000 0.000000
vn 0.000000 1.000000 0.000000
vn 0.000000 1.000000 0.000000
vn 0.000000 1.000000 0.000000
vn 0.000000 1.000000 0.000000
vn 0.000000 1.000000 0.000000
s 1
g l1
f 85/85/129 90/86/130 88/88/131
f 88/88/131 90/86/130 89/87/132
s 2
f 85/85/133 88/88/134 86/90/135
f 86/90/135 88/88/134 87/89/136
s 3
f 91/91/137 94/92/138 96/94/139
f 96/94/139 94/92/138 95/93/140
s 4
f 91/91/141 92/95/142 94/92/143
f 94/92/143 92/95/142 93/96/144
