# This file uses centimeters as units for non-parametric coordinates.

g default
v 58.699284 -1.374864 101.670143
v 56.265701 -1.374864 192.671844
v 138.725861 -1.374864 145.063446
v 58.699284 0.000000 101.670143
v 56.265701 0.000000 192.671844
v 138.725861 0.000000 145.063446
vt 0.000000 0.500000
vt 0.500000 1.000000
vt 0.500000 0.000000
vt 0.000000 0.500000
vt 0.500000 0.000000
vt 0.500000 1.000000
vn 0.000000 -1.000000 0.000000
vn 0.000000 -1.000000 0.000000
vn 0.000000 -1.000000 0.000000
vn 0.000000 1.000000 0.000000
vn 0.000000 1.000000 0.000000
vn 0.000000 1.000000 0.000000
s off
g l1
f 1/1/1 3/2/2 2/3/3
f 4/4/4 5/5/5 6/6/6
g default
v 58.699284 -1.374864 -101.670143
v 138.725861 -1.374864 -145.063446
v 56.265701 -1.374864 -192.671844
v 58.699284 0.000000 -101.670143
v 138.725861 0.000000 -145.063446
v 56.265701 0.000000 -192.671844
vt 0.000000 0.500000
vt 0.500000 1.000000
vt 0.500000 0.000000
vt 0.000000 0.500000
vt 0.500000 0.000000
vt 0.500000 1.000000
vn 0.000000 -1.000000 -0.000000
vn 0.000000 -1.000000 -0.000000
vn 0.000000 -1.000000 -0.000000
vn 0.000000 1.000000 0.000000
vn 0.000000 1.000000 0.000000
vn 0.000000 1.000000 0.000000
s off
g l3
f 7/7/7 9/8/8 8/9/9
f 10/10/10 11/11/11 12/12/12
g default
v -117.398567 0.000000 0.000000
v -194.991562 0.000000 -47.608395
v -194.991562 0.000000 47.608395
v -117.398567 -1.374864 0.000000
v -194.991562 -1.374864 -47.608395
v -194.991562 -1.374864 47.608395
vt 0.000000 0.500000
vt 0.500000 0.000000
vt 0.500000 1.000000
vt 0.000000 0.500000
vt 0.500000 1.000000
vt 0.500000 0.000000
vn 0.000000 1.000000 0.000000
vn 0.000000 1.000000 0.000000
vn 0.000000 1.000000 0.000000
vn 0.000000 -1.000000 0.000000
vn 0.000000 -1.000000 0.000000
vn 0.000000 -1.000000 0.000000
s off
g l2
f 13/13/13 14/14/14 15/15/15
f 16/16/16 18/17/17 17/18/18
