# This file uses centimeters as units for non-parametric coordinates.

g default
v -186.633224 -0.918409 148.262436
v -248.069183 -0.918409 78.138901
v -227.829117 -0.918409 -8.893372
v -167.108948 -0.918409 -68.601547
v -196.457031 -0.918409 10.334686
v -190.075119 -0.918409 64.959061
v -168.033051 -0.918409 117.707474
v -106.751854 -0.918409 162.871536
v -186.633224 -0.028197 148.262436
v -248.069183 -0.028197 78.138901
v -227.829117 -0.028197 -8.893372
v -167.108948 -0.028197 -68.601547
v -196.457031 -0.028197 10.334686
v -190.075119 -0.028197 64.959061
v -168.033051 -0.028197 117.707474
v -106.751854 -0.028197 162.871536
vt 0.277304 0.191638
vt 0.210068 0.099488
vt 0.454607 0.000000
vt 0.233447 0.380546
vt 0.049317 0.325085
vt 0.242662 0.564164
vt 0.000000 0.622014
vt 0.374573 0.655802
vt 0.277304 0.191638
vt 0.454607 0.000000
vt 0.210068 0.099488
vt 0.233447 0.380546
vt 0.049317 0.325085
vt 0.242662 0.564164
vt 0.000000 0.622014
vt 0.374573 0.655802
vn 0.000000 -1.000000 0.000000
vn 0.000000 -1.000000 0.000000
vn 0.000000 -1.000000 0.000000
vn 0.000000 -1.000000 0.000000
vn 0.000000 -1.000000 0.000000
vn 0.000000 -1.000000 0.000000
vn 0.000000 -1.000000 0.000000
vn 0.000000 -1.000000 0.000000
vn 0.000000 -1.000000 0.000000
vn 0.000000 -1.000000 0.000000
vn 0.000000 -1.000000 0.000000
vn 0.000000 -1.000000 0.000000
vn 0.000000 -1.000000 0.000000
vn 0.000000 -1.000000 0.000000
vn 0.000000 1.000000 0.000000
vn 0.000000 1.000000 0.000000
vn 0.000000 1.000000 0.000000
vn 0.000000 1.000000 0.000000
vn 0.000000 1.000000 0.000000
vn 0.000000 1.000000 0.000000
vn 0.000000 1.000000 0.000000
vn 0.000000 1.000000 0.000000
vn 0.000000 1.000000 0.000000
vn 0.000000 1.000000 0.000000
vn 0.000000 1.000000 0.000000
vn 0.000000 1.000000 0.000000
vn 0.000000 1.000000 0.000000
vn 0.000000 1.000000 0.000000
s off
g l6
f 5/1/1 3/2/2 4/3/3
s 1
f 2/5/4 3/2/5 6/4/6
f 6/4/6 3/2/5 5/1/7
s 2
f 7/6/8 1/7/9 6/4/10
f 6/4/10 1/7/9 2/5/11
s off
f 8/8/12 1/7/13 7/6/14
f 13/9/15 12/10/16 11/11/17
s 3
f 13/9/18 11/11/19 14/12/20
f 14/12/20 11/11/19 10/13/21
s 4
f 15/14/22 14/12/23 9/15/24
f 9/15/24 14/12/23 10/13/25
s off
f 16/16/26 15/14/27 9/15/28
g default
v -148.262436 -0.918409 -186.633209
v -78.138901 -0.918409 -248.069183
v 8.893368 -0.918409 -227.829117
v 68.601547 -0.918409 -167.108948
v -10.334686 -0.918409 -196.457031
v -64.959061 -0.918409 -190.075073
v -117.707466 -0.918409 -168.033035
v -162.871552 -0.918409 -106.751854
v -148.262436 -0.028197 -186.633209
v -78.138901 -0.028197 -248.069183
v 8.893368 -0.028197 -227.829117
v 68.601547 -0.028197 -167.108948
v -10.334686 -0.028197 -196.457031
v -64.959061 -0.028197 -190.075073
v -117.707466 -0.028197 -168.033035
v -162.871552 -0.028197 -106.751854
vt 0.277304 0.191638
vt 0.210068 0.099488
vt 0.454607 0.000000
vt 0.233447 0.380546
vt 0.049317 0.325085
vt 0.242662 0.564164
vt 0.000000 0.622014
vt 0.374573 0.655802
vt 0.277304 0.191638
vt 0.454607 0.000000
vt 0.210068 0.099488
vt 0.233447 0.380546
vt 0.049317 0.325085
vt 0.242662 0.564164
vt 0.000000 0.622014
vt 0.374573 0.655802
vn 0.000000 -1.000000 0.000000
vn 0.000000 -1.000000 0.000000
vn 0.000000 -1.000000 0.000000
vn 0.000000 -1.000000 0.000000
vn 0.000000 -1.000000 0.000000
vn 0.000000 -1.000000 0.000000
vn 0.000000 -1.000000 0.000000
vn 0.000000 -1.000000 0.000000
vn 0.000000 -1.000000 0.000000
vn 0.000000 -1.000000 0.000000
vn 0.000000 -1.000000 0.000000
vn 0.000000 -1.000000 0.000000
vn 0.000000 -1.000000 0.000000
vn 0.000000 -1.000000 0.000000
vn 0.000000 1.000000 0.000000
vn 0.000000 1.000000 0.000000
vn 0.000000 1.000000 0.000000
vn 0.000000 1.000000 0.000000
vn 0.000000 1.000000 0.000000
vn 0.000000 1.000000 0.000000
vn 0.000000 1.000000 0.000000
vn 0.000000 1.000000 0.000000
vn 0.000000 1.000000 0.000000
vn 0.000000 1.000000 0.000000
vn 0.000000 1.000000 0.000000
vn 0.000000 1.000000 0.000000
vn 0.000000 1.000000 0.000000
vn 0.000000 1.000000 0.000000
s off
g l4
f 21/17/29 19/18/30 20/19/31
s 1
f 18/21/32 19/18/33 22/20/34
f 22/20/34 19/18/33 21/17/35
s 2
f 23/22/36 17/23/37 22/20/38
f 22/20/38 17/23/37 18/21/39
s off
f 24/24/40 17/23/41 23/22/42
f 29/25/43 28/26/44 27/27/45
s 3
f 29/25/46 27/27/47 30/28/48
f 30/28/48 27/27/47 26/29/49
s 4
f 31/30/50 30/28/51 25/31/52
f 25/31/52 30/28/51 26/29/53
s off
f 32/32/54 31/30/55 25/31/56
g default
v 148.262436 -0.918409 186.633224
v 78.138901 -0.918409 248.069183
v -8.893368 -0.918409 227.829117
v -68.601547 -0.918409 167.108932
v 10.334686 -0.918409 196.457031
v 64.959061 -0.918409 190.075104
v 117.707474 -0.918409 168.033035
v 162.871552 -0.918409 106.751839
v 148.262436 -0.028197 186.633224
v 78.138901 -0.028197 248.069183
v -8.893368 -0.028197 227.829117
v -68.601547 -0.028197 167.108932
v 10.334686 -0.028197 196.457031
v 64.959061 -0.028197 190.075104
v 117.707474 -0.028197 168.033035
v 162.871552 -0.028197 106.751839
vt 0.277304 0.191638
vt 0.210068 0.099488
vt 0.454607 0.000000
vt 0.233447 0.380546
vt 0.049317 0.325085
vt 0.242662 0.564164
vt 0.000000 0.622014
vt 0.374573 0.655802
vt 0.277304 0.191638
vt 0.454607 0.000000
vt 0.210068 0.099488
vt 0.233447 0.380546
vt 0.049317 0.325085
vt 0.242662 0.564164
vt 0.000000 0.622014
vt 0.374573 0.655802
vn 0.000000 -1.000000 0.000000
vn 0.000000 -1.000000 0.000000
vn 0.000000 -1.000000 0.000000
vn 0.000000 -1.000000 0.000000
vn 0.000000 -1.000000 0.000000
vn 0.000000 -1.000000 0.000000
vn 0.000000 -1.000000 0.000000
vn 0.000000 -1.000000 0.000000
vn 0.000000 -1.000000 0.000000
vn 0.000000 -1.000000 0.000000
vn 0.000000 -1.000000 0.000000
vn 0.000000 -1.000000 0.000000
vn 0.000000 -1.000000 0.000000
vn 0.000000 -1.000000 0.000000
vn 0.000000 1.000000 0.000000
vn 0.000000 1.000000 0.000000
vn 0.000000 1.000000 0.000000
vn 0.000000 1.000000 0.000000
vn 0.000000 1.000000 0.000000
vn 0.000000 1.000000 0.000000
vn 0.000000 1.000000 0.000000
vn 0.000000 1.000000 0.000000
vn 0.000000 1.000000 0.000000
vn 0.000000 1.000000 0.000000
vn 0.000000 1.000000 0.000000
vn 0.000000 1.000000 0.000000
vn 0.000000 1.000000 0.000000
vn 0.000000 1.000000 0.000000
s off
g l3
f 37/33/57 35/34/58 36/35/59
s 1
f 34/37/60 35/34/61 38/36/62
f 38/36/62 35/34/61 37/33/63
s 2
f 39/38/64 33/39/65 38/36/66
f 38/36/66 33/39/65 34/37/67
s off
f 40/40/68 33/39/69 39/38/70
f 45/41/71 44/42/72 43/43/73
s 3
f 45/41/74 43/43/75 46/44/76
f 46/44/76 43/43/75 42/45/77
s 4
f 47/46/78 46/44/79 41/47/80
f 41/47/80 46/44/79 42/45/81
s off
f 48/48/82 47/46/83 41/47/84
g default
v 18.111536 -0.918409 -9.275787
v -33.957020 -0.918409 -12.289744
v -52.339401 -0.918409 -60.733101
v -33.051022 -0.918409 -105.527428
v -0.974666 -0.918409 -132.445908
v 53.410496 -0.918409 -137.455063
v 102.070900 -0.918409 -123.143181
v 153.593689 -0.918409 -55.877323
v 171.483536 -0.918409 37.865520
v 119.960754 -0.918409 120.158852
v 44.107769 -0.918409 167.388077
v -41.047943 -0.918409 166.672485
v 35.520638 -0.918409 131.608368
v 72.015945 -0.918409 80.801170
v 91.345863 -0.918409 35.585545
v 83.526649 -0.918409 -11.770429
v 62.731136 -0.918409 -27.915873
v 33.500416 -0.918409 -27.036911
v -2.595380 -0.918409 -2.857225
v 18.111536 -0.028197 -9.275787
v -33.957020 -0.028197 -12.289744
v -52.339401 -0.028197 -60.733101
v -33.051022 -0.028197 -105.527428
v -0.974666 -0.028197 -132.445908
v 53.410496 -0.028197 -137.455063
v 102.070900 -0.028197 -123.143181
v 153.593689 -0.028197 -55.877323
v 171.483536 -0.028197 37.865520
v 119.960754 -0.028197 120.158852
v 44.107769 -0.028197 167.388077
v -41.047943 -0.028197 166.672485
v 35.520638 -0.028197 131.608368
v 72.015945 -0.028197 80.801170
v 91.345863 -0.028197 35.585545
v 83.526649 -0.028197 -11.770429
v 62.731136 -0.028197 -27.915873
v 33.500416 -0.028197 -27.036911
v -2.595380 -0.028197 -2.857225
vt 0.778498 0.754266
vt 0.498345 0.599545
vt 0.536348 0.559556
vt 0.724403 0.630205
vt 0.277304 0.191638
vt 0.210068 0.099488
vt 0.454607 0.000000
vt 0.233447 0.380546
vt 0.049317 0.325085
vt 0.242662 0.564164
vt 0.000000 0.622014
vt 0.374573 0.655802
vt 0.162969 0.868942
vt 0.464505 0.635154
vt 0.390614 1.000000
vt 0.546928 0.982935
vt 0.584455 0.559556
vt 0.622867 0.559556
vt 0.687543 0.876280
vt 0.778498 0.754266
vt 0.724403 0.630205
vt 0.536348 0.559556
vt 0.498345 0.599545
vt 0.277304 0.191638
vt 0.454607 0.000000
vt 0.210068 0.099488
vt 0.233447 0.380546
vt 0.049317 0.325085
vt 0.242662 0.564164
vt 0.000000 0.622014
vt 0.374573 0.655802
vt 0.162969 0.868942
vt 0.464505 0.635154
vt 0.390614 1.000000
vt 0.546928 0.982935
vt 0.622867 0.559556
vt 0.584455 0.559556
vt 0.687543 0.876280
vn 0.000000 -1.000000 -0.000000
vn 0.000000 -1.000000 -0.000000
vn 0.000000 -1.000000 -0.000000
vn 0.000000 -1.000000 0.000000
vn 0.000000 -1.000000 0.000000
vn 0.000000 -1.000000 0.000000
vn 0.000000 -1.000000 0.000000
vn 0.000000 -1.000000 0.000000
vn 0.000000 -1.000000 0.000000
vn 0.000000 -1.000000 0.000000
vn 0.000000 -1.000000 0.000000
vn 0.000000 -1.000000 0.000000
vn 0.000000 -1.000000 0.000000
vn 0.000000 -1.000000 0.000000
vn 0.000000 -1.000000 0.000000
vn 0.000000 -1.000000 0.000000
vn 0.000000 -1.000000 0.000000
vn 0.000000 -1.000000 0.000000
vn 0.000000 -1.000000 0.000000
vn 0.000000 -1.000000 0.000000
vn 0.000000 -1.000000 0.000000
vn 0.000000 -1.000000 0.000000
vn 0.000000 -1.000000 0.000000
vn 0.000000 -1.000000 0.000000
vn 0.000000 -1.000000 0.000000
vn 0.000000 -1.000000 0.000000
vn 0.000000 -1.000000 0.000000
vn 0.000000 -1.000000 0.000000
vn 0.000000 -1.000000 0.000000
vn 0.000000 -1.000000 0.000000
vn 0.000000 -1.000000 0.000000
vn 0.000000 -1.000000 0.000000
vn 0.000000 -1.000000 0.000000
vn 0.000000 -1.000000 0.000000
vn 0.000000 -1.000000 0.000000
vn 0.000000 1.000000 0.000000
vn 0.000000 1.000000 0.000000
vn 0.000000 1.000000 0.000000
vn 0.000000 1.000000 0.000000
vn 0.000000 1.000000 0.000000
vn 0.000000 1.000000 0.000000
vn 0.000000 1.000000 0.000000
vn 0.000000 1.000000 0.000000
vn 0.000000 1.000000 0.000000
vn 0.000000 1.000000 0.000000
vn 0.000000 1.000000 0.000000
vn 0.000000 1.000000 0.000000
vn 0.000000 1.000000 0.000000
vn 0.000000 1.000000 0.000000
vn 0.000000 1.000000 0.000000
vn 0.000000 1.000000 0.000000
vn 0.000000 1.000000 0.000000
vn 0.000000 1.000000 0.000000
vn 0.000000 1.000000 0.000000
vn 0.000000 1.000000 0.000000
vn 0.000000 1.000000 0.000000
vn 0.000000 1.000000 0.000000
vn 0.000000 1.000000 0.000000
vn 0.000000 1.000000 0.000000
vn 0.000000 1.000000 0.000000
vn 0.000000 1.000000 0.000000
vn 0.000000 1.000000 0.000000
vn 0.000000 1.000000 0.000000
vn 0.000000 1.000000 0.000000
vn 0.000000 1.000000 0.000000
vn 0.000000 1.000000 0.000000
vn 0.000000 1.000000 0.000000
vn 0.000000 1.000000 0.000000
vn 0.000000 1.000000 0.000000
vn 0.000000 1.000000 0.000000
s 1
g l2
f 52/49/85 66/50/86 51/52/87
f 51/52/87 66/50/86 49/51/88
s off
f 61/53/89 59/54/90 60/55/91
s 2
f 62/56/92 58/57/93 61/53/94
f 61/53/94 58/57/93 59/54/95
s 3
f 57/59/96 58/57/97 63/58/98
f 63/58/98 58/57/97 62/56/99
s 4
f 56/61/100 57/59/101 64/60/102
f 64/60/102 57/59/101 63/58/103
s 5
f 55/63/104 56/61/105 65/62/106
f 65/62/106 56/61/105 64/60/107
s 6
f 66/50/108 54/64/109 65/62/110
f 65/62/110 54/64/109 55/63/111
s 7
f 51/52/112 49/51/113 50/66/114
f 50/66/114 49/51/113 67/65/115
s 8
f 66/50/116 52/49/117 54/64/118
f 54/64/118 52/49/117 53/67/119
s 9
f 71/68/120 70/69/121 85/71/122
f 85/71/122 70/69/121 68/70/123
s off
f 80/72/124 79/73/125 78/74/126
s 10
f 81/75/127 80/72/128 77/76/129
f 77/76/129 80/72/128 78/74/130
s 11
f 81/75/131 77/76/132 82/77/133
f 82/77/133 77/76/132 76/78/134
s 12
f 82/77/135 76/78/136 83/79/137
f 83/79/137 76/78/136 75/80/138
s 13
f 83/79/139 75/80/140 84/81/141
f 84/81/141 75/80/140 74/82/142
s 14
f 74/82/143 73/83/144 84/81/145
f 84/81/145 73/83/144 85/71/146
s 15
f 70/69/147 69/84/148 68/70/149
f 68/70/149 69/84/148 86/85/150
s 16
f 72/86/151 71/68/152 73/83/153
f 73/83/153 71/68/152 85/71/154
g default
v 186.633209 -0.918409 -148.262436
v 248.069168 -0.918409 -78.138893
v 227.829117 -0.918409 8.893372
v 167.108932 -0.918409 68.601547
v 196.457031 -0.918409 -10.334686
v 190.075104 -0.918409 -64.959068
v 168.033035 -0.918409 -117.707474
v 106.751846 -0.918409 -162.871552
v 186.633209 -0.028197 -148.262436
v 248.069168 -0.028197 -78.138893
v 227.829117 -0.028197 8.893372
v 167.108932 -0.028197 68.601547
v 196.457031 -0.028197 -10.334686
v 190.075104 -0.028197 -64.959068
v 168.033035 -0.028197 -117.707474
v 106.751846 -0.028197 -162.871552
vt 0.277304 0.191638
vt 0.210068 0.099488
vt 0.454607 0.000000
vt 0.233447 0.380546
vt 0.049317 0.325085
vt 0.242662 0.564164
vt 0.000000 0.622014
vt 0.374573 0.655802
vt 0.277304 0.191638
vt 0.454607 0.000000
vt 0.210068 0.099488
vt 0.233447 0.380546
vt 0.049317 0.325085
vt 0.242662 0.564164
vt 0.000000 0.622014
vt 0.374573 0.655802
vn 0.000000 -1.000000 -0.000000
vn 0.000000 -1.000000 -0.000000
vn 0.000000 -1.000000 -0.000000
vn 0.000000 -1.000000 0.000000
vn 0.000000 -1.000000 0.000000
vn 0.000000 -1.000000 0.000000
vn 0.000000 -1.000000 0.000000
vn 0.000000 -1.000000 0.000000
vn 0.000000 -1.000000 0.000000
vn 0.000000 -1.000000 0.000000
vn 0.000000 -1.000000 0.000000
vn 0.000000 -1.000000 0.000000
vn 0.000000 -1.000000 0.000000
vn 0.000000 -1.000000 0.000000
vn 0.000000 1.000000 0.000000
vn 0.000000 1.000000 0.000000
vn 0.000000 1.000000 0.000000
vn 0.000000 1.000000 0.000000
vn 0.000000 1.000000 0.000000
vn 0.000000 1.000000 0.000000
vn 0.000000 1.000000 0.000000
vn 0.000000 1.000000 0.000000
vn 0.000000 1.000000 0.000000
vn 0.000000 1.000000 0.000000
vn 0.000000 1.000000 0.000000
vn 0.000000 1.000000 0.000000
vn 0.000000 1.000000 0.000000
vn 0.000000 1.000000 0.000000
s off
g l5
f 91/87/155 89/88/156 90/89/157
s 1
f 88/91/158 89/88/159 92/90/160
f 92/90/160 89/88/159 91/87/161
s 2
f 93/92/162 87/93/163 92/90/164
f 92/90/164 87/93/163 88/91/165
s off
f 94/94/166 87/93/167 93/92/168
f 99/95/169 98/96/170 97/97/171
s 3
f 99/95/172 97/97/173 100/98/174
f 100/98/174 97/97/173 96/99/175
s 4
f 101/100/176 100/98/177 95/101/178
f 95/101/178 100/98/177 96/99/179
s off
f 102/102/180 101/100/181 95/101/182
g default
v -18.111536 -0.918409 9.275787
v 33.957020 -0.918409 12.289744
v 52.339401 -0.918409 60.733101
v 33.051022 -0.918409 105.527428
v 0.974666 -0.918409 132.445908
v -53.410496 -0.918409 137.455063
v -102.070900 -0.918409 123.143181
v -153.593689 -0.918409 55.877323
v -171.483536 -0.918409 -37.865520
v -119.960754 -0.918409 -120.158852
v -44.107769 -0.918409 -167.388077
v 41.047943 -0.918409 -166.672485
v -35.520638 -0.918409 -131.608368
v -72.015945 -0.918409 -80.801170
v -91.345863 -0.918409 -35.585545
v -83.526649 -0.918409 11.770429
v -62.731136 -0.918409 27.915873
v -33.500416 -0.918409 27.036911
v 2.595380 -0.918409 2.857225
v -18.111536 -0.028197 9.275787
v 33.957020 -0.028197 12.289744
v 52.339401 -0.028197 60.733101
v 33.051022 -0.028197 105.527428
v 0.974666 -0.028197 132.445908
v -53.410496 -0.028197 137.455063
v -102.070900 -0.028197 123.143181
v -153.593689 -0.028197 55.877323
v -171.483536 -0.028197 -37.865520
v -119.960754 -0.028197 -120.158852
v -44.107769 -0.028197 -167.388077
v 41.047943 -0.028197 -166.672485
v -35.520638 -0.028197 -131.608368
v -72.015945 -0.028197 -80.801170
v -91.345863 -0.028197 -35.585545
v -83.526649 -0.028197 11.770429
v -62.731136 -0.028197 27.915873
v -33.500416 -0.028197 27.036911
v 2.595380 -0.028197 2.857225
vt 0.778498 0.754266
vt 0.498345 0.599545
vt 0.536348 0.559556
vt 0.724403 0.630205
vt 0.277304 0.191638
vt 0.210068 0.099488
vt 0.454607 0.000000
vt 0.233447 0.380546
vt 0.049317 0.325085
vt 0.242662 0.564164
vt 0.000000 0.622014
vt 0.374573 0.655802
vt 0.162969 0.868942
vt 0.464505 0.635154
vt 0.390614 1.000000
vt 0.546928 0.982935
vt 0.584455 0.559556
vt 0.622867 0.559556
vt 0.687543 0.876280
vt 0.778498 0.754266
vt 0.724403 0.630205
vt 0.536348 0.559556
vt 0.498345 0.599545
vt 0.277304 0.191638
vt 0.454607 0.000000
vt 0.210068 0.099488
vt 0.233447 0.380546
vt 0.049317 0.325085
vt 0.242662 0.564164
vt 0.000000 0.622014
vt 0.374573 0.655802
vt 0.162969 0.868942
vt 0.464505 0.635154
vt 0.390614 1.000000
vt 0.546928 0.982935
vt 0.622867 0.559556
vt 0.584455 0.559556
vt 0.687543 0.876280
vn 0.000000 -1.000000 0.000000
vn 0.000000 -1.000000 0.000000
vn 0.000000 -1.000000 0.000000
vn 0.000000 -1.000000 0.000000
vn 0.000000 -1.000000 0.000000
vn 0.000000 -1.000000 0.000000
vn 0.000000 -1.000000 0.000000
vn 0.000000 -1.000000 0.000000
vn 0.000000 -1.000000 0.000000
vn 0.000000 -1.000000 0.000000
vn 0.000000 -1.000000 0.000000
vn 0.000000 -1.000000 0.000000
vn 0.000000 -1.000000 0.000000
vn 0.000000 -1.000000 0.000000
vn 0.000000 -1.000000 0.000000
vn 0.000000 -1.000000 0.000000
vn 0.000000 -1.000000 0.000000
vn 0.000000 -1.000000 0.000000
vn 0.000000 -1.000000 0.000000
vn 0.000000 -1.000000 0.000000
vn 0.000000 -1.000000 0.000000
vn 0.000000 -1.000000 0.000000
vn 0.000000 -1.000000 0.000000
vn 0.000000 -1.000000 0.000000
vn 0.000000 -1.000000 0.000000
vn 0.000000 -1.000000 0.000000
vn 0.000000 -1.000000 0.000000
vn 0.000000 -1.000000 0.000000
vn 0.000000 -1.000000 0.000000
vn 0.000000 -1.000000 0.000000
vn 0.000000 -1.000000 0.000000
vn 0.000000 -1.000000 0.000000
vn 0.000000 -1.000000 0.000000
vn 0.000000 -1.000000 0.000000
vn 0.000000 -1.000000 0.000000
vn 0.000000 1.000000 0.000000
vn 0.000000 1.000000 0.000000
vn 0.000000 1.000000 0.000000
vn 0.000000 1.000000 0.000000
vn 0.000000 1.000000 0.000000
vn 0.000000 1.000000 0.000000
vn 0.000000 1.000000 0.000000
vn 0.000000 1.000000 0.000000
vn 0.000000 1.000000 0.000000
vn 0.000000 1.000000 0.000000
vn 0.000000 1.000000 0.000000
vn 0.000000 1.000000 0.000000
vn 0.000000 1.000000 0.000000
vn 0.000000 1.000000 0.000000
vn 0.000000 1.000000 0.000000
vn 0.000000 1.000000 0.000000
vn 0.000000 1.000000 0.000000
vn 0.000000 1.000000 0.000000
vn 0.000000 1.000000 0.000000
vn 0.000000 1.000000 0.000000
vn 0.000000 1.000000 0.000000
vn 0.000000 1.000000 0.000000
vn 0.000000 1.000000 0.000000
vn 0.000000 1.000000 0.000000
vn 0.000000 1.000000 0.000000
vn 0.000000 1.000000 0.000000
vn 0.000000 1.000000 0.000000
vn 0.000000 1.000000 0.000000
vn 0.000000 1.000000 0.000000
vn 0.000000 1.000000 0.000000
vn 0.000000 1.000000 0.000000
vn 0.000000 1.000000 0.000000
vn 0.000000 1.000000 0.000000
vn 0.000000 1.000000 0.000000
vn 0.000000 1.000000 0.000000
s 1
g l1
f 106/103/183 120/104/184 105/106/185
f 105/106/185 120/104/184 103/105/186
s off
f 115/107/187 113/108/188 114/109/189
s 2
f 116/110/190 112/111/191 115/107/192
f 115/107/192 112/111/191 113/108/193
s 3
f 111/113/194 112/111/195 117/112/196
f 117/112/196 112/111/195 116/110/197
s 4
f 110/115/198 111/113/199 118/114/200
f 118/114/200 111/113/199 117/112/201
s 5
f 109/117/202 110/115/203 119/116/204
f 119/116/204 110/115/203 118/114/205
s 6
f 120/104/206 108/118/207 119/116/208
f 119/116/208 108/118/207 109/117/209
s 7
f 105/106/210 103/105/211 104/120/212
f 104/120/212 103/105/211 121/119/213
s 8
f 120/104/214 106/103/215 108/118/216
f 108/118/216 106/103/215 107/121/217
s 9
f 125/122/218 124/123/219 139/125/220
f 139/125/220 124/123/219 122/124/221
s off
f 134/126/222 133/127/223 132/128/224
s 10
f 135/129/225 134/126/226 131/130/227
f 131/130/227 134/126/226 132/128/228
s 11
f 135/129/229 131/130/230 136/131/231
f 136/131/231 131/130/230 130/132/232
s 12
f 136/131/233 130/132/234 137/133/235
f 137/133/235 130/132/234 129/134/236
s 13
f 137/133/237 129/134/238 138/135/239
f 138/135/239 129/134/238 128/136/240
s 14
f 128/136/241 127/137/242 138/135/243
f 138/135/243 127/137/242 139/125/244
s 15
f 124/123/245 123/138/246 122/124/247
f 122/124/247 123/138/246 140/139/248
s 16
f 126/140/249 125/122/250 127/137/251
f 127/137/251 125/122/250 139/125/252
