# This file uses centimeters as units for non-parametric coordinates.

g default
v 212.657135 0.043790 0.000004
v 202.248947 0.043790 -65.714661
v 172.043228 0.043790 -124.996719
v 124.996712 0.043790 -172.043243
v 65.714661 0.043790 -202.248962
v -0.000009 0.043790 -212.657150
v -65.714691 0.043790 -202.248962
v -124.996750 0.043790 -172.043243
v -172.043274 0.043790 -124.996719
v -202.248993 0.043790 -65.714661
v -212.657196 0.043790 0.000011
v -202.248993 0.043790 65.714699
v -172.043274 0.043790 124.996750
v -124.996758 0.043790 172.043274
v -65.714691 0.043790 202.249008
v -0.000002 0.043790 212.657211
v 65.714684 0.043790 202.249039
v 124.996773 0.043790 172.043304
v 172.043304 0.043790 124.996773
v 202.249054 0.043790 65.714699
v 224.924240 0.043790 0.000006
v 213.915665 0.043790 -69.505409
v 181.967529 0.043790 -132.207153
v 132.207153 0.043790 -181.967529
v 69.505402 0.043790 -213.915680
v -0.000010 0.043790 -224.924255
v -69.505432 0.043790 -213.915680
v -132.207184 0.043790 -181.967560
v -181.967575 0.043790 -132.207169
v -213.915726 0.043790 -69.505417
v -224.924301 0.043790 0.000006
v -213.915726 0.043790 69.505432
v -181.967590 0.043790 132.207199
v -132.207214 0.043790 181.967606
v -69.505455 0.043790 213.915771
v -0.000004 0.043790 224.924347
v 69.505440 0.043790 213.915771
v 132.207230 0.043790 181.967651
v 181.967636 0.043790 132.207245
v 213.915817 0.043790 69.505463
vt 0.050000 0.750000
vt 0.000000 0.750000
vt 0.000000 0.500000
vt 0.050000 0.500000
vt 0.100000 0.750000
vt 0.100000 0.500000
vt 0.150000 0.750000
vt 0.150000 0.500000
vt 0.200000 0.750000
vt 0.200000 0.500000
vt 0.250000 0.750000
vt 0.250000 0.500000
vt 0.300000 0.750000
vt 0.300000 0.500000
vt 0.350000 0.750000
vt 0.350000 0.500000
vt 0.400000 0.750000
vt 0.400000 0.500000
vt 0.450000 0.750000
vt 0.450000 0.500000
vt 0.500000 0.750000
vt 0.500000 0.500000
vt 0.550000 0.750000
vt 0.550000 0.500000
vt 0.600000 0.750000
vt 0.600000 0.500000
vt 0.650000 0.750000
vt 0.650000 0.500000
vt 0.700000 0.750000
vt 0.700000 0.500000
vt 0.750000 0.750000
vt 0.750000 0.500000
vt 0.800000 0.750000
vt 0.800000 0.500000
vt 0.850000 0.750000
vt 0.850000 0.500000
vt 0.900000 0.750000
vt 0.900000 0.500000
vt 0.950000 0.750000
vt 0.950000 0.500000
vt 1.000000 0.750000
vt 1.000000 0.500000
vn 0.000000 1.000000 0.000000
vn 0.000000 1.000000 0.000000
vn 0.000000 1.000000 0.000000
vn 0.000000 1.000000 0.000000
vn 0.000000 1.000000 0.000000
vn 0.000000 1.000000 0.000000
vn 0.000000 1.000000 0.000000
vn 0.000000 1.000000 0.000000
vn 0.000000 1.000000 0.000000
vn 0.000000 1.000000 0.000000
vn 0.000000 1.000000 0.000000
vn 0.000000 1.000000 0.000000
vn 0.000000 1.000000 0.000000
vn 0.000000 1.000000 0.000000
vn 0.000000 1.000000 0.000000
vn 0.000000 1.000000 0.000000
vn 0.000000 1.000000 0.000000
vn 0.000000 1.000000 0.000000
vn 0.000000 1.000000 0.000000
vn 0.000000 1.000000 0.000000
vn 0.000000 1.000000 0.000000
vn 0.000000 1.000000 0.000000
vn 0.000000 1.000000 0.000000
vn 0.000000 1.000000 0.000000
vn 0.000000 1.000000 0.000000
vn 0.000000 1.000000 0.000000
vn 0.000000 1.000000 0.000000
vn 0.000000 1.000000 0.000000
vn 0.000000 1.000000 0.000000
vn 0.000000 1.000000 0.000000
vn 0.000000 1.000000 0.000000
vn 0.000000 1.000000 0.000000
vn 0.000000 1.000000 0.000000
vn 0.000000 1.000000 0.000000
vn 0.000000 1.000000 0.000000
vn 0.000000 1.000000 0.000000
vn 0.000000 1.000000 0.000000
vn 0.000000 1.000000 0.000000
vn 0.000000 1.000000 0.000000
vn 0.000000 1.000000 0.000000
vn 0.000000 1.000000 0.000000
vn 0.000000 1.000000 0.000000
vn 0.000000 1.000000 0.000000
vn 0.000000 1.000000 0.000000
vn 0.000000 1.000000 0.000000
vn 0.000000 1.000000 0.000000
vn 0.000000 1.000000 0.000000
vn 0.000000 1.000000 0.000000
vn 0.000000 1.000000 0.000000
vn 0.000000 1.000000 0.000000
vn 0.000000 1.000000 0.000000
vn 0.000000 1.000000 0.000000
vn 0.000000 1.000000 0.000000
vn 0.000000 1.000000 0.000000
vn 0.000000 1.000000 0.000000
vn 0.000000 1.000000 0.000000
vn 0.000000 1.000000 0.000000
vn 0.000000 1.000000 0.000000
vn 0.000000 1.000000 0.000000
vn 0.000000 1.000000 0.000000
vn 0.000000 1.000000 0.000000
vn 0.000000 1.000000 0.000000
vn 0.000000 1.000000 0.000000
vn 0.000000 1.000000 0.000000
vn 0.000000 1.000000 0.000000
vn 0.000000 1.000000 0.000000
vn 0.000000 1.000000 0.000000
vn 0.000000 1.000000 0.000000
vn 0.000000 1.000000 0.000000
vn 0.000000 1.000000 0.000000
vn 0.000000 1.000000 0.000000
vn 0.000000 1.000000 0.000000
vn 0.000000 1.000000 0.000000
vn 0.000000 1.000000 0.000000
vn 0.000000 1.000000 0.000000
vn 0.000000 1.000000 0.000000
vn 0.000000 1.000000 0.000000
vn 0.000000 1.000000 0.000000
vn 0.000000 1.000000 0.000000
vn 0.000000 1.000000 0.000000
s 1
g l3
f 2/1/1 1/2/2 22/4/3
f 22/4/3 1/2/2 21/3/4
s 2
f 3/5/5 2/1/6 23/6/7
f 23/6/7 2/1/6 22/4/8
s 3
f 4/7/9 3/5/10 24/8/11
f 24/8/11 3/5/10 23/6/12
s 4
f 5/9/13 4/7/14 25/10/15
f 25/10/15 4/7/14 24/8/16
s 5
f 6/11/17 5/9/18 26/12/19
f 26/12/19 5/9/18 25/10/20
s 6
f 7/13/21 6/11/22 27/14/23
f 27/14/23 6/11/22 26/12/24
s 7
f 8/15/25 7/13/26 28/16/27
f 28/16/27 7/13/26 27/14/28
s 8
f 9/17/29 8/15/30 29/18/31
f 29/18/31 8/15/30 28/16/32
s 9
f 10/19/33 9/17/34 30/20/35
f 30/20/35 9/17/34 29/18/36
s 10
f 11/21/37 10/19/38 31/22/39
f 31/22/39 10/19/38 30/20/40
s 11
f 12/23/41 11/21/42 32/24/43
f 32/24/43 11/21/42 31/22/44
s 12
f 13/25/45 12/23/46 33/26/47
f 33/26/47 12/23/46 32/24/48
s 13
f 14/27/49 13/25/50 34/28/51
f 34/28/51 13/25/50 33/26/52
s 14
f 15/29/53 14/27/54 35/30/55
f 35/30/55 14/27/54 34/28/56
s 15
f 16/31/57 15/29/58 36/32/59
f 36/32/59 15/29/58 35/30/60
s 16
f 17/33/61 16/31/62 37/34/63
f 37/34/63 16/31/62 36/32/64
s 17
f 18/35/65 17/33/66 38/36/67
f 38/36/67 17/33/66 37/34/68
s 18
f 19/37/69 18/35/70 39/38/71
f 39/38/71 18/35/70 38/36/72
s 19
f 20/39/73 19/37/74 40/40/75
f 40/40/75 19/37/74 39/38/76
s 20
f 1/41/77 20/39/78 21/42/79
f 21/42/79 20/39/78 40/40/80
g default
v 146.400772 -0.097336 0.000017
v 139.235413 -0.097336 -45.240314
v 118.440712 -0.097336 -86.052208
v 86.052208 -0.097336 -118.440720
v 45.240314 -0.097336 -139.235413
v -0.000016 -0.097336 -146.400787
v -45.240356 -0.097336 -139.235413
v -86.052246 -0.097336 -118.440720
v -118.440758 -0.097336 -86.052208
v -139.235458 -0.097336 -45.240314
v -146.400833 -0.097336 0.000022
v -139.235458 -0.097336 45.240364
v -118.440765 -0.097336 86.052254
v -86.052254 -0.097336 118.440773
v -45.240360 -0.097336 139.235474
v -0.000011 -0.097336 146.400864
v 45.240334 -0.097336 139.235504
v 86.052246 -0.097336 118.440788
v 118.440765 -0.097336 86.052269
v 139.235489 -0.097336 45.240364
v 154.845886 -0.097336 0.000018
v 147.267197 -0.097336 -47.849998
v 125.272957 -0.097336 -91.016129
v 91.016129 -0.097336 -125.272957
v 47.849995 -0.097336 -147.267212
v -0.000017 -0.097336 -154.845917
v -47.850040 -0.097336 -147.267212
v -91.016174 -0.097336 -125.272964
v -125.273010 -0.097336 -91.016136
v -147.267258 -0.097336 -47.850006
v -154.845947 -0.097336 0.000018
v -147.267258 -0.097336 47.850048
v -125.273018 -0.097336 91.016190
v -91.016190 -0.097336 125.273033
v -47.850052 -0.097336 147.267303
v -0.000012 -0.097336 154.846008
v 47.850025 -0.097336 147.267303
v 91.016182 -0.097336 125.273056
v 125.273033 -0.097336 91.016212
v 147.267303 -0.097336 47.850063
vt 0.050000 0.750000
vt 0.000000 0.750000
vt 0.000000 0.500000
vt 0.050000 0.500000
vt 0.100000 0.750000
vt 0.100000 0.500000
vt 0.150000 0.750000
vt 0.150000 0.500000
vt 0.200000 0.750000
vt 0.200000 0.500000
vt 0.250000 0.750000
vt 0.250000 0.500000
vt 0.300000 0.750000
vt 0.300000 0.500000
vt 0.350000 0.750000
vt 0.350000 0.500000
vt 0.400000 0.750000
vt 0.400000 0.500000
vt 0.450000 0.750000
vt 0.450000 0.500000
vt 0.500000 0.750000
vt 0.500000 0.500000
vt 0.550000 0.750000
vt 0.550000 0.500000
vt 0.600000 0.750000
vt 0.600000 0.500000
vt 0.650000 0.750000
vt 0.650000 0.500000
vt 0.700000 0.750000
vt 0.700000 0.500000
vt 0.750000 0.750000
vt 0.750000 0.500000
vt 0.800000 0.750000
vt 0.800000 0.500000
vt 0.850000 0.750000
vt 0.850000 0.500000
vt 0.900000 0.750000
vt 0.900000 0.500000
vt 0.950000 0.750000
vt 0.950000 0.500000
vt 1.000000 0.750000
vt 1.000000 0.500000
vn 0.000000 1.000000 0.000000
vn 0.000000 1.000000 -0.000000
vn 0.000000 1.000000 -0.000000
vn 0.000000 1.000000 -0.000000
vn 0.000000 1.000000 0.000000
vn 0.000000 1.000000 0.000000
vn 0.000000 1.000000 0.000000
vn 0.000000 1.000000 0.000000
vn 0.000000 1.000000 0.000000
vn 0.000000 1.000000 0.000000
vn 0.000000 1.000000 0.000000
vn 0.000000 1.000000 0.000000
vn 0.000000 1.000000 0.000000
vn 0.000000 1.000000 0.000000
vn 0.000000 1.000000 0.000000
vn 0.000000 1.000000 0.000000
vn 0.000000 1.000000 0.000000
vn 0.000000 1.000000 0.000000
vn 0.000000 1.000000 0.000000
vn 0.000000 1.000000 0.000000
vn 0.000000 1.000000 0.000000
vn 0.000000 1.000000 0.000000
vn 0.000000 1.000000 0.000000
vn 0.000000 1.000000 0.000000
vn 0.000000 1.000000 0.000000
vn 0.000000 1.000000 0.000000
vn 0.000000 1.000000 0.000000
vn 0.000000 1.000000 0.000000
vn 0.000000 1.000000 0.000000
vn 0.000000 1.000000 0.000000
vn 0.000000 1.000000 0.000000
vn 0.000000 1.000000 0.000000
vn 0.000000 1.000000 0.000000
vn 0.000000 1.000000 0.000000
vn 0.000000 1.000000 0.000000
vn 0.000000 1.000000 0.000000
vn 0.000000 1.000000 0.000000
vn 0.000000 1.000000 0.000000
vn 0.000000 1.000000 0.000000
vn 0.000000 1.000000 0.000000
vn 0.000000 1.000000 0.000000
vn 0.000000 1.000000 0.000000
vn 0.000000 1.000000 0.000000
vn 0.000000 1.000000 0.000000
vn 0.000000 1.000000 0.000000
vn 0.000000 1.000000 0.000000
vn 0.000000 1.000000 0.000000
vn 0.000000 1.000000 0.000000
vn 0.000000 1.000000 0.000000
vn 0.000000 1.000000 0.000000
vn 0.000000 1.000000 0.000000
vn 0.000000 1.000000 0.000000
vn 0.000000 1.000000 0.000000
vn 0.000000 1.000000 0.000000
vn 0.000000 1.000000 0.000000
vn 0.000000 1.000000 0.000000
vn 0.000000 1.000000 0.000000
vn 0.000000 1.000000 0.000000
vn 0.000000 1.000000 0.000000
vn 0.000000 1.000000 0.000000
vn 0.000000 1.000000 0.000000
vn 0.000000 1.000000 0.000000
vn 0.000000 1.000000 0.000000
vn 0.000000 1.000000 0.000000
vn 0.000000 1.000000 0.000000
vn 0.000000 1.000000 0.000000
vn 0.000000 1.000000 0.000000
vn 0.000000 1.000000 0.000000
vn 0.000000 1.000000 0.000000
vn 0.000000 1.000000 0.000000
vn 0.000000 1.000000 0.000000
vn 0.000000 1.000000 0.000000
vn 0.000000 1.000000 0.000000
vn 0.000000 1.000000 0.000000
vn 0.000000 1.000000 0.000000
vn 0.000000 1.000000 0.000000
vn 0.000000 1.000000 0.000000
vn 0.000000 1.000000 0.000000
vn 0.000000 1.000000 0.000000
vn 0.000000 1.000000 0.000000
s 1
g l7
f 42/43/81 41/44/82 62/46/83
f 62/46/83 41/44/82 61/45/84
s 2
f 43/47/85 42/43/86 63/48/87
f 63/48/87 42/43/86 62/46/88
s 3
f 44/49/89 43/47/90 64/50/91
f 64/50/91 43/47/90 63/48/92
s 4
f 45/51/93 44/49/94 65/52/95
f 65/52/95 44/49/94 64/50/96
s 5
f 46/53/97 45/51/98 66/54/99
f 66/54/99 45/51/98 65/52/100
s 6
f 47/55/101 46/53/102 67/56/103
f 67/56/103 46/53/102 66/54/104
s 7
f 48/57/105 47/55/106 68/58/107
f 68/58/107 47/55/106 67/56/108
s 8
f 49/59/109 48/57/110 69/60/111
f 69/60/111 48/57/110 68/58/112
s 9
f 50/61/113 49/59/114 70/62/115
f 70/62/115 49/59/114 69/60/116
s 10
f 51/63/117 50/61/118 71/64/119
f 71/64/119 50/61/118 70/62/120
s 11
f 52/65/121 51/63/122 72/66/123
f 72/66/123 51/63/122 71/64/124
s 12
f 53/67/125 52/65/126 73/68/127
f 73/68/127 52/65/126 72/66/128
s 13
f 54/69/129 53/67/130 74/70/131
f 74/70/131 53/67/130 73/68/132
s 14
f 55/71/133 54/69/134 75/72/135
f 75/72/135 54/69/134 74/70/136
s 15
f 56/73/137 55/71/138 76/74/139
f 76/74/139 55/71/138 75/72/140
s 16
f 57/75/141 56/73/142 77/76/143
f 77/76/143 56/73/142 76/74/144
s 17
f 58/77/145 57/75/146 78/78/147
f 78/78/147 57/75/146 77/76/148
s 18
f 59/79/149 58/77/150 79/80/151
f 79/80/151 58/77/150 78/78/152
s 19
f 60/81/153 59/79/154 80/82/155
f 80/82/155 59/79/154 79/80/156
s 20
f 41/83/157 60/81/158 61/84/159
f 61/84/159 60/81/158 80/82/160
g default
v 91.806335 -0.213623 0.000028
v 87.313019 -0.213623 -28.369694
v 74.272888 -0.213623 -53.962395
v 53.962395 -0.213623 -74.272873
v 28.369701 -0.213623 -87.313004
v -0.000021 -0.213623 -91.806335
v -28.369751 -0.213623 -87.313004
v -53.962448 -0.213623 -74.272873
v -74.272934 -0.213623 -53.962395
v -87.313065 -0.213623 -28.369694
v -91.806396 -0.213623 0.000031
v -87.313065 -0.213623 28.369762
v -74.272934 -0.213623 53.962456
v -53.962456 -0.213623 74.272949
v -28.369751 -0.213623 87.313080
v -0.000018 -0.213623 91.806412
v 28.369713 -0.213623 87.313095
v 53.962425 -0.213623 74.272964
v 74.272919 -0.213623 53.962471
v 87.313065 -0.213623 28.369762
v 97.102173 -0.213623 0.000028
v 92.349655 -0.213623 -30.006199
v 78.557312 -0.213623 -57.075218
v 57.075218 -0.213623 -78.557297
v 30.006207 -0.213623 -92.349655
v -0.000022 -0.213623 -97.102173
v -30.006256 -0.213623 -92.349655
v -57.075272 -0.213623 -78.557312
v -78.557358 -0.213623 -57.075218
v -92.349716 -0.213623 -30.006207
v -97.102234 -0.213623 0.000028
v -92.349716 -0.213623 30.006264
v -78.557373 -0.213623 57.075287
v -57.075279 -0.213623 78.557388
v -30.006264 -0.213623 92.349747
v -0.000019 -0.213623 97.102264
v 30.006226 -0.213623 92.349747
v 57.075249 -0.213623 78.557404
v 78.557358 -0.213623 57.075302
v 92.349716 -0.213623 30.006275
vt 0.050000 0.750000
vt 0.000000 0.750000
vt 0.000000 0.500000
vt 0.050000 0.500000
vt 0.100000 0.750000
vt 0.100000 0.500000
vt 0.150000 0.750000
vt 0.150000 0.500000
vt 0.200000 0.750000
vt 0.200000 0.500000
vt 0.250000 0.750000
vt 0.250000 0.500000
vt 0.300000 0.750000
vt 0.300000 0.500000
vt 0.350000 0.750000
vt 0.350000 0.500000
vt 0.400000 0.750000
vt 0.400000 0.500000
vt 0.450000 0.750000
vt 0.450000 0.500000
vt 0.500000 0.750000
vt 0.500000 0.500000
vt 0.550000 0.750000
vt 0.550000 0.500000
vt 0.600000 0.750000
vt 0.600000 0.500000
vt 0.650000 0.750000
vt 0.650000 0.500000
vt 0.700000 0.750000
vt 0.700000 0.500000
vt 0.750000 0.750000
vt 0.750000 0.500000
vt 0.800000 0.750000
vt 0.800000 0.500000
vt 0.850000 0.750000
vt 0.850000 0.500000
vt 0.900000 0.750000
vt 0.900000 0.500000
vt 0.950000 0.750000
vt 0.950000 0.500000
vt 1.000000 0.750000
vt 1.000000 0.500000
vn 0.000000 1.000000 0.000000
vn 0.000000 1.000000 0.000000
vn 0.000000 1.000000 0.000000
vn 0.000000 1.000000 0.000000
vn 0.000000 1.000000 0.000000
vn 0.000000 1.000000 0.000000
vn 0.000000 1.000000 0.000000
vn 0.000000 1.000000 0.000000
vn 0.000000 1.000000 0.000000
vn 0.000000 1.000000 0.000000
vn 0.000000 1.000000 0.000000
vn 0.000000 1.000000 0.000000
vn 0.000000 1.000000 0.000000
vn 0.000000 1.000000 0.000000
vn 0.000000 1.000000 0.000000
vn 0.000000 1.000000 0.000000
vn 0.000000 1.000000 0.000000
vn 0.000000 1.000000 0.000000
vn 0.000000 1.000000 0.000000
vn 0.000000 1.000000 0.000000
vn 0.000000 1.000000 0.000000
vn 0.000000 1.000000 0.000000
vn 0.000000 1.000000 0.000000
vn 0.000000 1.000000 0.000000
vn 0.000000 1.000000 0.000000
vn 0.000000 1.000000 0.000000
vn 0.000000 1.000000 0.000000
vn 0.000000 1.000000 0.000000
vn 0.000000 1.000000 0.000000
vn 0.000000 1.000000 0.000000
vn 0.000000 1.000000 0.000000
vn 0.000000 1.000000 0.000000
vn 0.000000 1.000000 0.000000
vn 0.000000 1.000000 0.000000
vn 0.000000 1.000000 0.000000
vn 0.000000 1.000000 0.000000
vn 0.000000 1.000000 0.000000
vn 0.000000 1.000000 0.000000
vn 0.000000 1.000000 0.000000
vn 0.000000 1.000000 0.000000
vn 0.000000 1.000000 0.000000
vn 0.000000 1.000000 0.000000
vn 0.000000 1.000000 0.000000
vn 0.000000 1.000000 0.000000
vn 0.000000 1.000000 0.000000
vn 0.000000 1.000000 0.000000
vn 0.000000 1.000000 0.000000
vn 0.000000 1.000000 0.000000
vn 0.000000 1.000000 0.000000
vn 0.000000 1.000000 0.000000
vn 0.000000 1.000000 0.000000
vn 0.000000 1.000000 0.000000
vn 0.000000 1.000000 0.000000
vn 0.000000 1.000000 0.000000
vn 0.000000 1.000000 0.000000
vn 0.000000 1.000000 0.000000
vn 0.000000 1.000000 0.000000
vn 0.000000 1.000000 0.000000
vn 0.000000 1.000000 0.000000
vn 0.000000 1.000000 0.000000
vn 0.000000 1.000000 0.000000
vn 0.000000 1.000000 0.000000
vn 0.000000 1.000000 0.000000
vn 0.000000 1.000000 0.000000
vn 0.000000 1.000000 0.000000
vn 0.000000 1.000000 0.000000
vn 0.000000 1.000000 0.000000
vn 0.000000 1.000000 0.000000
vn 0.000000 1.000000 0.000000
vn 0.000000 1.000000 0.000000
vn 0.000000 1.000000 0.000000
vn 0.000000 1.000000 0.000000
vn 0.000000 1.000000 0.000000
vn 0.000000 1.000000 0.000000
vn 0.000000 1.000000 0.000000
vn 0.000000 1.000000 0.000000
vn 0.000000 1.000000 0.000000
vn 0.000000 1.000000 0.000000
vn 0.000000 1.000000 0.000000
vn 0.000000 1.000000 0.000000
s 1
g l12
f 82/85/161 81/86/162 102/88/163
f 102/88/163 81/86/162 101/87/164
s 2
f 83/89/165 82/85/166 103/90/167
f 103/90/167 82/85/166 102/88/168
s 3
f 84/91/169 83/89/170 104/92/171
f 104/92/171 83/89/170 103/90/172
s 4
f 85/93/173 84/91/174 105/94/175
f 105/94/175 84/91/174 104/92/176
s 5
f 86/95/177 85/93/178 106/96/179
f 106/96/179 85/93/178 105/94/180
s 6
f 87/97/181 86/95/182 107/98/183
f 107/98/183 86/95/182 106/96/184
s 7
f 88/99/185 87/97/186 108/100/187
f 108/100/187 87/97/186 107/98/188
s 8
f 89/101/189 88/99/190 109/102/191
f 109/102/191 88/99/190 108/100/192
s 9
f 90/103/193 89/101/194 110/104/195
f 110/104/195 89/101/194 109/102/196
s 10
f 91/105/197 90/103/198 111/106/199
f 111/106/199 90/103/198 110/104/200
s 11
f 92/107/201 91/105/202 112/108/203
f 112/108/203 91/105/202 111/106/204
s 12
f 93/109/205 92/107/206 113/110/207
f 113/110/207 92/107/206 112/108/208
s 13
f 94/111/209 93/109/210 114/112/211
f 114/112/211 93/109/210 113/110/212
s 14
f 95/113/213 94/111/214 115/114/215
f 115/114/215 94/111/214 114/112/216
s 15
f 96/115/217 95/113/218 116/116/219
f 116/116/219 95/113/218 115/114/220
s 16
f 97/117/221 96/115/222 117/118/223
f 117/118/223 96/115/222 116/116/224
s 17
f 98/119/225 97/117/226 118/120/227
f 118/120/227 97/117/226 117/118/228
s 18
f 99/121/229 98/119/230 119/122/231
f 119/122/231 98/119/230 118/120/232
s 19
f 100/123/233 99/121/234 120/124/235
f 120/124/235 99/121/234 119/122/236
s 20
f 81/125/237 100/123/238 101/126/239
f 101/126/239 100/123/238 120/124/240
g default
v 133.354980 -0.125124 0.000020
v 126.828117 -0.125124 -41.208939
v 107.886444 -0.125124 -78.384079
v 78.384079 -0.125124 -107.886444
v 41.208942 -0.125124 -126.828117
v -0.000017 -0.125124 -133.354980
v -41.208984 -0.125124 -126.828117
v -78.384125 -0.125124 -107.886444
v -107.886490 -0.125124 -78.384079
v -126.828171 -0.125124 -41.208939
v -133.355042 -0.125124 0.000024
v -126.828171 -0.125124 41.208996
v -107.886497 -0.125124 78.384132
v -78.384132 -0.125124 107.886505
v -41.208988 -0.125124 126.828186
v -0.000013 -0.125124 133.355072
v 41.208958 -0.125124 126.828201
v 78.384117 -0.125124 107.886520
v 107.886490 -0.125124 78.384148
v 126.828194 -0.125124 41.208996
v 141.047546 -0.125124 0.000021
v 134.144196 -0.125124 -43.586075
v 114.109863 -0.125124 -82.905663
v 82.905663 -0.125124 -114.109863
v 43.586075 -0.125124 -134.144196
v -0.000018 -0.125124 -141.047562
v -43.586117 -0.125124 -134.144196
v -82.905708 -0.125124 -114.109871
v -114.109917 -0.125124 -82.905670
v -134.144257 -0.125124 -43.586082
v -141.047607 -0.125124 0.000021
v -134.144257 -0.125124 43.586124
v -114.109924 -0.125124 82.905724
v -82.905724 -0.125124 114.109940
v -43.586132 -0.125124 134.144287
v -0.000014 -0.125124 141.047653
v 43.586102 -0.125124 134.144287
v 82.905708 -0.125124 114.109962
v 114.109932 -0.125124 82.905746
v 134.144287 -0.125124 43.586143
vt 0.050000 0.750000
vt 0.000000 0.750000
vt 0.000000 0.500000
vt 0.050000 0.500000
vt 0.100000 0.750000
vt 0.100000 0.500000
vt 0.150000 0.750000
vt 0.150000 0.500000
vt 0.200000 0.750000
vt 0.200000 0.500000
vt 0.250000 0.750000
vt 0.250000 0.500000
vt 0.300000 0.750000
vt 0.300000 0.500000
vt 0.350000 0.750000
vt 0.350000 0.500000
vt 0.400000 0.750000
vt 0.400000 0.500000
vt 0.450000 0.750000
vt 0.450000 0.500000
vt 0.500000 0.750000
vt 0.500000 0.500000
vt 0.550000 0.750000
vt 0.550000 0.500000
vt 0.600000 0.750000
vt 0.600000 0.500000
vt 0.650000 0.750000
vt 0.650000 0.500000
vt 0.700000 0.750000
vt 0.700000 0.500000
vt 0.750000 0.750000
vt 0.750000 0.500000
vt 0.800000 0.750000
vt 0.800000 0.500000
vt 0.850000 0.750000
vt 0.850000 0.500000
vt 0.900000 0.750000
vt 0.900000 0.500000
vt 0.950000 0.750000
vt 0.950000 0.500000
vt 1.000000 0.750000
vt 1.000000 0.500000
vn 0.000000 1.000000 0.000000
vn 0.000000 1.000000 -0.000000
vn 0.000000 1.000000 0.000000
vn 0.000000 1.000000 -0.000000
vn 0.000000 1.000000 0.000000
vn 0.000000 1.000000 0.000000
vn 0.000000 1.000000 0.000000
vn 0.000000 1.000000 0.000000
vn 0.000000 1.000000 0.000000
vn 0.000000 1.000000 0.000000
vn 0.000000 1.000000 0.000000
vn 0.000000 1.000000 0.000000
vn 0.000000 1.000000 0.000000
vn 0.000000 1.000000 0.000000
vn 0.000000 1.000000 0.000000
vn 0.000000 1.000000 0.000000
vn 0.000000 1.000000 0.000000
vn 0.000000 1.000000 0.000000
vn 0.000000 1.000000 0.000000
vn 0.000000 1.000000 0.000000
vn 0.000000 1.000000 0.000000
vn 0.000000 1.000000 0.000000
vn 0.000000 1.000000 0.000000
vn 0.000000 1.000000 0.000000
vn 0.000000 1.000000 0.000000
vn 0.000000 1.000000 0.000000
vn 0.000000 1.000000 0.000000
vn 0.000000 1.000000 0.000000
vn 0.000000 1.000000 0.000000
vn 0.000000 1.000000 0.000000
vn 0.000000 1.000000 0.000000
vn 0.000000 1.000000 0.000000
vn 0.000000 1.000000 0.000000
vn 0.000000 1.000000 0.000000
vn 0.000000 1.000000 0.000000
vn 0.000000 1.000000 0.000000
vn 0.000000 1.000000 0.000000
vn 0.000000 1.000000 0.000000
vn 0.000000 1.000000 0.000000
vn 0.000000 1.000000 0.000000
vn 0.000000 1.000000 0.000000
vn 0.000000 1.000000 0.000000
vn 0.000000 1.000000 0.000000
vn 0.000000 1.000000 0.000000
vn 0.000000 1.000000 0.000000
vn 0.000000 1.000000 0.000000
vn 0.000000 1.000000 0.000000
vn 0.000000 1.000000 0.000000
vn 0.000000 1.000000 0.000000
vn 0.000000 1.000000 0.000000
vn 0.000000 1.000000 0.000000
vn 0.000000 1.000000 0.000000
vn 0.000000 1.000000 0.000000
vn 0.000000 1.000000 0.000000
vn 0.000000 1.000000 0.000000
vn 0.000000 1.000000 0.000000
vn 0.000000 1.000000 0.000000
vn 0.000000 1.000000 0.000000
vn 0.000000 1.000000 0.000000
vn 0.000000 1.000000 0.000000
vn 0.000000 1.000000 0.000000
vn 0.000000 1.000000 0.000000
vn 0.000000 1.000000 0.000000
vn 0.000000 1.000000 0.000000
vn 0.000000 1.000000 0.000000
vn 0.000000 1.000000 0.000000
vn 0.000000 1.000000 0.000000
vn 0.000000 1.000000 0.000000
vn 0.000000 1.000000 0.000000
vn 0.000000 1.000000 0.000000
vn 0.000000 1.000000 0.000000
vn 0.000000 1.000000 0.000000
vn 0.000000 1.000000 0.000000
vn 0.000000 1.000000 0.000000
vn 0.000000 1.000000 0.000000
vn 0.000000 1.000000 0.000000
vn 0.000000 1.000000 0.000000
vn 0.000000 1.000000 0.000000
vn 0.000000 1.000000 0.000000
vn 0.000000 1.000000 0.000000
s 1
g l8
f 122/127/241 121/128/242 142/130/243
f 142/130/243 121/128/242 141/129/244
s 2
f 123/131/245 122/127/246 143/132/247
f 143/132/247 122/127/246 142/130/248
s 3
f 124/133/249 123/131/250 144/134/251
f 144/134/251 123/131/250 143/132/252
s 4
f 125/135/253 124/133/254 145/136/255
f 145/136/255 124/133/254 144/134/256
s 5
f 126/137/257 125/135/258 146/138/259
f 146/138/259 125/135/258 145/136/260
s 6
f 127/139/261 126/137/262 147/140/263
f 147/140/263 126/137/262 146/138/264
s 7
f 128/141/265 127/139/266 148/142/267
f 148/142/267 127/139/266 147/140/268
s 8
f 129/143/269 128/141/270 149/144/271
f 149/144/271 128/141/270 148/142/272
s 9
f 130/145/273 129/143/274 150/146/275
f 150/146/275 129/143/274 149/144/276
s 10
f 131/147/277 130/145/278 151/148/279
f 151/148/279 130/145/278 150/146/280
s 11
f 132/149/281 131/147/282 152/150/283
f 152/150/283 131/147/282 151/148/284
s 12
f 133/151/285 132/149/286 153/152/287
f 153/152/287 132/149/286 152/150/288
s 13
f 134/153/289 133/151/290 154/154/291
f 154/154/291 133/151/290 153/152/292
s 14
f 135/155/293 134/153/294 155/156/295
f 155/156/295 134/153/294 154/154/296
s 15
f 136/157/297 135/155/298 156/158/299
f 156/158/299 135/155/298 155/156/300
s 16
f 137/159/301 136/157/302 157/160/303
f 157/160/303 136/157/302 156/158/304
s 17
f 138/161/305 137/159/306 158/162/307
f 158/162/307 137/159/306 157/160/308
s 18
f 139/163/309 138/161/310 159/164/311
f 159/164/311 138/161/310 158/162/312
s 19
f 140/165/313 139/163/314 160/166/315
f 160/166/315 139/163/314 159/164/316
s 20
f 121/167/317 140/165/318 141/168/319
f 141/168/319 140/165/318 160/166/320
g default
v 233.460861 0.088102 0.000000
v 222.034470 0.088102 -72.143372
v 188.873810 0.088102 -137.224854
v 137.224838 0.088102 -188.873825
v 72.143364 0.088102 -222.034485
v -0.000007 0.088102 -233.460892
v -72.143394 0.088102 -222.034485
v -137.224869 0.088102 -188.873825
v -188.873840 0.088102 -137.224854
v -222.034515 0.088102 -72.143372
v -233.460922 0.088102 0.000008
v -222.034515 0.088102 72.143402
v -188.873856 0.088102 137.224869
v -137.224884 0.088102 188.873856
v -72.143402 0.088102 222.034531
v 0.000000 0.088102 233.460953
v 72.143394 0.088102 222.034561
v 137.224915 0.088102 188.873886
v 188.873886 0.088102 137.224899
v 222.034592 0.088102 72.143402
v 246.928040 0.088102 0.000002
v 234.842514 0.088102 -76.304955
v 199.768967 0.088102 -145.140671
v 145.140656 0.088102 -199.768982
v 76.304947 0.088102 -234.842545
v -0.000008 0.088102 -246.928070
v -76.304977 0.088102 -234.842545
v -145.140686 0.088102 -199.768997
v -199.769012 0.088102 -145.140686
v -234.842575 0.088102 -76.304970
v -246.928101 0.088102 0.000002
v -234.842575 0.088102 76.304977
v -199.769028 0.088102 145.140701
v -145.140717 0.088102 199.769043
v -76.305000 0.088102 234.842636
v -0.000001 0.088102 246.928162
v 76.304993 0.088102 234.842636
v 145.140732 0.088102 199.769089
v 199.769104 0.088102 145.140747
v 234.842682 0.088102 76.305008
vt 0.050000 0.750000
vt 0.000000 0.750000
vt 0.000000 0.500000
vt 0.050000 0.500000
vt 0.100000 0.750000
vt 0.100000 0.500000
vt 0.150000 0.750000
vt 0.150000 0.500000
vt 0.200000 0.750000
vt 0.200000 0.500000
vt 0.250000 0.750000
vt 0.250000 0.500000
vt 0.300000 0.750000
vt 0.300000 0.500000
vt 0.350000 0.750000
vt 0.350000 0.500000
vt 0.400000 0.750000
vt 0.400000 0.500000
vt 0.450000 0.750000
vt 0.450000 0.500000
vt 0.500000 0.750000
vt 0.500000 0.500000
vt 0.550000 0.750000
vt 0.550000 0.500000
vt 0.600000 0.750000
vt 0.600000 0.500000
vt 0.650000 0.750000
vt 0.650000 0.500000
vt 0.700000 0.750000
vt 0.700000 0.500000
vt 0.750000 0.750000
vt 0.750000 0.500000
vt 0.800000 0.750000
vt 0.800000 0.500000
vt 0.850000 0.750000
vt 0.850000 0.500000
vt 0.900000 0.750000
vt 0.900000 0.500000
vt 0.950000 0.750000
vt 0.950000 0.500000
vt 1.000000 0.750000
vt 1.000000 0.500000
vn 0.000000 1.000000 0.000000
vn 0.000000 1.000000 0.000000
vn 0.000000 1.000000 0.000000
vn 0.000000 1.000000 0.000000
vn 0.000000 1.000000 0.000000
vn 0.000000 1.000000 0.000000
vn 0.000000 1.000000 0.000000
vn 0.000000 1.000000 0.000000
vn 0.000000 1.000000 0.000000
vn 0.000000 1.000000 0.000000
vn 0.000000 1.000000 0.000000
vn 0.000000 1.000000 0.000000
vn 0.000000 1.000000 0.000000
vn 0.000000 1.000000 0.000000
vn 0.000000 1.000000 0.000000
vn 0.000000 1.000000 0.000000
vn 0.000000 1.000000 0.000000
vn 0.000000 1.000000 0.000000
vn 0.000000 1.000000 0.000000
vn 0.000000 1.000000 0.000000
vn 0.000000 1.000000 0.000000
vn 0.000000 1.000000 0.000000
vn 0.000000 1.000000 0.000000
vn 0.000000 1.000000 0.000000
vn 0.000000 1.000000 0.000000
vn 0.000000 1.000000 0.000000
vn 0.000000 1.000000 0.000000
vn 0.000000 1.000000 0.000000
vn 0.000000 1.000000 0.000000
vn 0.000000 1.000000 0.000000
vn 0.000000 1.000000 0.000000
vn 0.000000 1.000000 0.000000
vn 0.000000 1.000000 0.000000
vn 0.000000 1.000000 0.000000
vn 0.000000 1.000000 0.000000
vn 0.000000 1.000000 0.000000
vn 0.000000 1.000000 0.000000
vn 0.000000 1.000000 0.000000
vn 0.000000 1.000000 0.000000
vn 0.000000 1.000000 0.000000
vn 0.000000 1.000000 0.000000
vn 0.000000 1.000000 0.000000
vn 0.000000 1.000000 0.000000
vn 0.000000 1.000000 0.000000
vn 0.000000 1.000000 0.000000
vn 0.000000 1.000000 0.000000
vn 0.000000 1.000000 0.000000
vn 0.000000 1.000000 0.000000
vn 0.000000 1.000000 0.000000
vn 0.000000 1.000000 0.000000
vn 0.000000 1.000000 0.000000
vn 0.000000 1.000000 0.000000
vn 0.000000 1.000000 0.000000
vn 0.000000 1.000000 0.000000
vn 0.000000 1.000000 0.000000
vn 0.000000 1.000000 0.000000
vn 0.000000 1.000000 0.000000
vn 0.000000 1.000000 0.000000
vn 0.000000 1.000000 0.000000
vn 0.000000 1.000000 0.000000
vn 0.000000 1.000000 0.000000
vn 0.000000 1.000000 0.000000
vn 0.000000 1.000000 0.000000
vn 0.000000 1.000000 0.000000
vn 0.000000 1.000000 0.000000
vn 0.000000 1.000000 0.000000
vn 0.000000 1.000000 0.000000
vn 0.000000 1.000000 0.000000
vn 0.000000 1.000000 0.000000
vn 0.000000 1.000000 0.000000
vn 0.000000 1.000000 0.000000
vn 0.000000 1.000000 0.000000
vn 0.000000 1.000000 0.000000
vn 0.000000 1.000000 0.000000
vn 0.000000 1.000000 0.000000
vn 0.000000 1.000000 0.000000
vn 0.000000 1.000000 0.000000
vn 0.000000 1.000000 0.000000
vn 0.000000 1.000000 0.000000
vn 0.000000 1.000000 0.000000
s 1
g l2
f 162/169/321 161/170/322 182/172/323
f 182/172/323 161/170/322 181/171/324
s 2
f 163/173/325 162/169/326 183/174/327
f 183/174/327 162/169/326 182/172/328
s 3
f 164/175/329 163/173/330 184/176/331
f 184/176/331 163/173/330 183/174/332
s 4
f 165/177/333 164/175/334 185/178/335
f 185/178/335 164/175/334 184/176/336
s 5
f 166/179/337 165/177/338 186/180/339
f 186/180/339 165/177/338 185/178/340
s 6
f 167/181/341 166/179/342 187/182/343
f 187/182/343 166/179/342 186/180/344
s 7
f 168/183/345 167/181/346 188/184/347
f 188/184/347 167/181/346 187/182/348
s 8
f 169/185/349 168/183/350 189/186/351
f 189/186/351 168/183/350 188/184/352
s 9
f 170/187/353 169/185/354 190/188/355
f 190/188/355 169/185/354 189/186/356
s 10
f 171/189/357 170/187/358 191/190/359
f 191/190/359 170/187/358 190/188/360
s 11
f 172/191/361 171/189/362 192/192/363
f 192/192/363 171/189/362 191/190/364
s 12
f 173/193/365 172/191/366 193/194/367
f 193/194/367 172/191/366 192/192/368
s 13
f 174/195/369 173/193/370 194/196/371
f 194/196/371 173/193/370 193/194/372
s 14
f 175/197/373 174/195/374 195/198/375
f 195/198/375 174/195/374 194/196/376
s 15
f 176/199/377 175/197/378 196/200/379
f 196/200/379 175/197/378 195/198/380
s 16
f 177/201/381 176/199/382 197/202/383
f 197/202/383 176/199/382 196/200/384
s 17
f 178/203/385 177/201/386 198/204/387
f 198/204/387 177/201/386 197/202/388
s 18
f 179/205/389 178/203/390 199/206/391
f 199/206/391 178/203/390 198/204/392
s 19
f 180/207/393 179/205/394 200/208/395
f 200/208/395 179/205/394 199/206/396
s 20
f 161/209/397 180/207/398 181/210/399
f 181/210/399 180/207/398 200/208/400
g default
v 176.445938 -0.033340 0.000011
v 167.810059 -0.033340 -54.524784
v 142.747772 -0.033340 -103.712311
v 103.712311 -0.033340 -142.747772
v 54.524780 -0.033340 -167.810059
v -0.000013 -0.033340 -176.445953
v -54.524818 -0.033340 -167.810059
v -103.712349 -0.033340 -142.747772
v -142.747803 -0.033340 -103.712311
v -167.810104 -0.033340 -54.524784
v -176.445999 -0.033340 0.000017
v -167.810104 -0.033340 54.524826
v -142.747803 -0.033340 103.712357
v -103.712357 -0.033340 142.747818
v -54.524822 -0.033340 167.810120
v -0.000007 -0.033340 176.446014
v 54.524803 -0.033340 167.810150
v 103.712357 -0.033340 142.747833
v 142.747833 -0.033340 103.712372
v 167.810150 -0.033340 54.524826
v 186.624207 -0.033340 0.000012
v 177.490173 -0.033340 -57.670044
v 150.982147 -0.033340 -109.694962
v 109.694954 -0.033340 -150.982147
v 57.670036 -0.033340 -177.490173
v -0.000014 -0.033340 -186.624237
v -57.670074 -0.033340 -177.490173
v -109.694992 -0.033340 -150.982178
v -150.982208 -0.033340 -109.694969
v -177.490234 -0.033340 -57.670052
v -186.624268 -0.033340 0.000012
v -177.490234 -0.033340 57.670082
v -150.982208 -0.033340 109.695007
v -109.695015 -0.033340 150.982239
v -57.670090 -0.033340 177.490265
v -0.000008 -0.033340 186.624329
v 57.670074 -0.033340 177.490265
v 109.695015 -0.033340 150.982269
v 150.982239 -0.033340 109.695038
v 177.490295 -0.033340 57.670105
vt 0.050000 0.750000
vt 0.000000 0.750000
vt 0.000000 0.500000
vt 0.050000 0.500000
vt 0.100000 0.750000
vt 0.100000 0.500000
vt 0.150000 0.750000
vt 0.150000 0.500000
vt 0.200000 0.750000
vt 0.200000 0.500000
vt 0.250000 0.750000
vt 0.250000 0.500000
vt 0.300000 0.750000
vt 0.300000 0.500000
vt 0.350000 0.750000
vt 0.350000 0.500000
vt 0.400000 0.750000
vt 0.400000 0.500000
vt 0.450000 0.750000
vt 0.450000 0.500000
vt 0.500000 0.750000
vt 0.500000 0.500000
vt 0.550000 0.750000
vt 0.550000 0.500000
vt 0.600000 0.750000
vt 0.600000 0.500000
vt 0.650000 0.750000
vt 0.650000 0.500000
vt 0.700000 0.750000
vt 0.700000 0.500000
vt 0.750000 0.750000
vt 0.750000 0.500000
vt 0.800000 0.750000
vt 0.800000 0.500000
vt 0.850000 0.750000
vt 0.850000 0.500000
vt 0.900000 0.750000
vt 0.900000 0.500000
vt 0.950000 0.750000
vt 0.950000 0.500000
vt 1.000000 0.750000
vt 1.000000 0.500000
vn 0.000000 1.000000 0.000000
vn 0.000000 1.000000 0.000000
vn 0.000000 1.000000 0.000000
vn 0.000000 1.000000 0.000000
vn 0.000000 1.000000 0.000000
vn 0.000000 1.000000 0.000000
vn 0.000000 1.000000 0.000000
vn 0.000000 1.000000 0.000000
vn 0.000000 1.000000 0.000000
vn 0.000000 1.000000 0.000000
vn 0.000000 1.000000 0.000000
vn 0.000000 1.000000 0.000000
vn 0.000000 1.000000 0.000000
vn 0.000000 1.000000 0.000000
vn 0.000000 1.000000 0.000000
vn 0.000000 1.000000 0.000000
vn 0.000000 1.000000 0.000000
vn 0.000000 1.000000 0.000000
vn 0.000000 1.000000 0.000000
vn 0.000000 1.000000 0.000000
vn 0.000000 1.000000 0.000000
vn 0.000000 1.000000 0.000000
vn 0.000000 1.000000 0.000000
vn 0.000000 1.000000 0.000000
vn 0.000000 1.000000 0.000000
vn 0.000000 1.000000 0.000000
vn 0.000000 1.000000 0.000000
vn 0.000000 1.000000 0.000000
vn 0.000000 1.000000 0.000000
vn 0.000000 1.000000 0.000000
vn 0.000000 1.000000 0.000000
vn 0.000000 1.000000 0.000000
vn 0.000000 1.000000 0.000000
vn 0.000000 1.000000 0.000000
vn 0.000000 1.000000 0.000000
vn 0.000000 1.000000 0.000000
vn 0.000000 1.000000 0.000000
vn 0.000000 1.000000 0.000000
vn 0.000000 1.000000 0.000000
vn 0.000000 1.000000 0.000000
vn 0.000000 1.000000 0.000000
vn 0.000000 1.000000 0.000000
vn 0.000000 1.000000 0.000000
vn 0.000000 1.000000 0.000000
vn 0.000000 1.000000 0.000000
vn 0.000000 1.000000 0.000000
vn 0.000000 1.000000 0.000000
vn 0.000000 1.000000 0.000000
vn 0.000000 1.000000 0.000000
vn 0.000000 1.000000 0.000000
vn 0.000000 1.000000 0.000000
vn 0.000000 1.000000 0.000000
vn 0.000000 1.000000 0.000000
vn 0.000000 1.000000 0.000000
vn 0.000000 1.000000 0.000000
vn 0.000000 1.000000 0.000000
vn 0.000000 1.000000 0.000000
vn 0.000000 1.000000 0.000000
vn 0.000000 1.000000 0.000000
vn 0.000000 1.000000 0.000000
vn 0.000000 1.000000 0.000000
vn 0.000000 1.000000 0.000000
vn 0.000000 1.000000 0.000000
vn 0.000000 1.000000 0.000000
vn 0.000000 1.000000 0.000000
vn 0.000000 1.000000 0.000000
vn 0.000000 1.000000 0.000000
vn 0.000000 1.000000 0.000000
vn 0.000000 1.000000 0.000000
vn 0.000000 1.000000 0.000000
vn 0.000000 1.000000 0.000000
vn 0.000000 1.000000 0.000000
vn 0.000000 1.000000 0.000000
vn 0.000000 1.000000 0.000000
vn 0.000000 1.000000 0.000000
vn 0.000000 1.000000 0.000000
vn 0.000000 1.000000 0.000000
vn 0.000000 1.000000 0.000000
vn 0.000000 1.000000 0.000000
vn 0.000000 1.000000 0.000000
s 1
g l5
f 202/211/401 201/212/402 222/214/403
f 222/214/403 201/212/402 221/213/404
s 2
f 203/215/405 202/211/406 223/216/407
f 223/216/407 202/211/406 222/214/408
s 3
f 204/217/409 203/215/410 224/218/411
f 224/218/411 203/215/410 223/216/412
s 4
f 205/219/413 204/217/414 225/220/415
f 225/220/415 204/217/414 224/218/416
s 5
f 206/221/417 205/219/418 226/222/419
f 226/222/419 205/219/418 225/220/420
s 6
f 207/223/421 206/221/422 227/224/423
f 227/224/423 206/221/422 226/222/424
s 7
f 208/225/425 207/223/426 228/226/427
f 228/226/427 207/223/426 227/224/428
s 8
f 209/227/429 208/225/430 229/228/431
f 229/228/431 208/225/430 228/226/432
s 9
f 210/229/433 209/227/434 230/230/435
f 230/230/435 209/227/434 229/228/436
s 10
f 211/231/437 210/229/438 231/232/439
f 231/232/439 210/229/438 230/230/440
s 11
f 212/233/441 211/231/442 232/234/443
f 232/234/443 211/231/442 231/232/444
s 12
f 213/235/445 212/233/446 233/236/447
f 233/236/447 212/233/446 232/234/448
s 13
f 214/237/449 213/235/450 234/238/451
f 234/238/451 213/235/450 233/236/452
s 14
f 215/239/453 214/237/454 235/240/455
f 235/240/455 214/237/454 234/238/456
s 15
f 216/241/457 215/239/458 236/242/459
f 236/242/459 215/239/458 235/240/460
s 16
f 217/243/461 216/241/462 237/244/463
f 237/244/463 216/241/462 236/242/464
s 17
f 218/245/465 217/243/466 238/246/467
f 238/246/467 217/243/466 237/244/468
s 18
f 219/247/469 218/245/470 239/248/471
f 239/248/471 218/245/470 238/246/472
s 19
f 220/249/473 219/247/474 240/250/475
f 240/250/475 219/247/474 239/248/476
s 20
f 201/251/477 220/249/478 221/252/479
f 221/252/479 220/249/478 240/250/480
g default
v 100.787521 -0.194493 0.000026
v 95.854630 -0.194493 -31.145039
v 81.538818 -0.194493 -59.241409
v 59.241409 -0.194493 -81.538818
v 31.145046 -0.194493 -95.854630
v -0.000020 -0.194493 -100.787537
v -31.145092 -0.194493 -95.854630
v -59.241463 -0.194493 -81.538818
v -81.538872 -0.194493 -59.241409
v -95.854691 -0.194493 -31.145039
v -100.787582 -0.194493 0.000029
v -95.854691 -0.194493 31.145103
v -81.538879 -0.194493 59.241470
v -59.241463 -0.194493 81.538887
v -31.145092 -0.194493 95.854706
v -0.000017 -0.194493 100.787613
v 31.145058 -0.194493 95.854721
v 59.241440 -0.194493 81.538895
v 81.538857 -0.194493 59.241478
v 95.854691 -0.194493 31.145103
v 106.601456 -0.194493 0.000027
v 101.384003 -0.194493 -32.941639
v 86.242386 -0.194493 -62.658752
v 62.658752 -0.194493 -86.242371
v 32.941643 -0.194493 -101.384003
v -0.000021 -0.194493 -106.601456
v -32.941692 -0.194493 -101.384003
v -62.658798 -0.194493 -86.242386
v -86.242432 -0.194493 -62.658752
v -101.384064 -0.194493 -32.941647
v -106.601517 -0.194493 0.000027
v -101.384064 -0.194493 32.941700
v -86.242447 -0.194493 62.658813
v -62.658813 -0.194493 86.242462
v -32.941700 -0.194493 101.384094
v -0.000018 -0.194493 106.601547
v 32.941662 -0.194493 101.384094
v 62.658791 -0.194493 86.242477
v 86.242432 -0.194493 62.658836
v 101.384079 -0.194493 32.941711
vt 0.050000 0.750000
vt 0.000000 0.750000
vt 0.000000 0.500000
vt 0.050000 0.500000
vt 0.100000 0.750000
vt 0.100000 0.500000
vt 0.150000 0.750000
vt 0.150000 0.500000
vt 0.200000 0.750000
vt 0.200000 0.500000
vt 0.250000 0.750000
vt 0.250000 0.500000
vt 0.300000 0.750000
vt 0.300000 0.500000
vt 0.350000 0.750000
vt 0.350000 0.500000
vt 0.400000 0.750000
vt 0.400000 0.500000
vt 0.450000 0.750000
vt 0.450000 0.500000
vt 0.500000 0.750000
vt 0.500000 0.500000
vt 0.550000 0.750000
vt 0.550000 0.500000
vt 0.600000 0.750000
vt 0.600000 0.500000
vt 0.650000 0.750000
vt 0.650000 0.500000
vt 0.700000 0.750000
vt 0.700000 0.500000
vt 0.750000 0.750000
vt 0.750000 0.500000
vt 0.800000 0.750000
vt 0.800000 0.500000
vt 0.850000 0.750000
vt 0.850000 0.500000
vt 0.900000 0.750000
vt 0.900000 0.500000
vt 0.950000 0.750000
vt 0.950000 0.500000
vt 1.000000 0.750000
vt 1.000000 0.500000
vn 0.000000 1.000000 0.000000
vn 0.000000 1.000000 0.000000
vn 0.000000 1.000000 0.000000
vn 0.000000 1.000000 0.000000
vn 0.000000 1.000000 0.000000
vn 0.000000 1.000000 0.000000
vn 0.000000 1.000000 0.000000
vn 0.000000 1.000000 0.000000
vn 0.000000 1.000000 0.000000
vn 0.000000 1.000000 0.000000
vn 0.000000 1.000000 0.000000
vn 0.000000 1.000000 0.000000
vn 0.000000 1.000000 0.000000
vn 0.000000 1.000000 0.000000
vn 0.000000 1.000000 0.000000
vn 0.000000 1.000000 0.000000
vn 0.000000 1.000000 0.000000
vn 0.000000 1.000000 0.000000
vn 0.000000 1.000000 0.000000
vn 0.000000 1.000000 0.000000
vn 0.000000 1.000000 0.000000
vn 0.000000 1.000000 0.000000
vn 0.000000 1.000000 0.000000
vn 0.000000 1.000000 0.000000
vn 0.000000 1.000000 0.000000
vn 0.000000 1.000000 0.000000
vn 0.000000 1.000000 0.000000
vn 0.000000 1.000000 0.000000
vn 0.000000 1.000000 0.000000
vn 0.000000 1.000000 0.000000
vn 0.000000 1.000000 0.000000
vn 0.000000 1.000000 0.000000
vn 0.000000 1.000000 0.000000
vn 0.000000 1.000000 0.000000
vn 0.000000 1.000000 0.000000
vn 0.000000 1.000000 0.000000
vn 0.000000 1.000000 0.000000
vn 0.000000 1.000000 0.000000
vn 0.000000 1.000000 0.000000
vn 0.000000 1.000000 0.000000
vn 0.000000 1.000000 0.000000
vn 0.000000 1.000000 0.000000
vn 0.000000 1.000000 0.000000
vn 0.000000 1.000000 0.000000
vn 0.000000 1.000000 0.000000
vn 0.000000 1.000000 0.000000
vn 0.000000 1.000000 0.000000
vn 0.000000 1.000000 0.000000
vn 0.000000 1.000000 0.000000
vn 0.000000 1.000000 0.000000
vn 0.000000 1.000000 0.000000
vn 0.000000 1.000000 0.000000
vn 0.000000 1.000000 0.000000
vn 0.000000 1.000000 0.000000
vn 0.000000 1.000000 0.000000
vn 0.000000 1.000000 0.000000
vn 0.000000 1.000000 0.000000
vn 0.000000 1.000000 0.000000
vn 0.000000 1.000000 0.000000
vn 0.000000 1.000000 0.000000
vn 0.000000 1.000000 0.000000
vn 0.000000 1.000000 0.000000
vn 0.000000 1.000000 0.000000
vn 0.000000 1.000000 0.000000
vn 0.000000 1.000000 0.000000
vn 0.000000 1.000000 0.000000
vn 0.000000 1.000000 0.000000
vn 0.000000 1.000000 0.000000
vn 0.000000 1.000000 0.000000
vn 0.000000 1.000000 0.000000
vn 0.000000 1.000000 0.000000
vn 0.000000 1.000000 0.000000
vn 0.000000 1.000000 0.000000
vn 0.000000 1.000000 0.000000
vn 0.000000 1.000000 0.000000
vn 0.000000 1.000000 0.000000
vn 0.000000 1.000000 0.000000
vn 0.000000 1.000000 0.000000
vn 0.000000 1.000000 0.000000
vn 0.000000 1.000000 0.000000
s 1
g l11
f 242/253/481 241/254/482 262/256/483
f 262/256/483 241/254/482 261/255/484
s 2
f 243/257/485 242/253/486 263/258/487
f 263/258/487 242/253/486 262/256/488
s 3
f 244/259/489 243/257/490 264/260/491
f 264/260/491 243/257/490 263/258/492
s 4
f 245/261/493 244/259/494 265/262/495
f 265/262/495 244/259/494 264/260/496
s 5
f 246/263/497 245/261/498 266/264/499
f 266/264/499 245/261/498 265/262/500
s 6
f 247/265/501 246/263/502 267/266/503
f 267/266/503 246/263/502 266/264/504
s 7
f 248/267/505 247/265/506 268/268/507
f 268/268/507 247/265/506 267/266/508
s 8
f 249/269/509 248/267/510 269/270/511
f 269/270/511 248/267/510 268/268/512
s 9
f 250/271/513 249/269/514 270/272/515
f 270/272/515 249/269/514 269/270/516
s 10
f 251/273/517 250/271/518 271/274/519
f 271/274/519 250/271/518 270/272/520
s 11
f 252/275/521 251/273/522 272/276/523
f 272/276/523 251/273/522 271/274/524
s 12
f 253/277/525 252/275/526 273/278/527
f 273/278/527 252/275/526 272/276/528
s 13
f 254/279/529 253/277/530 274/280/531
f 274/280/531 253/277/530 273/278/532
s 14
f 255/281/533 254/279/534 275/282/535
f 275/282/535 254/279/534 274/280/536
s 15
f 256/283/537 255/281/538 276/284/539
f 276/284/539 255/281/538 275/282/540
s 16
f 257/285/541 256/283/542 277/286/543
f 277/286/543 256/283/542 276/284/544
s 17
f 258/287/545 257/285/546 278/288/547
f 278/288/547 257/285/546 277/286/548
s 18
f 259/289/549 258/287/550 279/290/551
f 279/290/551 258/287/550 278/288/552
s 19
f 260/291/553 259/289/554 280/292/555
f 280/292/555 259/289/554 279/290/556
s 20
f 241/293/557 260/291/558 261/294/559
f 261/294/559 260/291/558 280/292/560
g default
v 193.707214 0.003427 0.000008
v 184.226501 0.003427 -59.858818
v 156.712433 0.003427 -113.858246
v 113.858231 0.003427 -156.712433
v 59.858814 0.003427 -184.226517
v -0.000011 0.003427 -193.707245
v -59.858845 0.003427 -184.226517
v -113.858276 0.003427 -156.712433
v -156.712463 0.003427 -113.858246
v -184.226562 0.003427 -59.858818
v -193.707275 0.003427 0.000014
v -184.226562 0.003427 59.858856
v -156.712479 0.003427 113.858276
v -113.858284 0.003427 156.712494
v -59.858849 0.003427 184.226578
v -0.000005 0.003427 193.707306
v 59.858837 0.003427 184.226593
v 113.858292 0.003427 156.712509
v 156.712494 0.003427 113.858299
v 184.226608 0.003427 59.858856
v 204.881210 0.003427 0.000009
v 194.853607 0.003427 -63.311768
v 165.752380 0.003427 -120.426155
v 120.426147 0.003427 -165.752380
v 63.311760 0.003427 -194.853622
v -0.000012 0.003427 -204.881226
v -63.311798 0.003427 -194.853622
v -120.426186 0.003427 -165.752396
v -165.752426 0.003427 -120.426163
v -194.853668 0.003427 -63.311779
v -204.881271 0.003427 0.000009
v -194.853668 0.003427 63.311798
v -165.752441 0.003427 120.426201
v -120.426208 0.003427 165.752441
v -63.311813 0.003427 194.853714
v -0.000006 0.003427 204.881317
v 63.311798 0.003427 194.853714
v 120.426216 0.003427 165.752487
v 165.752472 0.003427 120.426239
v 194.853745 0.003427 63.311825
vt 0.050000 0.750000
vt 0.000000 0.750000
vt 0.000000 0.500000
vt 0.050000 0.500000
vt 0.100000 0.750000
vt 0.100000 0.500000
vt 0.150000 0.750000
vt 0.150000 0.500000
vt 0.200000 0.750000
vt 0.200000 0.500000
vt 0.250000 0.750000
vt 0.250000 0.500000
vt 0.300000 0.750000
vt 0.300000 0.500000
vt 0.350000 0.750000
vt 0.350000 0.500000
vt 0.400000 0.750000
vt 0.400000 0.500000
vt 0.450000 0.750000
vt 0.450000 0.500000
vt 0.500000 0.750000
vt 0.500000 0.500000
vt 0.550000 0.750000
vt 0.550000 0.500000
vt 0.600000 0.750000
vt 0.600000 0.500000
vt 0.650000 0.750000
vt 0.650000 0.500000
vt 0.700000 0.750000
vt 0.700000 0.500000
vt 0.750000 0.750000
vt 0.750000 0.500000
vt 0.800000 0.750000
vt 0.800000 0.500000
vt 0.850000 0.750000
vt 0.850000 0.500000
vt 0.900000 0.750000
vt 0.900000 0.500000
vt 0.950000 0.750000
vt 0.950000 0.500000
vt 1.000000 0.750000
vt 1.000000 0.500000
vn 0.000000 1.000000 0.000000
vn 0.000000 1.000000 0.000000
vn 0.000000 1.000000 0.000000
vn 0.000000 1.000000 0.000000
vn 0.000000 1.000000 0.000000
vn 0.000000 1.000000 0.000000
vn 0.000000 1.000000 0.000000
vn 0.000000 1.000000 0.000000
vn 0.000000 1.000000 0.000000
vn 0.000000 1.000000 0.000000
vn 0.000000 1.000000 0.000000
vn 0.000000 1.000000 0.000000
vn 0.000000 1.000000 0.000000
vn 0.000000 1.000000 0.000000
vn 0.000000 1.000000 0.000000
vn 0.000000 1.000000 0.000000
vn 0.000000 1.000000 0.000000
vn 0.000000 1.000000 0.000000
vn 0.000000 1.000000 0.000000
vn 0.000000 1.000000 0.000000
vn 0.000000 1.000000 0.000000
vn 0.000000 1.000000 0.000000
vn 0.000000 1.000000 0.000000
vn 0.000000 1.000000 0.000000
vn 0.000000 1.000000 0.000000
vn 0.000000 1.000000 0.000000
vn 0.000000 1.000000 0.000000
vn 0.000000 1.000000 0.000000
vn 0.000000 1.000000 0.000000
vn 0.000000 1.000000 0.000000
vn 0.000000 1.000000 0.000000
vn 0.000000 1.000000 0.000000
vn 0.000000 1.000000 0.000000
vn 0.000000 1.000000 0.000000
vn 0.000000 1.000000 0.000000
vn 0.000000 1.000000 0.000000
vn 0.000000 1.000000 0.000000
vn 0.000000 1.000000 0.000000
vn 0.000000 1.000000 0.000000
vn 0.000000 1.000000 0.000000
vn 0.000000 1.000000 0.000000
vn 0.000000 1.000000 0.000000
vn 0.000000 1.000000 0.000000
vn 0.000000 1.000000 0.000000
vn 0.000000 1.000000 0.000000
vn 0.000000 1.000000 0.000000
vn 0.000000 1.000000 0.000000
vn 0.000000 1.000000 0.000000
vn 0.000000 1.000000 0.000000
vn 0.000000 1.000000 0.000000
vn 0.000000 1.000000 0.000000
vn 0.000000 1.000000 0.000000
vn 0.000000 1.000000 0.000000
vn 0.000000 1.000000 0.000000
vn 0.000000 1.000000 0.000000
vn 0.000000 1.000000 0.000000
vn 0.000000 1.000000 0.000000
vn 0.000000 1.000000 0.000000
vn 0.000000 1.000000 0.000000
vn 0.000000 1.000000 0.000000
vn 0.000000 1.000000 0.000000
vn 0.000000 1.000000 0.000000
vn 0.000000 1.000000 0.000000
vn 0.000000 1.000000 0.000000
vn 0.000000 1.000000 0.000000
vn 0.000000 1.000000 0.000000
vn 0.000000 1.000000 0.000000
vn 0.000000 1.000000 0.000000
vn 0.000000 1.000000 0.000000
vn 0.000000 1.000000 0.000000
vn 0.000000 1.000000 0.000000
vn 0.000000 1.000000 0.000000
vn 0.000000 1.000000 0.000000
vn 0.000000 1.000000 0.000000
vn 0.000000 1.000000 0.000000
vn 0.000000 1.000000 0.000000
vn 0.000000 1.000000 0.000000
vn 0.000000 1.000000 0.000000
vn 0.000000 1.000000 0.000000
vn 0.000000 1.000000 0.000000
s 1
g l4
f 282/295/561 281/296/562 302/298/563
f 302/298/563 281/296/562 301/297/564
s 2
f 283/299/565 282/295/566 303/300/567
f 303/300/567 282/295/566 302/298/568
s 3
f 284/301/569 283/299/570 304/302/571
f 304/302/571 283/299/570 303/300/572
s 4
f 285/303/573 284/301/574 305/304/575
f 305/304/575 284/301/574 304/302/576
s 5
f 286/305/577 285/303/578 306/306/579
f 306/306/579 285/303/578 305/304/580
s 6
f 287/307/581 286/305/582 307/308/583
f 307/308/583 286/305/582 306/306/584
s 7
f 288/309/585 287/307/586 308/310/587
f 308/310/587 287/307/586 307/308/588
s 8
f 289/311/589 288/309/590 309/312/591
f 309/312/591 288/309/590 308/310/592
s 9
f 290/313/593 289/311/594 310/314/595
f 310/314/595 289/311/594 309/312/596
s 10
f 291/315/597 290/313/598 311/316/599
f 311/316/599 290/313/598 310/314/600
s 11
f 292/317/601 291/315/602 312/318/603
f 312/318/603 291/315/602 311/316/604
s 12
f 293/319/605 292/317/606 313/320/607
f 313/320/607 292/317/606 312/318/608
s 13
f 294/321/609 293/319/610 314/322/611
f 314/322/611 293/319/610 313/320/612
s 14
f 295/323/613 294/321/614 315/324/615
f 315/324/615 294/321/614 314/322/616
s 15
f 296/325/617 295/323/618 316/326/619
f 316/326/619 295/323/618 315/324/620
s 16
f 297/327/621 296/325/622 317/328/623
f 317/328/623 296/325/622 316/326/624
s 17
f 298/329/625 297/327/626 318/330/627
f 318/330/627 297/327/626 317/328/628
s 18
f 299/331/629 298/329/630 319/332/631
f 319/332/631 298/329/630 318/330/632
s 19
f 300/333/633 299/331/634 320/334/635
f 320/334/635 299/331/634 319/332/636
s 20
f 281/335/637 300/333/638 301/336/639
f 301/336/639 300/333/638 320/334/640
g default
v 110.647324 -0.173491 0.000024
v 105.231857 -0.173491 -34.191887
v 89.515572 -0.173491 -65.036858
v 65.036858 -0.173491 -89.515564
v 34.191891 -0.173491 -105.231857
v -0.000020 -0.173491 -110.647339
v -34.191936 -0.173491 -105.231857
v -65.036903 -0.173491 -89.515564
v -89.515617 -0.173491 -65.036858
v -105.231918 -0.173491 -34.191887
v -110.647385 -0.173491 0.000028
v -105.231918 -0.173491 34.191948
v -89.515625 -0.173491 65.036911
v -65.036911 -0.173491 89.515633
v -34.191940 -0.173491 105.231934
v -0.000016 -0.173491 110.647415
v 34.191906 -0.173491 105.231949
v 65.036888 -0.173491 89.515648
v 89.515610 -0.173491 65.036926
v 105.231918 -0.173491 34.191948
v 117.030014 -0.173491 0.000025
v 111.302155 -0.173491 -36.164246
v 94.679268 -0.173491 -68.788506
v 68.788513 -0.173491 -94.679268
v 36.164246 -0.173491 -111.302155
v -0.000020 -0.173491 -117.030014
v -36.164295 -0.173491 -111.302155
v -68.788559 -0.173491 -94.679268
v -94.679321 -0.173491 -68.788513
v -111.302216 -0.173491 -36.164249
v -117.030075 -0.173491 0.000025
v -111.302216 -0.173491 36.164303
v -94.679329 -0.173491 68.788574
v -68.788574 -0.173491 94.679344
v -36.164303 -0.173491 111.302246
v -0.000017 -0.173491 117.030106
v 36.164268 -0.173491 111.302246
v 68.788551 -0.173491 94.679359
v 94.679329 -0.173491 68.788589
v 111.302231 -0.173491 36.164314
vt 0.050000 0.750000
vt 0.000000 0.750000
vt 0.000000 0.500000
vt 0.050000 0.500000
vt 0.100000 0.750000
vt 0.100000 0.500000
vt 0.150000 0.750000
vt 0.150000 0.500000
vt 0.200000 0.750000
vt 0.200000 0.500000
vt 0.250000 0.750000
vt 0.250000 0.500000
vt 0.300000 0.750000
vt 0.300000 0.500000
vt 0.350000 0.750000
vt 0.350000 0.500000
vt 0.400000 0.750000
vt 0.400000 0.500000
vt 0.450000 0.750000
vt 0.450000 0.500000
vt 0.500000 0.750000
vt 0.500000 0.500000
vt 0.550000 0.750000
vt 0.550000 0.500000
vt 0.600000 0.750000
vt 0.600000 0.500000
vt 0.650000 0.750000
vt 0.650000 0.500000
vt 0.700000 0.750000
vt 0.700000 0.500000
vt 0.750000 0.750000
vt 0.750000 0.500000
vt 0.800000 0.750000
vt 0.800000 0.500000
vt 0.850000 0.750000
vt 0.850000 0.500000
vt 0.900000 0.750000
vt 0.900000 0.500000
vt 0.950000 0.750000
vt 0.950000 0.500000
vt 1.000000 0.750000
vt 1.000000 0.500000
vn 0.000000 1.000000 0.000000
vn 0.000000 1.000000 0.000000
vn 0.000000 1.000000 0.000000
vn 0.000000 1.000000 0.000000
vn 0.000000 1.000000 0.000000
vn 0.000000 1.000000 0.000000
vn 0.000000 1.000000 0.000000
vn 0.000000 1.000000 0.000000
vn 0.000000 1.000000 0.000000
vn 0.000000 1.000000 0.000000
vn 0.000000 1.000000 0.000000
vn 0.000000 1.000000 0.000000
vn 0.000000 1.000000 0.000000
vn 0.000000 1.000000 0.000000
vn 0.000000 1.000000 0.000000
vn 0.000000 1.000000 0.000000
vn 0.000000 1.000000 0.000000
vn 0.000000 1.000000 0.000000
vn 0.000000 1.000000 0.000000
vn 0.000000 1.000000 0.000000
vn 0.000000 1.000000 0.000000
vn 0.000000 1.000000 0.000000
vn 0.000000 1.000000 0.000000
vn 0.000000 1.000000 0.000000
vn 0.000000 1.000000 0.000000
vn 0.000000 1.000000 0.000000
vn 0.000000 1.000000 0.000000
vn 0.000000 1.000000 0.000000
vn 0.000000 1.000000 0.000000
vn 0.000000 1.000000 0.000000
vn 0.000000 1.000000 0.000000
vn 0.000000 1.000000 0.000000
vn 0.000000 1.000000 0.000000
vn 0.000000 1.000000 0.000000
vn 0.000000 1.000000 0.000000
vn 0.000000 1.000000 0.000000
vn 0.000000 1.000000 0.000000
vn 0.000000 1.000000 0.000000
vn 0.000000 1.000000 0.000000
vn 0.000000 1.000000 0.000000
vn 0.000000 1.000000 0.000000
vn 0.000000 1.000000 0.000000
vn 0.000000 1.000000 0.000000
vn 0.000000 1.000000 0.000000
vn 0.000000 1.000000 0.000000
vn 0.000000 1.000000 0.000000
vn 0.000000 1.000000 0.000000
vn 0.000000 1.000000 0.000000
vn 0.000000 1.000000 0.000000
vn 0.000000 1.000000 0.000000
vn 0.000000 1.000000 0.000000
vn 0.000000 1.000000 0.000000
vn 0.000000 1.000000 0.000000
vn 0.000000 1.000000 0.000000
vn 0.000000 1.000000 0.000000
vn 0.000000 1.000000 0.000000
vn 0.000000 1.000000 0.000000
vn 0.000000 1.000000 0.000000
vn 0.000000 1.000000 0.000000
vn 0.000000 1.000000 0.000000
vn 0.000000 1.000000 0.000000
vn 0.000000 1.000000 0.000000
vn 0.000000 1.000000 0.000000
vn 0.000000 1.000000 0.000000
vn 0.000000 1.000000 0.000000
vn 0.000000 1.000000 0.000000
vn 0.000000 1.000000 0.000000
vn 0.000000 1.000000 0.000000
vn 0.000000 1.000000 0.000000
vn 0.000000 1.000000 0.000000
vn 0.000000 1.000000 0.000000
vn 0.000000 1.000000 0.000000
vn 0.000000 1.000000 0.000000
vn 0.000000 1.000000 0.000000
vn 0.000000 1.000000 0.000000
vn 0.000000 1.000000 0.000000
vn 0.000000 1.000000 0.000000
vn 0.000000 1.000000 0.000000
vn 0.000000 1.000000 0.000000
vn 0.000000 1.000000 0.000000
s 1
g l10
f 322/337/641 321/338/642 342/340/643
f 342/340/643 321/338/642 341/339/644
s 2
f 323/341/645 322/337/646 343/342/647
f 343/342/647 322/337/646 342/340/648
s 3
f 324/343/649 323/341/650 344/344/651
f 344/344/651 323/341/650 343/342/652
s 4
f 325/345/653 324/343/654 345/346/655
f 345/346/655 324/343/654 344/344/656
s 5
f 326/347/657 325/345/658 346/348/659
f 346/348/659 325/345/658 345/346/660
s 6
f 327/349/661 326/347/662 347/350/663
f 347/350/663 326/347/662 346/348/664
s 7
f 328/351/665 327/349/666 348/352/667
f 348/352/667 327/349/666 347/350/668
s 8
f 329/353/669 328/351/670 349/354/671
f 349/354/671 328/351/670 348/352/672
s 9
f 330/355/673 329/353/674 350/356/675
f 350/356/675 329/353/674 349/354/676
s 10
f 331/357/677 330/355/678 351/358/679
f 351/358/679 330/355/678 350/356/680
s 11
f 332/359/681 331/357/682 352/360/683
f 352/360/683 331/357/682 351/358/684
s 12
f 333/361/685 332/359/686 353/362/687
f 353/362/687 332/359/686 352/360/688
s 13
f 334/363/689 333/361/690 354/364/691
f 354/364/691 333/361/690 353/362/692
s 14
f 335/365/693 334/363/694 355/366/695
f 355/366/695 334/363/694 354/364/696
s 15
f 336/367/697 335/365/698 356/368/699
f 356/368/699 335/365/698 355/366/700
s 16
f 337/369/701 336/367/702 357/370/703
f 357/370/703 336/367/702 356/368/704
s 17
f 338/371/705 337/369/706 358/372/707
f 358/372/707 337/369/706 357/370/708
s 18
f 339/373/709 338/371/710 359/374/711
f 359/374/711 338/371/710 358/372/712
s 19
f 340/375/713 339/373/714 360/376/715
f 360/376/715 339/373/714 359/374/716
s 20
f 321/377/717 340/375/718 341/378/719
f 341/378/719 340/375/718 360/376/720
g default
v 256.299774 0.136749 -0.000004
v 243.755569 0.136749 -79.200989
v 207.350876 0.136749 -150.649231
v 150.649216 0.136749 -207.350891
v 79.200981 0.136749 -243.755585
v -0.000005 0.136749 -256.299805
v -79.201004 0.136749 -243.755585
v -150.649246 0.136749 -207.350891
v -207.350906 0.136749 -150.649231
v -243.755615 0.136749 -79.200989
v -256.299835 0.136749 0.000004
v -243.755615 0.136749 79.201012
v -207.350922 0.136749 150.649246
v -150.649261 0.136749 207.350922
v -79.201012 0.136749 243.755630
v 0.000003 0.136749 256.299866
v 79.201012 0.136749 243.755661
v 150.649292 0.136749 207.350952
v 207.350967 0.136749 150.649277
v 243.755707 0.136749 79.201012
v 271.084412 0.136749 -0.000003
v 257.816589 0.136749 -83.769691
v 219.311890 0.136749 -159.339432
v 159.339417 0.136749 -219.311905
v 83.769676 0.136749 -257.816620
v -0.000006 0.136749 -271.084442
v -83.769707 0.136749 -257.816620
v -159.339447 0.136749 -219.311920
v -219.311935 0.136749 -159.339447
v -257.816650 0.136749 -83.769707
v -271.084473 0.136749 -0.000003
v -257.816650 0.136749 83.769707
v -219.311951 0.136749 159.339462
v -159.339478 0.136749 219.311966
v -83.769730 0.136749 257.816711
v 0.000002 0.136749 271.084534
v 83.769730 0.136749 257.816711
v 159.339508 0.136749 219.312012
v 219.312027 0.136749 159.339508
v 257.816772 0.136749 83.769737
vt 0.050000 0.750000
vt 0.000000 0.750000
vt 0.000000 0.500000
vt 0.050000 0.500000
vt 0.100000 0.750000
vt 0.100000 0.500000
vt 0.150000 0.750000
vt 0.150000 0.500000
vt 0.200000 0.750000
vt 0.200000 0.500000
vt 0.250000 0.750000
vt 0.250000 0.500000
vt 0.300000 0.750000
vt 0.300000 0.500000
vt 0.350000 0.750000
vt 0.350000 0.500000
vt 0.400000 0.750000
vt 0.400000 0.500000
vt 0.450000 0.750000
vt 0.450000 0.500000
vt 0.500000 0.750000
vt 0.500000 0.500000
vt 0.550000 0.750000
vt 0.550000 0.500000
vt 0.600000 0.750000
vt 0.600000 0.500000
vt 0.650000 0.750000
vt 0.650000 0.500000
vt 0.700000 0.750000
vt 0.700000 0.500000
vt 0.750000 0.750000
vt 0.750000 0.500000
vt 0.800000 0.750000
vt 0.800000 0.500000
vt 0.850000 0.750000
vt 0.850000 0.500000
vt 0.900000 0.750000
vt 0.900000 0.500000
vt 0.950000 0.750000
vt 0.950000 0.500000
vt 1.000000 0.750000
vt 1.000000 0.500000
vn 0.000000 1.000000 0.000000
vn 0.000000 1.000000 0.000000
vn 0.000000 1.000000 0.000000
vn 0.000000 1.000000 0.000000
vn 0.000000 1.000000 0.000000
vn 0.000000 1.000000 0.000000
vn 0.000000 1.000000 0.000000
vn 0.000000 1.000000 0.000000
vn 0.000000 1.000000 0.000000
vn 0.000000 1.000000 0.000000
vn 0.000000 1.000000 0.000000
vn 0.000000 1.000000 0.000000
vn 0.000000 1.000000 0.000000
vn 0.000000 1.000000 0.000000
vn 0.000000 1.000000 0.000000
vn 0.000000 1.000000 0.000000
vn 0.000000 1.000000 0.000000
vn 0.000000 1.000000 0.000000
vn 0.000000 1.000000 0.000000
vn 0.000000 1.000000 0.000000
vn 0.000000 1.000000 0.000000
vn 0.000000 1.000000 0.000000
vn 0.000000 1.000000 0.000000
vn 0.000000 1.000000 0.000000
vn 0.000000 1.000000 0.000000
vn 0.000000 1.000000 0.000000
vn 0.000000 1.000000 0.000000
vn 0.000000 1.000000 0.000000
vn 0.000000 1.000000 0.000000
vn 0.000000 1.000000 0.000000
vn 0.000000 1.000000 0.000000
vn 0.000000 1.000000 0.000000
vn 0.000000 1.000000 0.000000
vn 0.000000 1.000000 0.000000
vn 0.000000 1.000000 0.000000
vn 0.000000 1.000000 0.000000
vn 0.000000 1.000000 0.000000
vn 0.000000 1.000000 0.000000
vn 0.000000 1.000000 0.000000
vn 0.000000 1.000000 0.000000
vn 0.000000 1.000000 0.000000
vn 0.000000 1.000000 0.000000
vn 0.000000 1.000000 0.000000
vn 0.000000 1.000000 0.000000
vn 0.000000 1.000000 0.000000
vn 0.000000 1.000000 0.000000
vn 0.000000 1.000000 0.000000
vn 0.000000 1.000000 0.000000
vn 0.000000 1.000000 0.000000
vn 0.000000 1.000000 0.000000
vn 0.000000 1.000000 0.000000
vn 0.000000 1.000000 0.000000
vn 0.000000 1.000000 0.000000
vn 0.000000 1.000000 0.000000
vn 0.000000 1.000000 0.000000
vn 0.000000 1.000000 0.000000
vn 0.000000 1.000000 0.000000
vn 0.000000 1.000000 0.000000
vn 0.000000 1.000000 0.000000
vn 0.000000 1.000000 0.000000
vn 0.000000 1.000000 0.000000
vn 0.000000 1.000000 0.000000
vn 0.000000 1.000000 0.000000
vn 0.000000 1.000000 0.000000
vn 0.000000 1.000000 0.000000
vn 0.000000 1.000000 0.000000
vn 0.000000 1.000000 0.000000
vn 0.000000 1.000000 0.000000
vn 0.000000 1.000000 0.000000
vn 0.000000 1.000000 0.000000
vn 0.000000 1.000000 0.000000
vn 0.000000 1.000000 0.000000
vn 0.000000 1.000000 0.000000
vn 0.000000 1.000000 0.000000
vn 0.000000 1.000000 0.000000
vn 0.000000 1.000000 0.000000
vn 0.000000 1.000000 0.000000
vn 0.000000 1.000000 0.000000
vn 0.000000 1.000000 0.000000
vn 0.000000 1.000000 0.000000
s 1
g l1
f 362/379/721 361/380/722 382/382/723
f 382/382/723 361/380/722 381/381/724
s 2
f 363/383/725 362/379/726 383/384/727
f 383/384/727 362/379/726 382/382/728
s 3
f 364/385/729 363/383/730 384/386/731
f 384/386/731 363/383/730 383/384/732
s 4
f 365/387/733 364/385/734 385/388/735
f 385/388/735 364/385/734 384/386/736
s 5
f 366/389/737 365/387/738 386/390/739
f 386/390/739 365/387/738 385/388/740
s 6
f 367/391/741 366/389/742 387/392/743
f 387/392/743 366/389/742 386/390/744
s 7
f 368/393/745 367/391/746 388/394/747
f 388/394/747 367/391/746 387/392/748
s 8
f 369/395/749 368/393/750 389/396/751
f 389/396/751 368/393/750 388/394/752
s 9
f 370/397/753 369/395/754 390/398/755
f 390/398/755 369/395/754 389/396/756
s 10
f 371/399/757 370/397/758 391/400/759
f 391/400/759 370/397/758 390/398/760
s 11
f 372/401/761 371/399/762 392/402/763
f 392/402/763 371/399/762 391/400/764
s 12
f 373/403/765 372/401/766 393/404/767
f 393/404/767 372/401/766 392/402/768
s 13
f 374/405/769 373/403/770 394/406/771
f 394/406/771 373/403/770 393/404/772
s 14
f 375/407/773 374/405/774 395/408/775
f 395/408/775 374/405/774 394/406/776
s 15
f 376/409/777 375/407/778 396/410/779
f 396/410/779 375/407/778 395/408/780
s 16
f 377/411/781 376/409/782 397/412/783
f 397/412/783 376/409/782 396/410/784
s 17
f 378/413/785 377/411/786 398/414/787
f 398/414/787 377/411/786 397/412/788
s 18
f 379/415/789 378/413/790 399/416/791
f 399/416/791 378/413/790 398/414/792
s 19
f 380/417/793 379/415/794 400/418/795
f 400/418/795 379/415/794 399/416/796
s 20
f 361/419/797 380/417/798 381/420/799
f 381/420/799 380/417/798 400/418/800
g default
v 160.722809 -0.066830 0.000014
v 152.856476 -0.066830 -49.666069
v 130.027481 -0.066830 -94.470490
v 94.470490 -0.066830 -130.027496
v 49.666069 -0.066830 -152.856476
v -0.000015 -0.066830 -160.722824
v -49.666107 -0.066830 -152.856476
v -94.470528 -0.066830 -130.027496
v -130.027527 -0.066830 -94.470490
v -152.856537 -0.066830 -49.666069
v -160.722870 -0.066830 0.000020
v -152.856537 -0.066830 49.666115
v -130.027527 -0.066830 94.470535
v -94.470535 -0.066830 130.027542
v -49.666111 -0.066830 152.856537
v -0.000009 -0.066830 160.722900
v 49.666088 -0.066830 152.856567
v 94.470535 -0.066830 130.027557
v 130.027542 -0.066830 94.470551
v 152.856567 -0.066830 49.666115
v 169.994095 -0.066830 0.000015
v 161.673981 -0.066830 -52.531052
v 137.528107 -0.066830 -99.920021
v 99.920013 -0.066830 -137.528107
v 52.531048 -0.066830 -161.674011
v -0.000015 -0.066830 -169.994110
v -52.531090 -0.066830 -161.674011
v -99.920059 -0.066830 -137.528122
v -137.528168 -0.066830 -99.920029
v -161.674042 -0.066830 -52.531059
v -169.994156 -0.066830 0.000015
v -161.674042 -0.066830 52.531097
v -137.528168 -0.066830 99.920074
v -99.920074 -0.066830 137.528183
v -52.531105 -0.066830 161.674103
v -0.000010 -0.066830 169.994202
v 52.531082 -0.066830 161.674103
v 99.920074 -0.066830 137.528214
v 137.528198 -0.066830 99.920105
v 161.674103 -0.066830 52.531113
vt 0.050000 0.750000
vt 0.000000 0.750000
vt 0.000000 0.500000
vt 0.050000 0.500000
vt 0.100000 0.750000
vt 0.100000 0.500000
vt 0.150000 0.750000
vt 0.150000 0.500000
vt 0.200000 0.750000
vt 0.200000 0.500000
vt 0.250000 0.750000
vt 0.250000 0.500000
vt 0.300000 0.750000
vt 0.300000 0.500000
vt 0.350000 0.750000
vt 0.350000 0.500000
vt 0.400000 0.750000
vt 0.400000 0.500000
vt 0.450000 0.750000
vt 0.450000 0.500000
vt 0.500000 0.750000
vt 0.500000 0.500000
vt 0.550000 0.750000
vt 0.550000 0.500000
vt 0.600000 0.750000
vt 0.600000 0.500000
vt 0.650000 0.750000
vt 0.650000 0.500000
vt 0.700000 0.750000
vt 0.700000 0.500000
vt 0.750000 0.750000
vt 0.750000 0.500000
vt 0.800000 0.750000
vt 0.800000 0.500000
vt 0.850000 0.750000
vt 0.850000 0.500000
vt 0.900000 0.750000
vt 0.900000 0.500000
vt 0.950000 0.750000
vt 0.950000 0.500000
vt 1.000000 0.750000
vt 1.000000 0.500000
vn 0.000000 1.000000 0.000000
vn 0.000000 1.000000 0.000000
vn 0.000000 1.000000 0.000000
vn 0.000000 1.000000 0.000000
vn 0.000000 1.000000 0.000000
vn 0.000000 1.000000 0.000000
vn 0.000000 1.000000 0.000000
vn 0.000000 1.000000 0.000000
vn 0.000000 1.000000 0.000000
vn 0.000000 1.000000 0.000000
vn 0.000000 1.000000 0.000000
vn 0.000000 1.000000 0.000000
vn 0.000000 1.000000 0.000000
vn 0.000000 1.000000 0.000000
vn 0.000000 1.000000 0.000000
vn 0.000000 1.000000 0.000000
vn 0.000000 1.000000 0.000000
vn 0.000000 1.000000 0.000000
vn 0.000000 1.000000 0.000000
vn 0.000000 1.000000 0.000000
vn 0.000000 1.000000 0.000000
vn 0.000000 1.000000 0.000000
vn 0.000000 1.000000 0.000000
vn 0.000000 1.000000 0.000000
vn 0.000000 1.000000 0.000000
vn 0.000000 1.000000 0.000000
vn 0.000000 1.000000 0.000000
vn 0.000000 1.000000 0.000000
vn 0.000000 1.000000 0.000000
vn 0.000000 1.000000 0.000000
vn 0.000000 1.000000 0.000000
vn 0.000000 1.000000 0.000000
vn 0.000000 1.000000 0.000000
vn 0.000000 1.000000 0.000000
vn 0.000000 1.000000 0.000000
vn 0.000000 1.000000 0.000000
vn 0.000000 1.000000 0.000000
vn 0.000000 1.000000 0.000000
vn 0.000000 1.000000 0.000000
vn 0.000000 1.000000 0.000000
vn 0.000000 1.000000 0.000000
vn 0.000000 1.000000 0.000000
vn 0.000000 1.000000 0.000000
vn 0.000000 1.000000 0.000000
vn 0.000000 1.000000 0.000000
vn 0.000000 1.000000 0.000000
vn 0.000000 1.000000 0.000000
vn 0.000000 1.000000 0.000000
vn 0.000000 1.000000 0.000000
vn 0.000000 1.000000 0.000000
vn 0.000000 1.000000 0.000000
vn 0.000000 1.000000 0.000000
vn 0.000000 1.000000 0.000000
vn 0.000000 1.000000 0.000000
vn 0.000000 1.000000 0.000000
vn 0.000000 1.000000 0.000000
vn 0.000000 1.000000 0.000000
vn 0.000000 1.000000 0.000000
vn 0.000000 1.000000 0.000000
vn 0.000000 1.000000 0.000000
vn 0.000000 1.000000 0.000000
vn 0.000000 1.000000 0.000000
vn 0.000000 1.000000 0.000000
vn 0.000000 1.000000 0.000000
vn 0.000000 1.000000 0.000000
vn 0.000000 1.000000 0.000000
vn 0.000000 1.000000 0.000000
vn 0.000000 1.000000 0.000000
vn 0.000000 1.000000 0.000000
vn 0.000000 1.000000 0.000000
vn 0.000000 1.000000 0.000000
vn 0.000000 1.000000 0.000000
vn 0.000000 1.000000 0.000000
vn 0.000000 1.000000 0.000000
vn 0.000000 1.000000 0.000000
vn 0.000000 1.000000 0.000000
vn 0.000000 1.000000 0.000000
vn 0.000000 1.000000 0.000000
vn 0.000000 1.000000 0.000000
vn 0.000000 1.000000 0.000000
s 1
g l6
f 402/421/801 401/422/802 422/424/803
f 422/424/803 401/422/802 421/423/804
s 2
f 403/425/805 402/421/806 423/426/807
f 423/426/807 402/421/806 422/424/808
s 3
f 404/427/809 403/425/810 424/428/811
f 424/428/811 403/425/810 423/426/812
s 4
f 405/429/813 404/427/814 425/430/815
f 425/430/815 404/427/814 424/428/816
s 5
f 406/431/817 405/429/818 426/432/819
f 426/432/819 405/429/818 425/430/820
s 6
f 407/433/821 406/431/822 427/434/823
f 427/434/823 406/431/822 426/432/824
s 7
f 408/435/825 407/433/826 428/436/827
f 428/436/827 407/433/826 427/434/828
s 8
f 409/437/829 408/435/830 429/438/831
f 429/438/831 408/435/830 428/436/832
s 9
f 410/439/833 409/437/834 430/440/835
f 430/440/835 409/437/834 429/438/836
s 10
f 411/441/837 410/439/838 431/442/839
f 431/442/839 410/439/838 430/440/840
s 11
f 412/443/841 411/441/842 432/444/843
f 432/444/843 411/441/842 431/442/844
s 12
f 413/445/845 412/443/846 433/446/847
f 433/446/847 412/443/846 432/444/848
s 13
f 414/447/849 413/445/850 434/448/851
f 434/448/851 413/445/850 433/446/852
s 14
f 415/449/853 414/447/854 435/450/855
f 435/450/855 414/447/854 434/448/856
s 15
f 416/451/857 415/449/858 436/452/859
f 436/452/859 415/449/858 435/450/860
s 16
f 417/453/861 416/451/862 437/454/863
f 437/454/863 416/451/862 436/452/864
s 17
f 418/455/865 417/453/866 438/456/867
f 438/456/867 417/453/866 437/454/868
s 18
f 419/457/869 418/455/870 439/458/871
f 439/458/871 418/455/870 438/456/872
s 19
f 420/459/873 419/457/874 440/460/875
f 440/460/875 419/457/874 439/458/876
s 20
f 401/461/877 420/459/878 421/462/879
f 421/462/879 420/459/878 440/460/880
g default
v 121.471695 -0.150435 0.000022
v 115.526443 -0.150435 -37.536800
v 98.272659 -0.150435 -71.399254
v 71.399261 -0.150435 -98.272659
v 37.536804 -0.150435 -115.526443
v -0.000018 -0.150435 -121.471695
v -37.536846 -0.150435 -115.526443
v -71.399307 -0.150435 -98.272659
v -98.272713 -0.150435 -71.399254
v -115.526505 -0.150435 -37.536800
v -121.471756 -0.150435 0.000026
v -115.526505 -0.150435 37.536858
v -98.272720 -0.150435 71.399315
v -71.399315 -0.150435 98.272728
v -37.536850 -0.150435 115.526520
v -0.000014 -0.150435 121.471771
v 37.536819 -0.150435 115.526535
v 71.399292 -0.150435 98.272736
v 98.272705 -0.150435 71.399330
v 115.526505 -0.150435 37.536858
v 128.478775 -0.150435 0.000023
v 122.190582 -0.150435 -39.702110
v 103.941513 -0.150435 -75.517921
v 75.517929 -0.150435 -103.941513
v 39.702110 -0.150435 -122.190582
v -0.000019 -0.150435 -128.478790
v -39.702156 -0.150435 -122.190582
v -75.517975 -0.150435 -103.941521
v -103.941566 -0.150435 -75.517929
v -122.190643 -0.150435 -39.702114
v -128.478836 -0.150435 0.000023
v -122.190643 -0.150435 39.702164
v -103.941574 -0.150435 75.517990
v -75.517990 -0.150435 103.941589
v -39.702168 -0.150435 122.190674
v -0.000015 -0.150435 128.478882
v 39.702133 -0.150435 122.190674
v 75.517967 -0.150435 103.941612
v 103.941574 -0.150435 75.518005
v 122.190659 -0.150435 39.702179
vt 0.050000 0.750000
vt 0.000000 0.750000
vt 0.000000 0.500000
vt 0.050000 0.500000
vt 0.100000 0.750000
vt 0.100000 0.500000
vt 0.150000 0.750000
vt 0.150000 0.500000
vt 0.200000 0.750000
vt 0.200000 0.500000
vt 0.250000 0.750000
vt 0.250000 0.500000
vt 0.300000 0.750000
vt 0.300000 0.500000
vt 0.350000 0.750000
vt 0.350000 0.500000
vt 0.400000 0.750000
vt 0.400000 0.500000
vt 0.450000 0.750000
vt 0.450000 0.500000
vt 0.500000 0.750000
vt 0.500000 0.500000
vt 0.550000 0.750000
vt 0.550000 0.500000
vt 0.600000 0.750000
vt 0.600000 0.500000
vt 0.650000 0.750000
vt 0.650000 0.500000
vt 0.700000 0.750000
vt 0.700000 0.500000
vt 0.750000 0.750000
vt 0.750000 0.500000
vt 0.800000 0.750000
vt 0.800000 0.500000
vt 0.850000 0.750000
vt 0.850000 0.500000
vt 0.900000 0.750000
vt 0.900000 0.500000
vt 0.950000 0.750000
vt 0.950000 0.500000
vt 1.000000 0.750000
vt 1.000000 0.500000
vn 0.000000 1.000000 0.000000
vn 0.000000 1.000000 -0.000000
vn 0.000000 1.000000 -0.000000
vn 0.000000 1.000000 -0.000000
vn 0.000000 1.000000 0.000000
vn 0.000000 1.000000 0.000000
vn 0.000000 1.000000 0.000000
vn 0.000000 1.000000 0.000000
vn 0.000000 1.000000 0.000000
vn 0.000000 1.000000 0.000000
vn 0.000000 1.000000 0.000000
vn 0.000000 1.000000 0.000000
vn 0.000000 1.000000 0.000000
vn 0.000000 1.000000 0.000000
vn 0.000000 1.000000 0.000000
vn 0.000000 1.000000 0.000000
vn 0.000000 1.000000 0.000000
vn 0.000000 1.000000 0.000000
vn 0.000000 1.000000 0.000000
vn 0.000000 1.000000 0.000000
vn 0.000000 1.000000 0.000000
vn 0.000000 1.000000 0.000000
vn 0.000000 1.000000 0.000000
vn 0.000000 1.000000 0.000000
vn 0.000000 1.000000 0.000000
vn 0.000000 1.000000 0.000000
vn 0.000000 1.000000 0.000000
vn 0.000000 1.000000 0.000000
vn 0.000000 1.000000 0.000000
vn 0.000000 1.000000 0.000000
vn 0.000000 1.000000 0.000000
vn 0.000000 1.000000 0.000000
vn 0.000000 1.000000 0.000000
vn 0.000000 1.000000 0.000000
vn 0.000000 1.000000 0.000000
vn 0.000000 1.000000 0.000000
vn 0.000000 1.000000 0.000000
vn 0.000000 1.000000 0.000000
vn 0.000000 1.000000 0.000000
vn 0.000000 1.000000 0.000000
vn 0.000000 1.000000 0.000000
vn 0.000000 1.000000 0.000000
vn 0.000000 1.000000 0.000000
vn 0.000000 1.000000 0.000000
vn 0.000000 1.000000 0.000000
vn 0.000000 1.000000 0.000000
vn 0.000000 1.000000 0.000000
vn 0.000000 1.000000 0.000000
vn 0.000000 1.000000 0.000000
vn 0.000000 1.000000 0.000000
vn 0.000000 1.000000 0.000000
vn 0.000000 1.000000 0.000000
vn 0.000000 1.000000 0.000000
vn 0.000000 1.000000 0.000000
vn 0.000000 1.000000 0.000000
vn 0.000000 1.000000 0.000000
vn 0.000000 1.000000 0.000000
vn 0.000000 1.000000 0.000000
vn 0.000000 1.000000 0.000000
vn 0.000000 1.000000 0.000000
vn 0.000000 1.000000 0.000000
vn 0.000000 1.000000 0.000000
vn 0.000000 1.000000 0.000000
vn 0.000000 1.000000 0.000000
vn 0.000000 1.000000 0.000000
vn 0.000000 1.000000 0.000000
vn 0.000000 1.000000 0.000000
vn 0.000000 1.000000 0.000000
vn 0.000000 1.000000 0.000000
vn 0.000000 1.000000 0.000000
vn 0.000000 1.000000 0.000000
vn 0.000000 1.000000 0.000000
vn 0.000000 1.000000 0.000000
vn 0.000000 1.000000 0.000000
vn 0.000000 1.000000 0.000000
vn 0.000000 1.000000 0.000000
vn 0.000000 1.000000 0.000000
vn 0.000000 1.000000 0.000000
vn 0.000000 1.000000 0.000000
vn 0.000000 1.000000 0.000000
s 1
g l9
f 442/463/881 441/464/882 462/466/883
f 462/466/883 441/464/882 461/465/884
s 2
f 443/467/885 442/463/886 463/468/887
f 463/468/887 442/463/886 462/466/888
s 3
f 444/469/889 443/467/890 464/470/891
f 464/470/891 443/467/890 463/468/892
s 4
f 445/471/893 444/469/894 465/472/895
f 465/472/895 444/469/894 464/470/896
s 5
f 446/473/897 445/471/898 466/474/899
f 466/474/899 445/471/898 465/472/900
s 6
f 447/475/901 446/473/902 467/476/903
f 467/476/903 446/473/902 466/474/904
s 7
f 448/477/905 447/475/906 468/478/907
f 468/478/907 447/475/906 467/476/908
s 8
f 449/479/909 448/477/910 469/480/911
f 469/480/911 448/477/910 468/478/912
s 9
f 450/481/913 449/479/914 470/482/915
f 470/482/915 449/479/914 469/480/916
s 10
f 451/483/917 450/481/918 471/484/919
f 471/484/919 450/481/918 470/482/920
s 11
f 452/485/921 451/483/922 472/486/923
f 472/486/923 451/483/922 471/484/924
s 12
f 453/487/925 452/485/926 473/488/927
f 473/488/927 452/485/926 472/486/928
s 13
f 454/489/929 453/487/930 474/490/931
f 474/490/931 453/487/930 473/488/932
s 14
f 455/491/933 454/489/934 475/492/935
f 475/492/935 454/489/934 474/490/936
s 15
f 456/493/937 455/491/938 476/494/939
f 476/494/939 455/491/938 475/492/940
s 16
f 457/495/941 456/493/942 477/496/943
f 477/496/943 456/493/942 476/494/944
s 17
f 458/497/945 457/495/946 478/498/947
f 478/498/947 457/495/946 477/496/948
s 18
f 459/499/949 458/497/950 479/500/951
f 479/500/951 458/497/950 478/498/952
s 19
f 460/501/953 459/499/954 480/502/955
f 480/502/955 459/499/954 479/500/956
s 20
f 441/503/957 460/501/958 461/504/959
f 461/504/959 460/501/958 480/502/960
