# This file uses centimeters as units for non-parametric coordinates.

g default
v -67.534294 -0.812059 67.534294
v -136.413223 -0.812059 93.734131
v -93.734131 -0.812059 136.413223
v -162.613068 -0.812059 162.613068
v -121.607155 -0.812059 138.052216
v -108.540192 -0.812059 92.095139
v -138.052216 -0.812059 121.607155
v -115.073677 -0.812059 115.073677
v -92.095139 -0.812059 108.540192
v -67.534294 0.000000 67.534294
v -136.413223 0.000000 93.734131
v -93.734131 0.000000 136.413223
v -162.613068 0.000000 162.613068
v -121.607155 0.000000 138.052216
v -108.540192 0.000000 92.095139
v -138.052216 0.000000 121.607155
v -115.073677 0.000000 115.073677
v -92.095139 0.000000 108.540192
vt 0.500000 0.000000
vt 0.500000 0.500000
vt 1.000000 0.500000
vt 1.000000 0.000000
vt 0.000000 0.000000
vt 0.000000 0.500000
vt 0.500000 1.000000
vt 1.000000 1.000000
vt 0.000000 1.000000
vt 0.500000 0.000000
vt 1.000000 0.000000
vt 1.000000 0.500000
vt 0.500000 0.500000
vt 0.000000 0.000000
vt 0.000000 0.500000
vt 1.000000 1.000000
vt 0.500000 1.000000
vt 0.000000 1.000000
vn 0.000000 -1.000000 0.000000
vn 0.000000 -1.000000 0.000000
vn 0.000000 -1.000000 0.000000
vn 0.000000 -1.000000 -0.000000
vn 0.000000 -1.000000 0.000000
vn 0.000000 -1.000000 0.000000
vn 0.000000 -1.000000 0.000000
vn 0.000000 -1.000000 0.000000
vn 0.000000 -1.000000 0.000000
vn 0.000000 -1.000000 0.000000
vn 0.000000 -1.000000 0.000000
vn 0.000000 -1.000000 0.000000
vn 0.000000 -1.000000 0.000000
vn 0.000000 -1.000000 0.000000
vn 0.000000 -1.000000 0.000000
vn 0.000000 -1.000000 0.000000
vn 0.000000 1.000000 0.000000
vn 0.000000 1.000000 0.000000
vn 0.000000 1.000000 0.000000
vn 0.000000 1.000000 0.000000
vn 0.000000 1.000000 0.000000
vn 0.000000 1.000000 0.000000
vn 0.000000 1.000000 0.000000
vn 0.000000 1.000000 0.000000
vn 0.000000 1.000000 0.000000
vn 0.000000 1.000000 0.000000
vn 0.000000 1.000000 0.000000
vn 0.000000 1.000000 0.000000
vn 0.000000 1.000000 0.000000
vn 0.000000 1.000000 0.000000
vn 0.000000 1.000000 0.000000
vn 0.000000 1.000000 0.000000
s 1
g l6
f 6/1/1 8/2/2 2/4/3
f 2/4/3 8/2/2 7/3/4
s 2
f 1/5/5 9/6/6 6/1/7
f 6/1/7 9/6/6 8/2/8
s 3
f 8/2/9 5/7/10 7/3/11
f 7/3/11 5/7/10 4/8/12
s 4
f 9/6/13 3/9/14 8/2/15
f 8/2/15 3/9/14 5/7/16
s 5
f 15/10/17 11/11/18 17/13/19
f 17/13/19 11/11/18 16/12/20
s 6
f 10/14/21 15/10/22 18/15/23
f 18/15/23 15/10/22 17/13/24
s 7
f 17/13/25 16/12/26 14/17/27
f 14/17/27 16/12/26 13/16/28
s 8
f 18/15/29 17/13/30 12/18/31
f 12/18/31 17/13/30 14/17/32
g default
v 74.155899 -0.812059 -30.973690
v 118.269279 -0.812059 -29.814735
v 104.339340 -0.812059 -63.165192
v 148.452713 -0.812059 -62.006237
v 120.151268 -0.812059 -57.731422
v 102.457352 -0.812059 -35.248508
v 125.518738 -0.812059 -44.880863
v 111.304306 -0.812059 -46.489964
v 97.089874 -0.812059 -48.099060
v 74.155899 0.000000 -30.973690
v 118.269279 0.000000 -29.814735
v 104.339340 0.000000 -63.165192
v 148.452713 0.000000 -62.006237
v 120.151268 0.000000 -57.731422
v 102.457352 0.000000 -35.248508
v 125.518738 0.000000 -44.880863
v 111.304306 0.000000 -46.489964
v 97.089874 0.000000 -48.099060
vt 0.500000 0.000000
vt 0.500000 0.500000
vt 1.000000 0.500000
vt 1.000000 0.000000
vt 0.000000 0.000000
vt 0.000000 0.500000
vt 0.500000 1.000000
vt 1.000000 1.000000
vt 0.000000 1.000000
vt 0.500000 0.000000
vt 1.000000 0.000000
vt 1.000000 0.500000
vt 0.500000 0.500000
vt 0.000000 0.000000
vt 0.000000 0.500000
vt 1.000000 1.000000
vt 0.500000 1.000000
vt 0.000000 1.000000
vn 0.000000 -1.000000 0.000000
vn 0.000000 -1.000000 0.000000
vn 0.000000 -1.000000 0.000000
vn 0.000000 -1.000000 0.000000
vn 0.000000 -1.000000 0.000000
vn 0.000000 -1.000000 0.000000
vn 0.000000 -1.000000 0.000000
vn 0.000000 -1.000000 0.000000
vn 0.000000 -1.000000 0.000000
vn 0.000000 -1.000000 0.000000
vn 0.000000 -1.000000 0.000000
vn 0.000000 -1.000000 0.000000
vn 0.000000 -1.000000 0.000000
vn 0.000000 -1.000000 0.000000
vn 0.000000 -1.000000 0.000000
vn 0.000000 -1.000000 0.000000
vn 0.000000 1.000000 0.000000
vn 0.000000 1.000000 0.000000
vn 0.000000 1.000000 0.000000
vn 0.000000 1.000000 0.000000
vn 0.000000 1.000000 0.000000
vn 0.000000 1.000000 0.000000
vn 0.000000 1.000000 0.000000
vn 0.000000 1.000000 0.000000
vn 0.000000 1.000000 0.000000
vn 0.000000 1.000000 0.000000
vn 0.000000 1.000000 0.000000
vn 0.000000 1.000000 0.000000
vn 0.000000 1.000000 0.000000
vn 0.000000 1.000000 0.000000
vn 0.000000 1.000000 0.000000
vn 0.000000 1.000000 0.000000
s 1
g l10
f 24/19/33 26/20/34 20/22/35
f 20/22/35 26/20/34 25/21/36
s 2
f 19/23/37 27/24/38 24/19/39
f 24/19/39 27/24/38 26/20/40
s 3
f 26/20/41 23/25/42 25/21/43
f 25/21/43 23/25/42 22/26/44
s 4
f 27/24/45 21/27/46 26/20/47
f 26/20/47 21/27/46 23/25/48
s 5
f 33/28/49 29/29/50 35/31/51
f 35/31/51 29/29/50 34/30/52
s 6
f 28/32/53 33/28/54 36/33/55
f 36/33/55 33/28/54 35/31/56
s 7
f 35/31/57 34/30/58 32/35/59
f 32/35/59 34/30/58 31/34/60
s 8
f 36/33/61 35/31/62 30/36/63
f 30/36/63 35/31/62 32/35/64
g default
v 95.507912 0.000000 0.000000
v 162.738754 0.000000 30.178675
v 162.738754 0.000000 -30.178675
v 229.969604 0.000000 0.000000
v 183.606903 0.000000 -11.628408
v 141.870605 0.000000 11.628408
v 183.606903 0.000000 11.628408
v 162.738754 0.000000 0.000000
v 141.870605 0.000000 -11.628408
v 95.507912 -0.812059 0.000000
v 162.738754 -0.812059 30.178675
v 162.738754 -0.812059 -30.178675
v 229.969604 -0.812059 0.000000
v 183.606903 -0.812059 -11.628408
v 141.870605 -0.812059 11.628408
v 183.606903 -0.812059 11.628408
v 162.738754 -0.812059 0.000000
v 141.870605 -0.812059 -11.628408
vt 0.500000 0.000000
vt 1.000000 0.000000
vt 1.000000 0.500000
vt 0.500000 0.500000
vt 0.000000 0.000000
vt 0.000000 0.500000
vt 1.000000 1.000000
vt 0.500000 1.000000
vt 0.000000 1.000000
vt 0.500000 0.000000
vt 0.500000 0.500000
vt 1.000000 0.500000
vt 1.000000 0.000000
vt 0.000000 0.000000
vt 0.000000 0.500000
vt 0.500000 1.000000
vt 1.000000 1.000000
vt 0.000000 1.000000
vn 0.000000 1.000000 0.000000
vn 0.000000 1.000000 0.000000
vn 0.000000 1.000000 0.000000
vn 0.000000 1.000000 0.000000
vn 0.000000 1.000000 0.000000
vn 0.000000 1.000000 0.000000
vn 0.000000 1.000000 0.000000
vn 0.000000 1.000000 0.000000
vn 0.000000 1.000000 0.000000
vn 0.000000 1.000000 0.000000
vn 0.000000 1.000000 0.000000
vn 0.000000 1.000000 0.000000
vn 0.000000 1.000000 0.000000
vn 0.000000 1.000000 0.000000
vn 0.000000 1.000000 0.000000
vn 0.000000 1.000000 0.000000
vn 0.000000 -1.000000 0.000000
vn 0.000000 -1.000000 0.000000
vn 0.000000 -1.000000 0.000000
vn 0.000000 -1.000000 0.000000
vn 0.000000 -1.000000 0.000000
vn 0.000000 -1.000000 0.000000
vn 0.000000 -1.000000 0.000000
vn 0.000000 -1.000000 0.000000
vn 0.000000 -1.000000 0.000000
vn 0.000000 -1.000000 0.000000
vn 0.000000 -1.000000 0.000000
vn 0.000000 -1.000000 0.000000
vn 0.000000 -1.000000 0.000000
vn 0.000000 -1.000000 0.000000
vn 0.000000 -1.000000 0.000000
vn 0.000000 -1.000000 0.000000
s 1
g l3
f 42/37/65 38/38/66 44/40/67
f 44/40/67 38/38/66 43/39/68
s 2
f 37/41/69 42/37/70 45/42/71
f 45/42/71 42/37/70 44/40/72
s 3
f 44/40/73 43/39/74 41/44/75
f 41/44/75 43/39/74 40/43/76
s 4
f 45/42/77 44/40/78 39/45/79
f 39/45/79 44/40/78 41/44/80
s 5
f 51/46/81 53/47/82 47/49/83
f 47/49/83 53/47/82 52/48/84
s 6
f 46/50/85 54/51/86 51/46/87
f 51/46/87 54/51/86 53/47/88
s 7
f 53/47/89 50/52/90 52/48/91
f 52/48/91 50/52/90 49/53/92
s 8
f 54/51/93 48/54/94 53/47/95
f 53/47/95 48/54/94 50/52/96
g default
v -74.155899 0.000000 30.973690
v -118.269279 0.000000 29.814735
v -104.339340 0.000000 63.165192
v -148.452713 0.000000 62.006237
v -120.151268 0.000000 57.731422
v -102.457352 0.000000 35.248508
v -125.518738 0.000000 44.880863
v -111.304306 0.000000 46.489964
v -97.089874 0.000000 48.099060
v -74.155899 -0.812059 30.973690
v -118.269279 -0.812059 29.814735
v -104.339340 -0.812059 63.165192
v -148.452713 -0.812059 62.006237
v -120.151268 -0.812059 57.731422
v -102.457352 -0.812059 35.248508
v -125.518738 -0.812059 44.880863
v -111.304306 -0.812059 46.489964
v -97.089874 -0.812059 48.099060
vt 0.500000 0.000000
vt 1.000000 0.000000
vt 1.000000 0.500000
vt 0.500000 0.500000
vt 0.000000 0.000000
vt 0.000000 0.500000
vt 1.000000 1.000000
vt 0.500000 1.000000
vt 0.000000 1.000000
vt 0.500000 0.000000
vt 0.500000 0.500000
vt 1.000000 0.500000
vt 1.000000 0.000000
vt 0.000000 0.000000
vt 0.000000 0.500000
vt 0.500000 1.000000
vt 1.000000 1.000000
vt 0.000000 1.000000
vn 0.000000 1.000000 0.000000
vn 0.000000 1.000000 0.000000
vn 0.000000 1.000000 0.000000
vn 0.000000 1.000000 0.000000
vn 0.000000 1.000000 0.000000
vn 0.000000 1.000000 0.000000
vn 0.000000 1.000000 0.000000
vn 0.000000 1.000000 0.000000
vn 0.000000 1.000000 0.000000
vn 0.000000 1.000000 0.000000
vn 0.000000 1.000000 0.000000
vn 0.000000 1.000000 0.000000
vn 0.000000 1.000000 0.000000
vn 0.000000 1.000000 0.000000
vn 0.000000 1.000000 0.000000
vn 0.000000 1.000000 0.000000
vn 0.000000 -1.000000 0.000000
vn 0.000000 -1.000000 0.000000
vn 0.000000 -1.000000 0.000000
vn 0.000000 -1.000000 0.000000
vn 0.000000 -1.000000 0.000000
vn 0.000000 -1.000000 0.000000
vn 0.000000 -1.000000 0.000000
vn 0.000000 -1.000000 0.000000
vn 0.000000 -1.000000 0.000000
vn 0.000000 -1.000000 0.000000
vn 0.000000 -1.000000 0.000000
vn 0.000000 -1.000000 0.000000
vn 0.000000 -1.000000 0.000000
vn 0.000000 -1.000000 0.000000
vn 0.000000 -1.000000 0.000000
vn 0.000000 -1.000000 0.000000
s 1
g l14
f 60/55/97 56/56/98 62/58/99
f 62/58/99 56/56/98 61/57/100
s 2
f 55/59/101 60/55/102 63/60/103
f 63/60/103 60/55/102 62/58/104
s 3
f 62/58/105 61/57/106 59/62/107
f 59/62/107 61/57/106 58/61/108
s 4
f 63/60/109 62/58/110 57/63/111
f 57/63/111 62/58/110 59/62/112
s 5
f 69/64/113 71/65/114 65/67/115
f 65/67/115 71/65/114 70/66/116
s 6
f 64/68/117 72/69/118 69/64/119
f 69/64/119 72/69/118 71/65/120
s 7
f 71/65/121 68/70/122 70/66/123
f 70/66/123 68/70/122 67/71/124
s 8
f 72/69/125 66/72/126 71/65/127
f 71/65/127 66/72/126 68/70/128
g default
v 67.534294 -0.812059 -67.534294
v 136.413223 -0.812059 -93.734131
v 93.734131 -0.812059 -136.413223
v 162.613068 -0.812059 -162.613068
v 121.607155 -0.812059 -138.052216
v 108.540192 -0.812059 -92.095139
v 138.052216 -0.812059 -121.607155
v 115.073677 -0.812059 -115.073677
v 92.095139 -0.812059 -108.540192
v 67.534294 0.000000 -67.534294
v 136.413223 0.000000 -93.734131
v 93.734131 0.000000 -136.413223
v 162.613068 0.000000 -162.613068
v 121.607155 0.000000 -138.052216
v 108.540192 0.000000 -92.095139
v 138.052216 0.000000 -121.607155
v 115.073677 0.000000 -115.073677
v 92.095139 0.000000 -108.540192
vt 0.500000 0.000000
vt 0.500000 0.500000
vt 1.000000 0.500000
vt 1.000000 0.000000
vt 0.000000 0.000000
vt 0.000000 0.500000
vt 0.500000 1.000000
vt 1.000000 1.000000
vt 0.000000 1.000000
vt 0.500000 0.000000
vt 1.000000 0.000000
vt 1.000000 0.500000
vt 0.500000 0.500000
vt 0.000000 0.000000
vt 0.000000 0.500000
vt 1.000000 1.000000
vt 0.500000 1.000000
vt 0.000000 1.000000
vn 0.000000 -1.000000 -0.000000
vn 0.000000 -1.000000 -0.000000
vn 0.000000 -1.000000 -0.000000
vn 0.000000 -1.000000 0.000000
vn 0.000000 -1.000000 0.000000
vn 0.000000 -1.000000 0.000000
vn 0.000000 -1.000000 0.000000
vn 0.000000 -1.000000 0.000000
vn 0.000000 -1.000000 0.000000
vn 0.000000 -1.000000 0.000000
vn 0.000000 -1.000000 0.000000
vn 0.000000 -1.000000 0.000000
vn 0.000000 -1.000000 0.000000
vn 0.000000 -1.000000 0.000000
vn 0.000000 -1.000000 0.000000
vn 0.000000 -1.000000 0.000000
vn 0.000000 1.000000 0.000000
vn 0.000000 1.000000 0.000000
vn 0.000000 1.000000 0.000000
vn 0.000000 1.000000 0.000000
vn 0.000000 1.000000 0.000000
vn 0.000000 1.000000 0.000000
vn 0.000000 1.000000 0.000000
vn 0.000000 1.000000 0.000000
vn 0.000000 1.000000 0.000000
vn 0.000000 1.000000 0.000000
vn 0.000000 1.000000 0.000000
vn 0.000000 1.000000 0.000000
vn 0.000000 1.000000 0.000000
vn 0.000000 1.000000 0.000000
vn 0.000000 1.000000 0.000000
vn 0.000000 1.000000 0.000000
s 1
g l2
f 78/73/129 80/74/130 74/76/131
f 74/76/131 80/74/130 79/75/132
s 2
f 73/77/133 81/78/134 78/73/135
f 78/73/135 81/78/134 80/74/136
s 3
f 80/74/137 77/79/138 79/75/139
f 79/75/139 77/79/138 76/80/140
s 4
f 81/78/141 75/81/142 80/74/143
f 80/74/143 75/81/142 77/79/144
s 5
f 87/82/145 83/83/146 89/85/147
f 89/85/147 83/83/146 88/84/148
s 6
f 82/86/149 87/82/150 90/87/151
f 90/87/151 87/82/150 89/85/152
s 7
f 89/85/153 88/84/154 86/89/155
f 86/89/155 88/84/154 85/88/156
s 8
f 90/87/157 89/85/158 84/90/159
f 84/90/159 89/85/158 86/89/160
g default
v 30.973690 0.000000 74.155899
v 29.814735 0.000000 118.269279
v 63.165192 0.000000 104.339340
v 62.006237 0.000000 148.452713
v 57.731422 0.000000 120.151268
v 35.248508 0.000000 102.457352
v 44.880863 0.000000 125.518738
v 46.489964 0.000000 111.304306
v 48.099060 0.000000 97.089874
v 30.973690 -0.812059 74.155899
v 29.814735 -0.812059 118.269279
v 63.165192 -0.812059 104.339340
v 62.006237 -0.812059 148.452713
v 57.731422 -0.812059 120.151268
v 35.248508 -0.812059 102.457352
v 44.880863 -0.812059 125.518738
v 46.489964 -0.812059 111.304306
v 48.099060 -0.812059 97.089874
vt 0.500000 0.000000
vt 1.000000 0.000000
vt 1.000000 0.500000
vt 0.500000 0.500000
vt 0.000000 0.000000
vt 0.000000 0.500000
vt 1.000000 1.000000
vt 0.500000 1.000000
vt 0.000000 1.000000
vt 0.500000 0.000000
vt 0.500000 0.500000
vt 1.000000 0.500000
vt 1.000000 0.000000
vt 0.000000 0.000000
vt 0.000000 0.500000
vt 0.500000 1.000000
vt 1.000000 1.000000
vt 0.000000 1.000000
vn 0.000000 1.000000 0.000000
vn 0.000000 1.000000 0.000000
vn 0.000000 1.000000 0.000000
vn 0.000000 1.000000 0.000000
vn 0.000000 1.000000 0.000000
vn 0.000000 1.000000 0.000000
vn 0.000000 1.000000 0.000000
vn 0.000000 1.000000 0.000000
vn 0.000000 1.000000 0.000000
vn 0.000000 1.000000 0.000000
vn 0.000000 1.000000 0.000000
vn 0.000000 1.000000 0.000000
vn 0.000000 1.000000 0.000000
vn 0.000000 1.000000 0.000000
vn 0.000000 1.000000 0.000000
vn 0.000000 1.000000 0.000000
vn 0.000000 -1.000000 0.000000
vn 0.000000 -1.000000 0.000000
vn 0.000000 -1.000000 0.000000
vn 0.000000 -1.000000 0.000000
vn 0.000000 -1.000000 0.000000
vn 0.000000 -1.000000 0.000000
vn 0.000000 -1.000000 0.000000
vn 0.000000 -1.000000 0.000000
vn 0.000000 -1.000000 0.000000
vn 0.000000 -1.000000 0.000000
vn 0.000000 -1.000000 0.000000
vn 0.000000 -1.000000 0.000000
vn 0.000000 -1.000000 0.000000
vn 0.000000 -1.000000 0.000000
vn 0.000000 -1.000000 0.000000
vn 0.000000 -1.000000 0.000000
s 1
g l12
f 96/91/161 92/92/162 98/94/163
f 98/94/163 92/92/162 97/93/164
s 2
f 91/95/165 96/91/166 99/96/167
f 99/96/167 96/91/166 98/94/168
s 3
f 98/94/169 97/93/170 95/98/171
f 95/98/171 97/93/170 94/97/172
s 4
f 99/96/173 98/94/174 93/99/175
f 93/99/175 98/94/174 95/98/176
s 5
f 105/100/177 107/101/178 101/103/179
f 101/103/179 107/101/178 106/102/180
s 6
f 100/104/181 108/105/182 105/100/183
f 105/100/183 108/105/182 107/101/184
s 7
f 107/101/185 104/106/186 106/102/187
f 106/102/187 104/106/186 103/107/188
s 8
f 108/105/189 102/108/190 107/101/191
f 107/101/191 102/108/190 104/106/192
g default
v 67.534294 0.000000 67.534294
v 93.734131 0.000000 136.413223
v 136.413223 0.000000 93.734131
v 162.613068 0.000000 162.613068
v 138.052216 0.000000 121.607155
v 92.095139 0.000000 108.540192
v 121.607155 0.000000 138.052216
v 115.073677 0.000000 115.073677
v 108.540192 0.000000 92.095139
v 67.534294 -0.812059 67.534294
v 93.734131 -0.812059 136.413223
v 136.413223 -0.812059 93.734131
v 162.613068 -0.812059 162.613068
v 138.052216 -0.812059 121.607155
v 92.095139 -0.812059 108.540192
v 121.607155 -0.812059 138.052216
v 115.073677 -0.812059 115.073677
v 108.540192 -0.812059 92.095139
vt 0.500000 0.000000
vt 1.000000 0.000000
vt 1.000000 0.500000
vt 0.500000 0.500000
vt 0.000000 0.000000
vt 0.000000 0.500000
vt 1.000000 1.000000
vt 0.500000 1.000000
vt 0.000000 1.000000
vt 0.500000 0.000000
vt 0.500000 0.500000
vt 1.000000 0.500000
vt 1.000000 0.000000
vt 0.000000 0.000000
vt 0.000000 0.500000
vt 0.500000 1.000000
vt 1.000000 1.000000
vt 0.000000 1.000000
vn 0.000000 1.000000 0.000000
vn 0.000000 1.000000 0.000000
vn 0.000000 1.000000 0.000000
vn 0.000000 1.000000 0.000000
vn 0.000000 1.000000 0.000000
vn 0.000000 1.000000 0.000000
vn 0.000000 1.000000 0.000000
vn 0.000000 1.000000 0.000000
vn 0.000000 1.000000 0.000000
vn 0.000000 1.000000 0.000000
vn 0.000000 1.000000 0.000000
vn 0.000000 1.000000 0.000000
vn 0.000000 1.000000 0.000000
vn 0.000000 1.000000 0.000000
vn 0.000000 1.000000 0.000000
vn 0.000000 1.000000 0.000000
vn 0.000000 -1.000000 0.000000
vn 0.000000 -1.000000 0.000000
vn 0.000000 -1.000000 0.000000
vn 0.000000 -1.000000 0.000000
vn 0.000000 -1.000000 0.000000
vn 0.000000 -1.000000 0.000000
vn 0.000000 -1.000000 0.000000
vn 0.000000 -1.000000 0.000000
vn 0.000000 -1.000000 0.000000
vn 0.000000 -1.000000 0.000000
vn 0.000000 -1.000000 0.000000
vn 0.000000 -1.000000 0.000000
vn 0.000000 -1.000000 0.000000
vn 0.000000 -1.000000 0.000000
vn 0.000000 -1.000000 0.000000
vn 0.000000 -1.000000 0.000000
s 1
g l4
f 114/109/193 110/110/194 116/112/195
f 116/112/195 110/110/194 115/111/196
s 2
f 109/113/197 114/109/198 117/114/199
f 117/114/199 114/109/198 116/112/200
s 3
f 116/112/201 115/111/202 113/116/203
f 113/116/203 115/111/202 112/115/204
s 4
f 117/114/205 116/112/206 111/117/207
f 111/117/207 116/112/206 113/116/208
s 5
f 123/118/209 125/119/210 119/121/211
f 119/121/211 125/119/210 124/120/212
s 6
f 118/122/213 126/123/214 123/118/215
f 123/118/215 126/123/214 125/119/216
s 7
f 125/119/217 122/124/218 124/120/219
f 124/120/219 122/124/218 121/125/220
s 8
f 126/123/221 120/126/222 125/119/223
f 125/119/223 120/126/222 122/124/224
g default
v 0.000000 -0.812059 -95.507912
v 30.178675 -0.812059 -162.738754
v -30.178675 -0.812059 -162.738754
v 0.000000 -0.812059 -229.969604
v -11.628408 -0.812059 -183.606903
v 11.628408 -0.812059 -141.870605
v 11.628408 -0.812059 -183.606903
v 0.000000 -0.812059 -162.738754
v -11.628408 -0.812059 -141.870605
v 0.000000 0.000000 -95.507912
v 30.178675 0.000000 -162.738754
v -30.178675 0.000000 -162.738754
v 0.000000 0.000000 -229.969604
v -11.628408 0.000000 -183.606903
v 11.628408 0.000000 -141.870605
v 11.628408 0.000000 -183.606903
v 0.000000 0.000000 -162.738754
v -11.628408 0.000000 -141.870605
vt 0.500000 0.000000
vt 0.500000 0.500000
vt 1.000000 0.500000
vt 1.000000 0.000000
vt 0.000000 0.000000
vt 0.000000 0.500000
vt 0.500000 1.000000
vt 1.000000 1.000000
vt 0.000000 1.000000
vt 0.500000 0.000000
vt 1.000000 0.000000
vt 1.000000 0.500000
vt 0.500000 0.500000
vt 0.000000 0.000000
vt 0.000000 0.500000
vt 1.000000 1.000000
vt 0.500000 1.000000
vt 0.000000 1.000000
vn 0.000000 -1.000000 0.000000
vn 0.000000 -1.000000 0.000000
vn 0.000000 -1.000000 0.000000
vn 0.000000 -1.000000 0.000000
vn 0.000000 -1.000000 0.000000
vn 0.000000 -1.000000 0.000000
vn 0.000000 -1.000000 0.000000
vn 0.000000 -1.000000 0.000000
vn 0.000000 -1.000000 0.000000
vn 0.000000 -1.000000 0.000000
vn 0.000000 -1.000000 0.000000
vn 0.000000 -1.000000 0.000000
vn 0.000000 -1.000000 0.000000
vn 0.000000 -1.000000 0.000000
vn 0.000000 -1.000000 0.000000
vn 0.000000 -1.000000 0.000000
vn 0.000000 1.000000 0.000000
vn 0.000000 1.000000 0.000000
vn 0.000000 1.000000 0.000000
vn 0.000000 1.000000 0.000000
vn 0.000000 1.000000 0.000000
vn 0.000000 1.000000 0.000000
vn 0.000000 1.000000 0.000000
vn 0.000000 1.000000 0.000000
vn 0.000000 1.000000 0.000000
vn 0.000000 1.000000 0.000000
vn 0.000000 1.000000 0.000000
vn 0.000000 1.000000 0.000000
vn 0.000000 1.000000 0.000000
vn 0.000000 1.000000 0.000000
vn 0.000000 1.000000 0.000000
vn 0.000000 1.000000 0.000000
s 1
g l1
f 132/127/225 134/128/226 128/130/227
f 128/130/227 134/128/226 133/129/228
s 2
f 127/131/229 135/132/230 132/127/231
f 132/127/231 135/132/230 134/128/232
s 3
f 134/128/233 131/133/234 133/129/235
f 133/129/235 131/133/234 130/134/236
s 4
f 135/132/237 129/135/238 134/128/239
f 134/128/239 129/135/238 131/133/240
s 5
f 141/136/241 137/137/242 143/139/243
f 143/139/243 137/137/242 142/138/244
s 6
f 136/140/245 141/136/246 144/141/247
f 144/141/247 141/136/246 143/139/248
s 7
f 143/139/249 142/138/250 140/143/251
f 140/143/251 142/138/250 139/142/252
s 8
f 144/141/253 143/139/254 138/144/255
f 138/144/255 143/139/254 140/143/256
g default
v 74.337845 -0.812059 30.534431
v 104.711212 -0.812059 62.546806
v 118.443588 -0.812059 29.114519
v 148.816956 -0.812059 61.126892
v 125.782059 -0.812059 44.137497
v 97.372742 -0.812059 47.523827
v 120.490715 -0.812059 57.019585
v 111.577400 -0.812059 45.830662
v 102.664078 -0.812059 34.641739
v 74.337845 0.000000 30.534431
v 104.711212 0.000000 62.546806
v 118.443588 0.000000 29.114519
v 148.816956 0.000000 61.126892
v 125.782059 0.000000 44.137497
v 97.372742 0.000000 47.523827
v 120.490715 0.000000 57.019585
v 111.577400 0.000000 45.830662
v 102.664078 0.000000 34.641739
vt 0.500000 0.000000
vt 0.500000 0.500000
vt 1.000000 0.500000
vt 1.000000 0.000000
vt 0.000000 0.000000
vt 0.000000 0.500000
vt 0.500000 1.000000
vt 1.000000 1.000000
vt 0.000000 1.000000
vt 0.500000 0.000000
vt 1.000000 0.000000
vt 1.000000 0.500000
vt 0.500000 0.500000
vt 0.000000 0.000000
vt 0.000000 0.500000
vt 1.000000 1.000000
vt 0.500000 1.000000
vt 0.000000 1.000000
vn 0.000000 -1.000000 0.000000
vn 0.000000 -1.000000 0.000000
vn 0.000000 -1.000000 0.000000
vn 0.000000 -1.000000 0.000000
vn 0.000000 -1.000000 0.000000
vn 0.000000 -1.000000 0.000000
vn 0.000000 -1.000000 0.000000
vn 0.000000 -1.000000 0.000000
vn 0.000000 -1.000000 0.000000
vn 0.000000 -1.000000 0.000000
vn 0.000000 -1.000000 0.000000
vn 0.000000 -1.000000 0.000000
vn 0.000000 -1.000000 0.000000
vn 0.000000 -1.000000 0.000000
vn 0.000000 -1.000000 0.000000
vn 0.000000 -1.000000 0.000000
vn 0.000000 1.000000 0.000000
vn 0.000000 1.000000 0.000000
vn 0.000000 1.000000 0.000000
vn 0.000000 1.000000 0.000000
vn 0.000000 1.000000 0.000000
vn 0.000000 1.000000 0.000000
vn 0.000000 1.000000 0.000000
vn 0.000000 1.000000 0.000000
vn 0.000000 1.000000 0.000000
vn 0.000000 1.000000 0.000000
vn 0.000000 1.000000 0.000000
vn 0.000000 1.000000 0.000000
vn 0.000000 1.000000 0.000000
vn 0.000000 1.000000 0.000000
vn 0.000000 1.000000 0.000000
vn 0.000000 1.000000 0.000000
s 1
g l11
f 150/145/257 152/146/258 146/148/259
f 146/148/259 152/146/258 151/147/260
s 2
f 145/149/261 153/150/262 150/145/263
f 150/145/263 153/150/262 152/146/264
s 3
f 152/146/265 149/151/266 151/147/267
f 151/147/267 149/151/266 148/152/268
s 4
f 153/150/269 147/153/270 152/146/271
f 152/146/271 147/153/270 149/151/272
s 5
f 159/154/273 155/155/274 161/157/275
f 161/157/275 155/155/274 160/156/276
s 6
f 154/158/277 159/154/278 162/159/279
f 162/159/279 159/154/278 161/157/280
s 7
f 161/157/281 160/156/282 158/161/283
f 158/161/283 160/156/282 157/160/284
s 8
f 162/159/285 161/157/286 156/162/287
f 156/162/287 161/157/286 158/161/288
g default
v -30.973690 0.000000 -74.155899
v -29.814735 0.000000 -118.269279
v -63.165192 0.000000 -104.339340
v -62.006237 0.000000 -148.452713
v -57.731422 0.000000 -120.151268
v -35.248508 0.000000 -102.457352
v -44.880863 0.000000 -125.518738
v -46.489964 0.000000 -111.304306
v -48.099060 0.000000 -97.089874
v -30.973690 -0.812059 -74.155899
v -29.814735 -0.812059 -118.269279
v -63.165192 -0.812059 -104.339340
v -62.006237 -0.812059 -148.452713
v -57.731422 -0.812059 -120.151268
v -35.248508 -0.812059 -102.457352
v -44.880863 -0.812059 -125.518738
v -46.489964 -0.812059 -111.304306
v -48.099060 -0.812059 -97.089874
vt 0.500000 0.000000
vt 1.000000 0.000000
vt 1.000000 0.500000
vt 0.500000 0.500000
vt 0.000000 0.000000
vt 0.000000 0.500000
vt 1.000000 1.000000
vt 0.500000 1.000000
vt 0.000000 1.000000
vt 0.500000 0.000000
vt 0.500000 0.500000
vt 1.000000 0.500000
vt 1.000000 0.000000
vt 0.000000 0.000000
vt 0.000000 0.500000
vt 0.500000 1.000000
vt 1.000000 1.000000
vt 0.000000 1.000000
vn 0.000000 1.000000 0.000000
vn 0.000000 1.000000 0.000000
vn 0.000000 1.000000 0.000000
vn 0.000000 1.000000 0.000000
vn 0.000000 1.000000 0.000000
vn 0.000000 1.000000 0.000000
vn 0.000000 1.000000 0.000000
vn 0.000000 1.000000 0.000000
vn 0.000000 1.000000 0.000000
vn 0.000000 1.000000 0.000000
vn 0.000000 1.000000 0.000000
vn 0.000000 1.000000 0.000000
vn 0.000000 1.000000 0.000000
vn 0.000000 1.000000 0.000000
vn 0.000000 1.000000 0.000000
vn 0.000000 1.000000 0.000000
vn 0.000000 -1.000000 0.000000
vn 0.000000 -1.000000 0.000000
vn 0.000000 -1.000000 0.000000
vn 0.000000 -1.000000 0.000000
vn 0.000000 -1.000000 0.000000
vn 0.000000 -1.000000 0.000000
vn 0.000000 -1.000000 0.000000
vn 0.000000 -1.000000 0.000000
vn 0.000000 -1.000000 0.000000
vn 0.000000 -1.000000 0.000000
vn 0.000000 -1.000000 0.000000
vn 0.000000 -1.000000 0.000000
vn 0.000000 -1.000000 0.000000
vn 0.000000 -1.000000 0.000000
vn 0.000000 -1.000000 0.000000
vn 0.000000 -1.000000 0.000000
s 1
g l16
f 168/163/289 164/164/290 170/166/291
f 170/166/291 164/164/290 169/165/292
s 2
f 163/167/293 168/163/294 171/168/295
f 171/168/295 168/163/294 170/166/296
s 3
f 170/166/297 169/165/298 167/170/299
f 167/170/299 169/165/298 166/169/300
s 4
f 171/168/301 170/166/302 165/171/303
f 165/171/303 170/166/302 167/170/304
s 5
f 177/172/305 179/173/306 173/175/307
f 173/175/307 179/173/306 178/174/308
s 6
f 172/176/309 180/177/310 177/172/311
f 177/172/311 180/177/310 179/173/312
s 7
f 179/173/313 176/178/314 178/174/315
f 178/174/315 176/178/314 175/179/316
s 8
f 180/177/317 174/180/318 179/173/319
f 179/173/319 174/180/318 176/178/320
g default
v 30.534431 -0.812059 -74.337845
v 62.546806 -0.812059 -104.711212
v 29.114519 -0.812059 -118.443588
v 61.126892 -0.812059 -148.816956
v 44.137497 -0.812059 -125.782059
v 47.523827 -0.812059 -97.372742
v 57.019585 -0.812059 -120.490715
v 45.830662 -0.812059 -111.577400
v 34.641739 -0.812059 -102.664078
v 30.534431 0.000000 -74.337845
v 62.546806 0.000000 -104.711212
v 29.114519 0.000000 -118.443588
v 61.126892 0.000000 -148.816956
v 44.137497 0.000000 -125.782059
v 47.523827 0.000000 -97.372742
v 57.019585 0.000000 -120.490715
v 45.830662 0.000000 -111.577400
v 34.641739 0.000000 -102.664078
vt 0.500000 0.000000
vt 0.500000 0.500000
vt 1.000000 0.500000
vt 1.000000 0.000000
vt 0.000000 0.000000
vt 0.000000 0.500000
vt 0.500000 1.000000
vt 1.000000 1.000000
vt 0.000000 1.000000
vt 0.500000 0.000000
vt 1.000000 0.000000
vt 1.000000 0.500000
vt 0.500000 0.500000
vt 0.000000 0.000000
vt 0.000000 0.500000
vt 1.000000 1.000000
vt 0.500000 1.000000
vt 0.000000 1.000000
vn 0.000000 -1.000000 0.000000
vn 0.000000 -1.000000 0.000000
vn 0.000000 -1.000000 0.000000
vn 0.000000 -1.000000 0.000000
vn 0.000000 -1.000000 0.000000
vn 0.000000 -1.000000 0.000000
vn 0.000000 -1.000000 0.000000
vn 0.000000 -1.000000 0.000000
vn 0.000000 -1.000000 0.000000
vn 0.000000 -1.000000 0.000000
vn 0.000000 -1.000000 0.000000
vn 0.000000 -1.000000 0.000000
vn 0.000000 -1.000000 0.000000
vn 0.000000 -1.000000 0.000000
vn 0.000000 -1.000000 0.000000
vn 0.000000 -1.000000 0.000000
vn 0.000000 1.000000 0.000000
vn 0.000000 1.000000 0.000000
vn 0.000000 1.000000 0.000000
vn 0.000000 1.000000 0.000000
vn 0.000000 1.000000 0.000000
vn 0.000000 1.000000 0.000000
vn 0.000000 1.000000 0.000000
vn 0.000000 1.000000 0.000000
vn 0.000000 1.000000 0.000000
vn 0.000000 1.000000 0.000000
vn 0.000000 1.000000 0.000000
vn 0.000000 1.000000 0.000000
vn 0.000000 1.000000 0.000000
vn 0.000000 1.000000 0.000000
vn 0.000000 1.000000 0.000000
vn 0.000000 1.000000 0.000000
s 1
g l9
f 186/181/321 188/182/322 182/184/323
f 182/184/323 188/182/322 187/183/324
s 2
f 181/185/325 189/186/326 186/181/327
f 186/181/327 189/186/326 188/182/328
s 3
f 188/182/329 185/187/330 187/183/331
f 187/183/331 185/187/330 184/188/332
s 4
f 189/186/333 183/189/334 188/182/335
f 188/182/335 183/189/334 185/187/336
s 5
f 195/190/337 191/191/338 197/193/339
f 197/193/339 191/191/338 196/192/340
s 6
f 190/194/341 195/190/342 198/195/343
f 198/195/343 195/190/342 197/193/344
s 7
f 197/193/345 196/192/346 194/197/347
f 194/197/347 196/192/346 193/196/348
s 8
f 198/195/349 197/193/350 192/198/351
f 192/198/351 197/193/350 194/197/352
g default
v -74.337845 0.000000 -30.534431
v -104.711212 0.000000 -62.546806
v -118.443588 0.000000 -29.114519
v -148.816956 0.000000 -61.126892
v -125.782059 0.000000 -44.137497
v -97.372742 0.000000 -47.523827
v -120.490715 0.000000 -57.019585
v -111.577400 0.000000 -45.830662
v -102.664078 0.000000 -34.641739
v -74.337845 -0.812059 -30.534431
v -104.711212 -0.812059 -62.546806
v -118.443588 -0.812059 -29.114519
v -148.816956 -0.812059 -61.126892
v -125.782059 -0.812059 -44.137497
v -97.372742 -0.812059 -47.523827
v -120.490715 -0.812059 -57.019585
v -111.577400 -0.812059 -45.830662
v -102.664078 -0.812059 -34.641739
vt 0.500000 0.000000
vt 1.000000 0.000000
vt 1.000000 0.500000
vt 0.500000 0.500000
vt 0.000000 0.000000
vt 0.000000 0.500000
vt 1.000000 1.000000
vt 0.500000 1.000000
vt 0.000000 1.000000
vt 0.500000 0.000000
vt 0.500000 0.500000
vt 1.000000 0.500000
vt 1.000000 0.000000
vt 0.000000 0.000000
vt 0.000000 0.500000
vt 0.500000 1.000000
vt 1.000000 1.000000
vt 0.000000 1.000000
vn 0.000000 1.000000 0.000000
vn 0.000000 1.000000 0.000000
vn 0.000000 1.000000 0.000000
vn 0.000000 1.000000 0.000000
vn 0.000000 1.000000 0.000000
vn 0.000000 1.000000 0.000000
vn 0.000000 1.000000 0.000000
vn 0.000000 1.000000 0.000000
vn 0.000000 1.000000 0.000000
vn 0.000000 1.000000 0.000000
vn 0.000000 1.000000 0.000000
vn 0.000000 1.000000 0.000000
vn 0.000000 1.000000 0.000000
vn 0.000000 1.000000 0.000000
vn 0.000000 1.000000 0.000000
vn 0.000000 1.000000 0.000000
vn 0.000000 -1.000000 0.000000
vn 0.000000 -1.000000 0.000000
vn 0.000000 -1.000000 0.000000
vn 0.000000 -1.000000 0.000000
vn 0.000000 -1.000000 0.000000
vn 0.000000 -1.000000 0.000000
vn 0.000000 -1.000000 0.000000
vn 0.000000 -1.000000 0.000000
vn 0.000000 -1.000000 0.000000
vn 0.000000 -1.000000 0.000000
vn 0.000000 -1.000000 0.000000
vn 0.000000 -1.000000 0.000000
vn 0.000000 -1.000000 0.000000
vn 0.000000 -1.000000 0.000000
vn 0.000000 -1.000000 0.000000
vn 0.000000 -1.000000 0.000000
s 1
g l15
f 204/199/353 200/200/354 206/202/355
f 206/202/355 200/200/354 205/201/356
s 2
f 199/203/357 204/199/358 207/204/359
f 207/204/359 204/199/358 206/202/360
s 3
f 206/202/361 205/201/362 203/206/363
f 203/206/363 205/201/362 202/205/364
s 4
f 207/204/365 206/202/366 201/207/367
f 201/207/367 206/202/366 203/206/368
s 5
f 213/208/369 215/209/370 209/211/371
f 209/211/371 215/209/370 214/210/372
s 6
f 208/212/373 216/213/374 213/208/375
f 213/208/375 216/213/374 215/209/376
s 7
f 215/209/377 212/214/378 214/210/379
f 214/210/379 212/214/378 211/215/380
s 8
f 216/213/381 210/216/382 215/209/383
f 215/209/383 210/216/382 212/214/384
g default
v 0.000000 -0.812059 95.507912
v -30.178675 -0.812059 162.738754
v 30.178675 -0.812059 162.738754
v 0.000000 -0.812059 229.969604
v 11.628408 -0.812059 183.606903
v -11.628408 -0.812059 141.870605
v -11.628408 -0.812059 183.606903
v 0.000000 -0.812059 162.738754
v 11.628408 -0.812059 141.870605
v 0.000000 0.000000 95.507912
v -30.178675 0.000000 162.738754
v 30.178675 0.000000 162.738754
v 0.000000 0.000000 229.969604
v 11.628408 0.000000 183.606903
v -11.628408 0.000000 141.870605
v -11.628408 0.000000 183.606903
v 0.000000 0.000000 162.738754
v 11.628408 0.000000 141.870605
vt 0.500000 0.000000
vt 0.500000 0.500000
vt 1.000000 0.500000
vt 1.000000 0.000000
vt 0.000000 0.000000
vt 0.000000 0.500000
vt 0.500000 1.000000
vt 1.000000 1.000000
vt 0.000000 1.000000
vt 0.500000 0.000000
vt 1.000000 0.000000
vt 1.000000 0.500000
vt 0.500000 0.500000
vt 0.000000 0.000000
vt 0.000000 0.500000
vt 1.000000 1.000000
vt 0.500000 1.000000
vt 0.000000 1.000000
vn 0.000000 -1.000000 -0.000000
vn 0.000000 -1.000000 0.000000
vn 0.000000 -1.000000 0.000000
vn 0.000000 -1.000000 0.000000
vn 0.000000 -1.000000 0.000000
vn 0.000000 -1.000000 0.000000
vn 0.000000 -1.000000 0.000000
vn 0.000000 -1.000000 0.000000
vn 0.000000 -1.000000 0.000000
vn 0.000000 -1.000000 0.000000
vn 0.000000 -1.000000 0.000000
vn 0.000000 -1.000000 0.000000
vn 0.000000 -1.000000 0.000000
vn 0.000000 -1.000000 0.000000
vn 0.000000 -1.000000 0.000000
vn 0.000000 -1.000000 0.000000
vn 0.000000 1.000000 0.000000
vn 0.000000 1.000000 0.000000
vn 0.000000 1.000000 0.000000
vn 0.000000 1.000000 0.000000
vn 0.000000 1.000000 0.000000
vn 0.000000 1.000000 0.000000
vn 0.000000 1.000000 0.000000
vn 0.000000 1.000000 0.000000
vn 0.000000 1.000000 0.000000
vn 0.000000 1.000000 0.000000
vn 0.000000 1.000000 0.000000
vn 0.000000 1.000000 0.000000
vn 0.000000 1.000000 0.000000
vn 0.000000 1.000000 0.000000
vn 0.000000 1.000000 0.000000
vn 0.000000 1.000000 0.000000
s 1
g l5
f 222/217/385 224/218/386 218/220/387
f 218/220/387 224/218/386 223/219/388
s 2
f 217/221/389 225/222/390 222/217/391
f 222/217/391 225/222/390 224/218/392
s 3
f 224/218/393 221/223/394 223/219/395
f 223/219/395 221/223/394 220/224/396
s 4
f 225/222/397 219/225/398 224/218/399
f 224/218/399 219/225/398 221/223/400
s 5
f 231/226/401 227/227/402 233/229/403
f 233/229/403 227/227/402 232/228/404
s 6
f 226/230/405 231/226/406 234/231/407
f 234/231/407 231/226/406 233/229/408
s 7
f 233/229/409 232/228/410 230/233/411
f 230/233/411 232/228/410 229/232/412
s 8
f 234/231/413 233/229/414 228/234/415
f 228/234/415 233/229/414 230/233/416
g default
v -67.534294 -0.812059 -67.534294
v -93.734131 -0.812059 -136.413223
v -136.413223 -0.812059 -93.734131
v -162.613068 -0.812059 -162.613068
v -138.052216 -0.812059 -121.607155
v -92.095139 -0.812059 -108.540192
v -121.607155 -0.812059 -138.052216
v -115.073677 -0.812059 -115.073677
v -108.540192 -0.812059 -92.095139
v -67.534294 0.000000 -67.534294
v -93.734131 0.000000 -136.413223
v -136.413223 0.000000 -93.734131
v -162.613068 0.000000 -162.613068
v -138.052216 0.000000 -121.607155
v -92.095139 0.000000 -108.540192
v -121.607155 0.000000 -138.052216
v -115.073677 0.000000 -115.073677
v -108.540192 0.000000 -92.095139
vt 0.500000 0.000000
vt 0.500000 0.500000
vt 1.000000 0.500000
vt 1.000000 0.000000
vt 0.000000 0.000000
vt 0.000000 0.500000
vt 0.500000 1.000000
vt 1.000000 1.000000
vt 0.000000 1.000000
vt 0.500000 0.000000
vt 1.000000 0.000000
vt 1.000000 0.500000
vt 0.500000 0.500000
vt 0.000000 0.000000
vt 0.000000 0.500000
vt 1.000000 1.000000
vt 0.500000 1.000000
vt 0.000000 1.000000
vn 0.000000 -1.000000 -0.000000
vn 0.000000 -1.000000 -0.000000
vn 0.000000 -1.000000 -0.000000
vn 0.000000 -1.000000 0.000000
vn 0.000000 -1.000000 0.000000
vn 0.000000 -1.000000 0.000000
vn 0.000000 -1.000000 0.000000
vn 0.000000 -1.000000 0.000000
vn 0.000000 -1.000000 0.000000
vn 0.000000 -1.000000 0.000000
vn 0.000000 -1.000000 0.000000
vn 0.000000 -1.000000 0.000000
vn 0.000000 -1.000000 0.000000
vn 0.000000 -1.000000 0.000000
vn 0.000000 -1.000000 0.000000
vn 0.000000 -1.000000 0.000000
vn 0.000000 1.000000 0.000000
vn 0.000000 1.000000 0.000000
vn 0.000000 1.000000 0.000000
vn 0.000000 1.000000 0.000000
vn 0.000000 1.000000 0.000000
vn 0.000000 1.000000 0.000000
vn 0.000000 1.000000 0.000000
vn 0.000000 1.000000 0.000000
vn 0.000000 1.000000 0.000000
vn 0.000000 1.000000 0.000000
vn 0.000000 1.000000 0.000000
vn 0.000000 1.000000 0.000000
vn 0.000000 1.000000 0.000000
vn 0.000000 1.000000 0.000000
vn 0.000000 1.000000 0.000000
vn 0.000000 1.000000 0.000000
s 1
g l8
f 240/235/417 242/236/418 236/238/419
f 236/238/419 242/236/418 241/237/420
s 2
f 235/239/421 243/240/422 240/235/423
f 240/235/423 243/240/422 242/236/424
s 3
f 242/236/425 239/241/426 241/237/427
f 241/237/427 239/241/426 238/242/428
s 4
f 243/240/429 237/243/430 242/236/431
f 242/236/431 237/243/430 239/241/432
s 5
f 249/244/433 245/245/434 251/247/435
f 251/247/435 245/245/434 250/246/436
s 6
f 244/248/437 249/244/438 252/249/439
f 252/249/439 249/244/438 251/247/440
s 7
f 251/247/441 250/246/442 248/251/443
f 248/251/443 250/246/442 247/250/444
s 8
f 252/249/445 251/247/446 246/252/447
f 246/252/447 251/247/446 248/251/448
g default
v -95.507912 0.000000 0.000000
v -162.738754 0.000000 -30.178675
v -162.738754 0.000000 30.178675
v -229.969604 0.000000 0.000000
v -183.606903 0.000000 11.628408
v -141.870605 0.000000 -11.628408
v -183.606903 0.000000 -11.628408
v -162.738754 0.000000 0.000000
v -141.870605 0.000000 11.628408
v -95.507912 -0.812059 0.000000
v -162.738754 -0.812059 -30.178675
v -162.738754 -0.812059 30.178675
v -229.969604 -0.812059 0.000000
v -183.606903 -0.812059 11.628408
v -141.870605 -0.812059 -11.628408
v -183.606903 -0.812059 -11.628408
v -162.738754 -0.812059 0.000000
v -141.870605 -0.812059 11.628408
vt 0.500000 0.000000
vt 1.000000 0.000000
vt 1.000000 0.500000
vt 0.500000 0.500000
vt 0.000000 0.000000
vt 0.000000 0.500000
vt 1.000000 1.000000
vt 0.500000 1.000000
vt 0.000000 1.000000
vt 0.500000 0.000000
vt 0.500000 0.500000
vt 1.000000 0.500000
vt 1.000000 0.000000
vt 0.000000 0.000000
vt 0.000000 0.500000
vt 0.500000 1.000000
vt 1.000000 1.000000
vt 0.000000 1.000000
vn 0.000000 1.000000 0.000000
vn 0.000000 1.000000 0.000000
vn 0.000000 1.000000 0.000000
vn 0.000000 1.000000 0.000000
vn 0.000000 1.000000 0.000000
vn 0.000000 1.000000 0.000000
vn 0.000000 1.000000 0.000000
vn 0.000000 1.000000 0.000000
vn 0.000000 1.000000 0.000000
vn 0.000000 1.000000 0.000000
vn 0.000000 1.000000 0.000000
vn 0.000000 1.000000 0.000000
vn 0.000000 1.000000 0.000000
vn 0.000000 1.000000 0.000000
vn 0.000000 1.000000 0.000000
vn 0.000000 1.000000 0.000000
vn 0.000000 -1.000000 0.000000
vn 0.000000 -1.000000 0.000000
vn 0.000000 -1.000000 0.000000
vn 0.000000 -1.000000 0.000000
vn 0.000000 -1.000000 0.000000
vn 0.000000 -1.000000 0.000000
vn 0.000000 -1.000000 0.000000
vn 0.000000 -1.000000 0.000000
vn 0.000000 -1.000000 0.000000
vn 0.000000 -1.000000 0.000000
vn 0.000000 -1.000000 0.000000
vn 0.000000 -1.000000 0.000000
vn 0.000000 -1.000000 0.000000
vn 0.000000 -1.000000 0.000000
vn 0.000000 -1.000000 0.000000
vn 0.000000 -1.000000 0.000000
s 1
g l7
f 258/253/449 254/254/450 260/256/451
f 260/256/451 254/254/450 259/255/452
s 2
f 253/257/453 258/253/454 261/258/455
f 261/258/455 258/253/454 260/256/456
s 3
f 260/256/457 259/255/458 257/260/459
f 257/260/459 259/255/458 256/259/460
s 4
f 261/258/461 260/256/462 255/261/463
f 255/261/463 260/256/462 257/260/464
s 5
f 267/262/465 269/263/466 263/265/467
f 263/265/467 269/263/466 268/264/468
s 6
f 262/266/469 270/267/470 267/262/471
f 267/262/471 270/267/470 269/263/472
s 7
f 269/263/473 266/268/474 268/264/475
f 268/264/475 266/268/474 265/269/476
s 8
f 270/267/477 264/270/478 269/263/479
f 269/263/479 264/270/478 266/268/480
g default
v -30.534431 0.000000 74.337845
v -62.546806 0.000000 104.711212
v -29.114519 0.000000 118.443588
v -61.126892 0.000000 148.816956
v -44.137497 0.000000 125.782059
v -47.523827 0.000000 97.372742
v -57.019585 0.000000 120.490715
v -45.830662 0.000000 111.577400
v -34.641739 0.000000 102.664078
v -30.534431 -0.812059 74.337845
v -62.546806 -0.812059 104.711212
v -29.114519 -0.812059 118.443588
v -61.126892 -0.812059 148.816956
v -44.137497 -0.812059 125.782059
v -47.523827 -0.812059 97.372742
v -57.019585 -0.812059 120.490715
v -45.830662 -0.812059 111.577400
v -34.641739 -0.812059 102.664078
vt 0.500000 0.000000
vt 1.000000 0.000000
vt 1.000000 0.500000
vt 0.500000 0.500000
vt 0.000000 0.000000
vt 0.000000 0.500000
vt 1.000000 1.000000
vt 0.500000 1.000000
vt 0.000000 1.000000
vt 0.500000 0.000000
vt 0.500000 0.500000
vt 1.000000 0.500000
vt 1.000000 0.000000
vt 0.000000 0.000000
vt 0.000000 0.500000
vt 0.500000 1.000000
vt 1.000000 1.000000
vt 0.000000 1.000000
vn 0.000000 1.000000 0.000000
vn 0.000000 1.000000 0.000000
vn 0.000000 1.000000 0.000000
vn 0.000000 1.000000 0.000000
vn 0.000000 1.000000 0.000000
vn 0.000000 1.000000 0.000000
vn 0.000000 1.000000 0.000000
vn 0.000000 1.000000 0.000000
vn 0.000000 1.000000 0.000000
vn 0.000000 1.000000 0.000000
vn 0.000000 1.000000 0.000000
vn 0.000000 1.000000 0.000000
vn 0.000000 1.000000 0.000000
vn 0.000000 1.000000 0.000000
vn 0.000000 1.000000 0.000000
vn 0.000000 1.000000 0.000000
vn 0.000000 -1.000000 0.000000
vn 0.000000 -1.000000 0.000000
vn 0.000000 -1.000000 0.000000
vn 0.000000 -1.000000 0.000000
vn 0.000000 -1.000000 0.000000
vn 0.000000 -1.000000 0.000000
vn 0.000000 -1.000000 0.000000
vn 0.000000 -1.000000 0.000000
vn 0.000000 -1.000000 0.000000
vn 0.000000 -1.000000 0.000000
vn 0.000000 -1.000000 0.000000
vn 0.000000 -1.000000 0.000000
vn 0.000000 -1.000000 0.000000
vn 0.000000 -1.000000 0.000000
vn 0.000000 -1.000000 0.000000
vn 0.000000 -1.000000 0.000000
s 1
g l13
f 276/271/481 272/272/482 278/274/483
f 278/274/483 272/272/482 277/273/484
s 2
f 271/275/485 276/271/486 279/276/487
f 279/276/487 276/271/486 278/274/488
s 3
f 278/274/489 277/273/490 275/278/491
f 275/278/491 277/273/490 274/277/492
s 4
f 279/276/493 278/274/494 273/279/495
f 273/279/495 278/274/494 275/278/496
s 5
f 285/280/497 287/281/498 281/283/499
f 281/283/499 287/281/498 286/282/500
s 6
f 280/284/501 288/285/502 285/280/503
f 285/280/503 288/285/502 287/281/504
s 7
f 287/281/505 284/286/506 286/282/507
f 286/282/507 284/286/506 283/287/508
s 8
f 288/285/509 282/288/510 287/281/511
f 287/281/511 282/288/510 284/286/512
