# This file uses centimeters as units for non-parametric coordinates.

g default
v 209.992853 0.834773 48.892250
v 209.992853 0.834773 -48.892250
v 112.208354 0.834773 0.000000
v 161.100607 0.834773 0.000000
v 209.992853 0.528574 48.892250
v 209.992853 0.528574 -48.892250
v 112.208354 0.528574 0.000000
v 161.100607 0.528574 0.000000
vt 1.000000 0.000000
vt 1.000000 1.000000
vt 0.000000 0.500000
vt 1.000000 0.500000
vt 0.000000 0.500000
vt 1.000000 1.000000
vt 1.000000 0.500000
vt 1.000000 0.000000
vn 0.000000 1.000000 0.000000
vn 0.000000 1.000000 0.000000
vn 0.000000 1.000000 0.000000
vn 0.000000 1.000000 0.000000
vn 0.000000 -1.000000 -0.000000
vn 0.000000 -1.000000 -0.000000
vn 0.000000 -1.000000 -0.000000
vn 0.000000 -1.000000 0.000000
s 1
g l4
f 3/3/1 4/4/2 2/2/3
f 3/3/1 1/1/4 4/4/2
s 2
f 7/5/5 6/6/6 8/7/7
f 7/5/5 8/7/7 5/8/8
g default
v 48.892250 0.834773 -209.992853
v -48.892250 0.834773 -209.992853
v 0.000000 0.834773 -112.208354
v 0.000000 0.834773 -161.100607
v 48.892250 0.528574 -209.992853
v -48.892250 0.528574 -209.992853
v 0.000000 0.528574 -112.208354
v 0.000000 0.528574 -161.100607
vt 1.000000 0.000000
vt 1.000000 1.000000
vt 0.000000 0.500000
vt 1.000000 0.500000
vt 0.000000 0.500000
vt 1.000000 1.000000
vt 1.000000 0.500000
vt 1.000000 0.000000
vn 0.000000 1.000000 0.000000
vn 0.000000 1.000000 0.000000
vn 0.000000 1.000000 0.000000
vn 0.000000 1.000000 0.000000
vn -0.000000 -1.000000 -0.000000
vn -0.000000 -1.000000 -0.000000
vn -0.000000 -1.000000 -0.000000
vn 0.000000 -1.000000 0.000000
s 1
g l3
f 11/11/9 12/12/10 10/10/11
f 11/11/9 9/9/12 12/12/10
s 2
f 15/13/13 14/14/14 16/15/15
f 15/13/13 16/15/15 13/16/16
g default
v -209.992853 0.834773 -48.892250
v -209.992853 0.834773 48.892250
v -112.208354 0.834773 -0.000000
v -161.100607 0.834773 -0.000000
v -209.992853 0.528574 -48.892250
v -209.992853 0.528574 48.892250
v -112.208354 0.528574 -0.000000
v -161.100607 0.528574 -0.000000
vt 1.000000 0.000000
vt 1.000000 1.000000
vt 0.000000 0.500000
vt 1.000000 0.500000
vt 0.000000 0.500000
vt 1.000000 1.000000
vt 1.000000 0.500000
vt 1.000000 0.000000
vn 0.000000 1.000000 0.000000
vn 0.000000 1.000000 0.000000
vn 0.000000 1.000000 0.000000
vn 0.000000 1.000000 0.000000
vn -0.000000 -1.000000 0.000000
vn -0.000000 -1.000000 0.000000
vn -0.000000 -1.000000 0.000000
vn 0.000000 -1.000000 -0.000000
s 1
g l2
f 19/19/17 20/20/18 18/18/19
f 19/19/17 17/17/20 20/20/18
s 2
f 23/21/21 22/22/22 24/23/23
f 23/21/21 24/23/23 21/24/24
g default
v -48.892250 0.834773 209.992853
v 48.892250 0.834773 209.992853
v -0.000000 0.834773 112.208354
v -0.000000 0.834773 161.100607
v -48.892250 0.528574 209.992853
v 48.892250 0.528574 209.992853
v -0.000000 0.528574 112.208354
v -0.000000 0.528574 161.100607
vt 1.000000 0.000000
vt 1.000000 1.000000
vt 0.000000 0.500000
vt 1.000000 0.500000
vt 0.000000 0.500000
vt 1.000000 1.000000
vt 1.000000 0.500000
vt 1.000000 0.000000
vn 0.000000 1.000000 0.000000
vn 0.000000 1.000000 0.000000
vn 0.000000 1.000000 0.000000
vn 0.000000 1.000000 0.000000
vn 0.000000 -1.000000 -0.000000
vn 0.000000 -1.000000 -0.000000
vn 0.000000 -1.000000 -0.000000
vn 0.000000 -1.000000 0.000000
s 1
g l1
f 27/27/25 28/28/26 26/26/27
f 27/27/25 25/25/28 28/28/26
s 2
f 31/29/29 30/30/30 32/31/31
f 31/29/29 32/31/31 29/32/32
