# This file uses centimeters as units for non-parametric coordinates.

g default
v -8.490082 0.000000 -34.666443
v -2.558380 0.000000 -54.580109
v -1.993408 0.000000 -74.635040
v -5.100555 0.000000 -98.062256
v -15.551727 0.000000 -122.512634
v -42.385773 0.000000 -153.018707
v -18.376312 0.000000 -167.706818
v 7.327850 0.000000 -179.005371
v 40.376129 0.000000 -186.066925
v 69.469879 0.000000 -185.784454
v 103.365479 0.000000 -180.135193
v 125.962585 0.000000 -171.661316
v 160.943817 0.000000 -150.119202
v 124.996094 0.000000 -166.457825
v 101.520996 0.000000 -170.248962
v 69.752319 0.000000 -165.729584
v 46.872772 0.000000 -154.995941
v 31.619720 0.000000 -142.285095
v 21.168610 0.000000 -130.139130
v 4.785736 0.000000 -98.096771
v 1.961090 0.000000 -74.635040
v 1.961090 0.000000 -54.580109
v 8.740173 0.000000 -34.666443
v -8.490082 0.568292 -34.666443
v -2.558380 0.568292 -54.580109
v -1.993408 0.568292 -74.635040
v -5.100555 0.568292 -98.062256
v -15.551727 0.568292 -122.512634
v -42.385773 0.568292 -153.018707
v -18.376312 0.568292 -167.706818
v 7.327850 0.568292 -179.005371
v 40.376129 0.568292 -186.066925
v 69.469879 0.568292 -185.784454
v 103.365479 0.568292 -180.135193
v 125.962585 0.568292 -171.661316
v 160.943817 0.568292 -150.119202
v 124.996094 0.568292 -166.457825
v 101.520996 0.568292 -170.248962
v 69.752319 0.568292 -165.729584
v 46.872772 0.568292 -154.995941
v 31.619720 0.568292 -142.285095
v 21.168610 0.568292 -130.139130
v 4.785736 0.568292 -98.096771
v 1.961090 0.568292 -74.635040
v 1.961090 0.568292 -54.580109
v 8.740173 0.568292 -34.666443
vt 0.000000 0.343918
vt 0.104881 0.343918
vt 0.204500 0.316639
vt 0.315309 0.266195
vt 0.420674 0.177887
vt 0.530696 0.000000
vt 0.639025 0.096232
vt 0.733200 0.205891
vt 0.817516 0.358072
vt 0.859735 0.501784
vt 0.882719 0.677191
vt 0.874856 0.801186
vt 0.825923 1.000000
vt 0.850359 0.805601
vt 0.834875 0.694792
vt 0.761386 0.533237
vt 0.674227 0.436642
vt 0.588762 0.380572
vt 0.513276 0.347305
vt 0.315914 0.313131
vt 0.211819 0.335692
vt 0.113047 0.365753
vt 0.023045 0.429625
vt 0.000000 0.343918
vt 0.023045 0.429625
vt 0.113047 0.365753
vt 0.104881 0.343918
vt 0.315914 0.313131
vt 0.513276 0.347305
vt 0.420674 0.177887
vt 0.315309 0.266195
vt 0.211819 0.335692
vt 0.204500 0.316639
vt 0.850359 0.805601
vt 0.825923 1.000000
vt 0.874856 0.801186
vt 0.834875 0.694792
vt 0.882719 0.677191
vt 0.761386 0.533237
vt 0.859735 0.501784
vt 0.674227 0.436642
vt 0.817516 0.358072
vt 0.588762 0.380572
vt 0.733200 0.205891
vt 0.639025 0.096232
vt 0.530696 0.000000
vn 0.000000 -1.000000 0.000000
vn 0.000000 -1.000000 0.000000
vn 0.000000 -1.000000 0.000000
vn 0.000000 -1.000000 0.000000
vn 0.000000 -1.000000 0.000000
vn 0.000000 -1.000000 0.000000
vn 0.000000 -1.000000 0.000000
vn 0.000000 -1.000000 0.000000
vn 0.000000 -1.000000 0.000000
vn 0.000000 -1.000000 0.000000
vn 0.000000 -1.000000 0.000000
vn 0.000000 -1.000000 0.000000
vn 0.000000 -1.000000 0.000000
vn 0.000000 -1.000000 0.000000
vn 0.000000 -1.000000 0.000000
vn 0.000000 -1.000000 0.000000
vn 0.000000 -1.000000 0.000000
vn 0.000000 -1.000000 0.000000
vn 0.000000 -1.000000 0.000000
vn 0.000000 -1.000000 0.000000
vn 0.000000 -1.000000 0.000000
vn 0.000000 -1.000000 0.000000
vn 0.000000 -1.000000 0.000000
vn 0.000000 -1.000000 0.000000
vn 0.000000 -1.000000 0.000000
vn 0.000000 -1.000000 0.000000
vn 0.000000 -1.000000 0.000000
vn 0.000000 -1.000000 0.000000
vn 0.000000 -1.000000 0.000000
vn 0.000000 -1.000000 0.000000
vn 0.000000 -1.000000 0.000000
vn 0.000000 -1.000000 0.000000
vn 0.000000 -1.000000 0.000000
vn 0.000000 -1.000000 0.000000
vn 0.000000 -1.000000 0.000000
vn 0.000000 -1.000000 0.000000
vn 0.000000 -1.000000 0.000000
vn 0.000000 -1.000000 0.000000
vn 0.000000 -1.000000 0.000000
vn 0.000000 -1.000000 0.000000
vn 0.000000 -1.000000 0.000000
vn 0.000000 -1.000000 0.000000
vn 0.000000 -1.000000 0.000000
vn 0.000000 1.000000 0.000000
vn 0.000000 1.000000 0.000000
vn 0.000000 1.000000 0.000000
vn 0.000000 1.000000 0.000000
vn 0.000000 1.000000 0.000000
vn 0.000000 1.000000 0.000000
vn 0.000000 1.000000 0.000000
vn 0.000000 1.000000 0.000000
vn 0.000000 1.000000 -0.000000
vn 0.000000 1.000000 -0.000000
vn 0.000000 1.000000 -0.000000
vn 0.000000 1.000000 -0.000000
vn 0.000000 1.000000 0.000000
vn 0.000000 1.000000 0.000000
vn 0.000000 1.000000 0.000000
vn 0.000000 1.000000 0.000000
vn 0.000000 1.000000 0.000000
vn 0.000000 1.000000 0.000000
vn 0.000000 1.000000 0.000000
vn 0.000000 1.000000 0.000000
vn 0.000000 1.000000 -0.000000
vn 0.000000 1.000000 -0.000000
vn 0.000000 1.000000 -0.000000
vn 0.000000 1.000000 -0.000000
vn 0.000000 1.000000 0.000000
vn 0.000000 1.000000 -0.000000
vn 0.000000 1.000000 0.000000
vn 0.000000 1.000000 -0.000000
vn 0.000000 1.000000 -0.000000
vn 0.000000 1.000000 -0.000000
vn 0.000000 1.000000 0.000000
vn 0.000000 1.000000 0.000000
vn 0.000000 1.000000 -0.000000
vn 0.000000 1.000000 -0.000000
vn 0.000000 1.000000 -0.000000
vn 0.000000 1.000000 0.000000
vn 0.000000 1.000000 -0.000000
vn 0.000000 1.000000 -0.000000
vn 0.000000 1.000000 -0.000000
vn 0.000000 1.000000 0.000000
vn 0.000000 1.000000 0.000000
vn 0.000000 1.000000 0.000000
vn 0.000000 1.000000 0.000000
s 1
g l2
f 2/2/1 22/22/2 1/1/3
f 1/1/3 22/22/2 23/23/4
s 2
f 4/4/5 5/5/6 20/20/7
f 20/20/7 5/5/6 19/19/8
s 3
f 21/21/9 3/3/10 20/20/11
f 20/20/11 3/3/10 4/4/12
s 4
f 2/2/13 3/3/14 22/22/15
f 22/22/15 3/3/14 21/21/16
s off
f 14/14/17 12/12/18 13/13/19
s 5
f 11/11/20 12/12/21 15/15/22
f 15/15/22 12/12/21 14/14/23
s 6
f 16/16/24 10/10/25 15/15/26
f 15/15/26 10/10/25 11/11/27
s 7
f 17/17/28 9/9/29 16/16/30
f 16/16/30 9/9/29 10/10/31
s 8
f 8/8/32 9/9/33 18/18/34
f 18/18/34 9/9/33 17/17/35
s 9
f 7/7/36 8/8/37 19/19/38
f 19/19/38 8/8/37 18/18/39
s 10
f 19/19/40 5/5/41 7/7/42
f 7/7/42 5/5/41 6/6/43
s 11
f 46/25/44 45/26/45 24/24/46
f 24/24/46 45/26/45 25/27/47
s 12
f 42/29/48 28/30/49 43/28/50
f 43/28/50 28/30/49 27/31/51
s 13
f 44/32/52 43/28/53 26/33/54
f 26/33/54 43/28/53 27/31/55
s 14
f 44/32/56 26/33/57 45/26/58
f 45/26/58 26/33/57 25/27/59
s off
f 37/34/60 36/35/61 35/36/62
s 15
f 37/34/63 35/36/64 38/37/65
f 38/37/65 35/36/64 34/38/66
s 16
f 39/39/67 38/37/68 33/40/69
f 33/40/69 38/37/68 34/38/70
s 17
f 40/41/71 39/39/72 32/42/73
f 32/42/73 39/39/72 33/40/74
s 18
f 40/41/75 32/42/76 41/43/77
f 41/43/77 32/42/76 31/44/78
s 19
f 41/43/79 31/44/80 42/29/81
f 42/29/81 31/44/80 30/45/82
s 20
f 42/29/83 30/45/84 28/30/85
f 28/30/85 30/45/84 29/46/86
g default
v -25.776979 0.000000 24.685848
v -45.988571 0.000000 29.505676
v -63.639137 0.000000 39.043861
v -82.374123 0.000000 53.448338
v -98.323189 0.000000 74.724510
v -111.325195 0.000000 113.216507
v -136.050201 0.000000 99.767761
v -158.687119 0.000000 83.156578
v -181.326752 0.000000 58.066711
v -195.628998 0.000000 32.729549
v -207.684387 0.000000 0.550468
v -211.644348 0.000000 -23.256142
v -210.478943 0.000000 -64.321838
v -206.654755 0.000000 -25.020882
v -198.200424 0.000000 -2.795280
v -178.402191 0.000000 22.457512
v -157.666809 0.000000 36.904961
v -139.032364 0.000000 43.759068
v -123.288094 0.000000 46.737011
v -87.347160 0.000000 44.903816
v -65.616386 0.000000 35.619167
v -48.248306 0.000000 25.591702
v -34.392105 0.000000 9.764009
v -25.776979 0.568292 24.685848
v -45.988571 0.568292 29.505676
v -63.639137 0.568292 39.043861
v -82.374123 0.568292 53.448338
v -98.323189 0.568292 74.724510
v -111.325195 0.568292 113.216507
v -136.050201 0.568292 99.767761
v -158.687119 0.568292 83.156578
v -181.326752 0.568292 58.066711
v -195.628998 0.568292 32.729549
v -207.684387 0.568292 0.550468
v -211.644348 0.568292 -23.256142
v -210.478943 0.568292 -64.321838
v -206.654755 0.568292 -25.020882
v -198.200424 0.568292 -2.795280
v -178.402191 0.568292 22.457512
v -157.666809 0.568292 36.904961
v -139.032364 0.568292 43.759068
v -123.288094 0.568292 46.737011
v -87.347160 0.568292 44.903816
v -65.616386 0.568292 35.619167
v -48.248306 0.568292 25.591702
v -34.392105 0.568292 9.764009
vt 0.000000 0.343918
vt 0.104881 0.343918
vt 0.204500 0.316639
vt 0.315309 0.266195
vt 0.420674 0.177887
vt 0.530696 0.000000
vt 0.639025 0.096232
vt 0.733200 0.205891
vt 0.817516 0.358072
vt 0.859735 0.501784
vt 0.882719 0.677191
vt 0.874856 0.801186
vt 0.825923 1.000000
vt 0.850359 0.805601
vt 0.834875 0.694792
vt 0.761386 0.533237
vt 0.674227 0.436642
vt 0.588762 0.380572
vt 0.513276 0.347305
vt 0.315914 0.313131
vt 0.211819 0.335692
vt 0.113047 0.365753
vt 0.023045 0.429625
vt 0.000000 0.343918
vt 0.023045 0.429625
vt 0.113047 0.365753
vt 0.104881 0.343918
vt 0.315914 0.313131
vt 0.513276 0.347305
vt 0.420674 0.177887
vt 0.315309 0.266195
vt 0.211819 0.335692
vt 0.204500 0.316639
vt 0.850359 0.805601
vt 0.825923 1.000000
vt 0.874856 0.801186
vt 0.834875 0.694792
vt 0.882719 0.677191
vt 0.761386 0.533237
vt 0.859735 0.501784
vt 0.674227 0.436642
vt 0.817516 0.358072
vt 0.588762 0.380572
vt 0.733200 0.205891
vt 0.639025 0.096232
vt 0.530696 0.000000
vn 0.000000 -1.000000 0.000000
vn 0.000000 -1.000000 0.000000
vn 0.000000 -1.000000 0.000000
vn 0.000000 -1.000000 0.000000
vn 0.000000 -1.000000 0.000000
vn 0.000000 -1.000000 0.000000
vn 0.000000 -1.000000 0.000000
vn 0.000000 -1.000000 0.000000
vn 0.000000 -1.000000 0.000000
vn 0.000000 -1.000000 0.000000
vn 0.000000 -1.000000 0.000000
vn 0.000000 -1.000000 0.000000
vn 0.000000 -1.000000 0.000000
vn 0.000000 -1.000000 0.000000
vn 0.000000 -1.000000 0.000000
vn 0.000000 -1.000000 0.000000
vn 0.000000 -1.000000 0.000000
vn 0.000000 -1.000000 0.000000
vn 0.000000 -1.000000 0.000000
vn 0.000000 -1.000000 0.000000
vn 0.000000 -1.000000 0.000000
vn 0.000000 -1.000000 0.000000
vn 0.000000 -1.000000 0.000000
vn 0.000000 -1.000000 0.000000
vn 0.000000 -1.000000 0.000000
vn 0.000000 -1.000000 0.000000
vn 0.000000 -1.000000 0.000000
vn 0.000000 -1.000000 0.000000
vn 0.000000 -1.000000 0.000000
vn 0.000000 -1.000000 0.000000
vn 0.000000 -1.000000 0.000000
vn 0.000000 -1.000000 0.000000
vn 0.000000 -1.000000 0.000000
vn 0.000000 -1.000000 0.000000
vn 0.000000 -1.000000 0.000000
vn 0.000000 -1.000000 0.000000
vn 0.000000 -1.000000 0.000000
vn 0.000000 -1.000000 0.000000
vn 0.000000 -1.000000 0.000000
vn 0.000000 -1.000000 0.000000
vn 0.000000 -1.000000 0.000000
vn 0.000000 -1.000000 0.000000
vn 0.000000 -1.000000 0.000000
vn 0.000000 1.000000 0.000000
vn 0.000000 1.000000 -0.000000
vn 0.000000 1.000000 0.000000
vn 0.000000 1.000000 -0.000000
vn 0.000000 1.000000 0.000000
vn 0.000000 1.000000 -0.000000
vn 0.000000 1.000000 -0.000000
vn 0.000000 1.000000 -0.000000
vn 0.000000 1.000000 0.000000
vn 0.000000 1.000000 0.000000
vn 0.000000 1.000000 0.000000
vn 0.000000 1.000000 0.000000
vn 0.000000 1.000000 0.000000
vn 0.000000 1.000000 0.000000
vn 0.000000 1.000000 0.000000
vn 0.000000 1.000000 0.000000
vn 0.000000 1.000000 0.000000
vn 0.000000 1.000000 0.000000
vn 0.000000 1.000000 0.000000
vn 0.000000 1.000000 0.000000
vn 0.000000 1.000000 0.000000
vn 0.000000 1.000000 0.000000
vn 0.000000 1.000000 0.000000
vn 0.000000 1.000000 0.000000
vn 0.000000 1.000000 0.000000
vn 0.000000 1.000000 0.000000
vn 0.000000 1.000000 0.000000
vn 0.000000 1.000000 0.000000
vn 0.000000 1.000000 0.000000
vn 0.000000 1.000000 0.000000
vn 0.000000 1.000000 0.000000
vn 0.000000 1.000000 0.000000
vn 0.000000 1.000000 0.000000
vn 0.000000 1.000000 0.000000
vn 0.000000 1.000000 0.000000
vn 0.000000 1.000000 0.000000
vn 0.000000 1.000000 -0.000000
vn 0.000000 1.000000 0.000000
vn 0.000000 1.000000 -0.000000
vn 0.000000 1.000000 -0.000000
vn 0.000000 1.000000 0.000000
vn 0.000000 1.000000 -0.000000
vn 0.000000 1.000000 0.000000
s 1
g l1
f 48/48/87 68/68/88 47/47/89
f 47/47/89 68/68/88 69/69/90
s 2
f 50/50/91 51/51/92 66/66/93
f 66/66/93 51/51/92 65/65/94
s 3
f 67/67/95 49/49/96 66/66/97
f 66/66/97 49/49/96 50/50/98
s 4
f 48/48/99 49/49/100 68/68/101
f 68/68/101 49/49/100 67/67/102
s off
f 60/60/103 58/58/104 59/59/105
s 5
f 57/57/106 58/58/107 61/61/108
f 61/61/108 58/58/107 60/60/109
s 6
f 62/62/110 56/56/111 61/61/112
f 61/61/112 56/56/111 57/57/113
s 7
f 63/63/114 55/55/115 62/62/116
f 62/62/116 55/55/115 56/56/117
s 8
f 54/54/118 55/55/119 64/64/120
f 64/64/120 55/55/119 63/63/121
s 9
f 53/53/122 54/54/123 65/65/124
f 65/65/124 54/54/123 64/64/125
s 10
f 65/65/126 51/51/127 53/53/128
f 53/53/128 51/51/127 52/52/129
s 11
f 92/71/130 91/72/131 70/70/132
f 70/70/132 91/72/131 71/73/133
s 12
f 88/75/134 74/76/135 89/74/136
f 89/74/136 74/76/135 73/77/137
s 13
f 90/78/138 89/74/139 72/79/140
f 72/79/140 89/74/139 73/77/141
s 14
f 90/78/142 72/79/143 91/72/144
f 91/72/144 72/79/143 71/73/145
s off
f 83/80/146 82/81/147 81/82/148
s 15
f 83/80/149 81/82/150 84/83/151
f 84/83/151 81/82/150 80/84/152
s 16
f 85/85/153 84/83/154 79/86/155
f 79/86/155 84/83/154 80/84/156
s 17
f 86/87/157 85/85/158 78/88/159
f 78/88/159 85/85/158 79/86/160
s 18
f 86/87/161 78/88/162 87/89/163
f 87/89/163 78/88/162 77/90/164
s 19
f 87/89/165 77/90/166 88/75/167
f 88/75/167 77/90/166 76/91/168
s 20
f 88/75/169 76/91/170 74/76/171
f 74/76/171 76/91/170 75/92/172
g default
v 34.267059 0.000000 9.980595
v 48.546951 0.000000 25.074432
v 65.632545 0.000000 35.591179
v 87.474678 0.000000 44.613918
v 113.874916 0.000000 47.788128
v 153.710968 0.000000 39.802197
v 154.426514 0.000000 67.939056
v 151.359268 0.000000 95.848793
v 140.950623 0.000000 128.000214
v 126.159119 0.000000 153.054901
v 104.318909 0.000000 179.584717
v 85.681763 0.000000 194.917450
v 49.535126 0.000000 214.441040
v 81.658661 0.000000 191.478699
v 96.679428 0.000000 173.044250
v 108.649872 0.000000 143.272064
v 110.794037 0.000000 118.090981
v 107.412643 0.000000 98.526031
v 102.119484 0.000000 83.402115
v 82.561424 0.000000 53.192955
v 63.655296 0.000000 39.015873
v 46.287216 0.000000 28.988407
v 25.651934 0.000000 24.902433
v 34.267059 0.568292 9.980595
v 48.546951 0.568292 25.074432
v 65.632545 0.568292 35.591179
v 87.474678 0.568292 44.613918
v 113.874916 0.568292 47.788128
v 153.710968 0.568292 39.802197
v 154.426514 0.568292 67.939056
v 151.359268 0.568292 95.848793
v 140.950623 0.568292 128.000214
v 126.159119 0.568292 153.054901
v 104.318909 0.568292 179.584717
v 85.681763 0.568292 194.917450
v 49.535126 0.568292 214.441040
v 81.658661 0.568292 191.478699
v 96.679428 0.568292 173.044250
v 108.649872 0.568292 143.272064
v 110.794037 0.568292 118.090981
v 107.412643 0.568292 98.526031
v 102.119484 0.568292 83.402115
v 82.561424 0.568292 53.192955
v 63.655296 0.568292 39.015873
v 46.287216 0.568292 28.988407
v 25.651934 0.568292 24.902433
vt 0.000000 0.343918
vt 0.104881 0.343918
vt 0.204500 0.316639
vt 0.315309 0.266195
vt 0.420674 0.177887
vt 0.530696 0.000000
vt 0.639025 0.096232
vt 0.733200 0.205891
vt 0.817516 0.358072
vt 0.859735 0.501784
vt 0.882719 0.677191
vt 0.874856 0.801186
vt 0.825923 1.000000
vt 0.850359 0.805601
vt 0.834875 0.694792
vt 0.761386 0.533237
vt 0.674227 0.436642
vt 0.588762 0.380572
vt 0.513276 0.347305
vt 0.315914 0.313131
vt 0.211819 0.335692
vt 0.113047 0.365753
vt 0.023045 0.429625
vt 0.000000 0.343918
vt 0.023045 0.429625
vt 0.113047 0.365753
vt 0.104881 0.343918
vt 0.315914 0.313131
vt 0.513276 0.347305
vt 0.420674 0.177887
vt 0.315309 0.266195
vt 0.211819 0.335692
vt 0.204500 0.316639
vt 0.850359 0.805601
vt 0.825923 1.000000
vt 0.874856 0.801186
vt 0.834875 0.694792
vt 0.882719 0.677191
vt 0.761386 0.533237
vt 0.859735 0.501784
vt 0.674227 0.436642
vt 0.817516 0.358072
vt 0.588762 0.380572
vt 0.733200 0.205891
vt 0.639025 0.096232
vt 0.530696 0.000000
vn 0.000000 -1.000000 0.000000
vn 0.000000 -1.000000 0.000000
vn 0.000000 -1.000000 0.000000
vn 0.000000 -1.000000 0.000000
vn 0.000000 -1.000000 0.000000
vn 0.000000 -1.000000 0.000000
vn 0.000000 -1.000000 0.000000
vn 0.000000 -1.000000 0.000000
vn 0.000000 -1.000000 0.000000
vn 0.000000 -1.000000 0.000000
vn 0.000000 -1.000000 0.000000
vn 0.000000 -1.000000 0.000000
vn 0.000000 -1.000000 0.000000
vn 0.000000 -1.000000 0.000000
vn 0.000000 -1.000000 0.000000
vn 0.000000 -1.000000 0.000000
vn 0.000000 -1.000000 0.000000
vn 0.000000 -1.000000 0.000000
vn 0.000000 -1.000000 0.000000
vn 0.000000 -1.000000 0.000000
vn 0.000000 -1.000000 0.000000
vn 0.000000 -1.000000 0.000000
vn 0.000000 -1.000000 0.000000
vn 0.000000 -1.000000 0.000000
vn 0.000000 -1.000000 0.000000
vn 0.000000 -1.000000 0.000000
vn 0.000000 -1.000000 0.000000
vn 0.000000 -1.000000 0.000000
vn 0.000000 -1.000000 0.000000
vn 0.000000 -1.000000 0.000000
vn 0.000000 -1.000000 0.000000
vn 0.000000 -1.000000 0.000000
vn 0.000000 -1.000000 0.000000
vn 0.000000 -1.000000 0.000000
vn 0.000000 -1.000000 0.000000
vn 0.000000 -1.000000 0.000000
vn 0.000000 -1.000000 0.000000
vn 0.000000 -1.000000 0.000000
vn 0.000000 -1.000000 0.000000
vn 0.000000 -1.000000 0.000000
vn 0.000000 -1.000000 0.000000
vn 0.000000 -1.000000 0.000000
vn 0.000000 -1.000000 0.000000
vn 0.000000 1.000000 0.000000
vn 0.000000 1.000000 0.000000
vn 0.000000 1.000000 0.000000
vn 0.000000 1.000000 0.000000
vn 0.000000 1.000000 0.000000
vn 0.000000 1.000000 0.000000
vn 0.000000 1.000000 0.000000
vn 0.000000 1.000000 -0.000000
vn 0.000000 1.000000 0.000000
vn 0.000000 1.000000 0.000000
vn 0.000000 1.000000 0.000000
vn 0.000000 1.000000 0.000000
vn 0.000000 1.000000 0.000000
vn 0.000000 1.000000 -0.000000
vn 0.000000 1.000000 -0.000000
vn 0.000000 1.000000 -0.000000
vn 0.000000 1.000000 -0.000000
vn 0.000000 1.000000 -0.000000
vn 0.000000 1.000000 -0.000000
vn 0.000000 1.000000 0.000000
vn 0.000000 1.000000 0.000000
vn 0.000000 1.000000 0.000000
vn 0.000000 1.000000 0.000000
vn 0.000000 1.000000 0.000000
vn 0.000000 1.000000 0.000000
vn 0.000000 1.000000 0.000000
vn 0.000000 1.000000 0.000000
vn 0.000000 1.000000 0.000000
vn 0.000000 1.000000 -0.000000
vn 0.000000 1.000000 -0.000000
vn 0.000000 1.000000 -0.000000
vn 0.000000 1.000000 -0.000000
vn 0.000000 1.000000 0.000000
vn 0.000000 1.000000 0.000000
vn 0.000000 1.000000 0.000000
vn 0.000000 1.000000 -0.000000
vn 0.000000 1.000000 -0.000000
vn 0.000000 1.000000 -0.000000
vn 0.000000 1.000000 0.000000
vn 0.000000 1.000000 0.000000
vn 0.000000 1.000000 0.000000
vn 0.000000 1.000000 0.000000
vn 0.000000 1.000000 0.000000
s 1
g l3
f 94/94/173 114/114/174 93/93/175
f 93/93/175 114/114/174 115/115/176
s 2
f 96/96/177 97/97/178 112/112/179
f 112/112/179 97/97/178 111/111/180
s 3
f 113/113/181 95/95/182 112/112/183
f 112/112/183 95/95/182 96/96/184
s 4
f 94/94/185 95/95/186 114/114/187
f 114/114/187 95/95/186 113/113/188
s off
f 106/106/189 104/104/190 105/105/191
s 5
f 103/103/192 104/104/193 107/107/194
f 107/107/194 104/104/193 106/106/195
s 6
f 108/108/196 102/102/197 107/107/198
f 107/107/198 102/102/197 103/103/199
s 7
f 109/109/200 101/101/201 108/108/202
f 108/108/202 101/101/201 102/102/203
s 8
f 100/100/204 101/101/205 110/110/206
f 110/110/206 101/101/205 109/109/207
s 9
f 99/99/208 100/100/209 111/111/210
f 111/111/210 100/100/209 110/110/211
s 10
f 111/111/212 97/97/213 99/99/214
f 99/99/214 97/97/213 98/98/215
s 11
f 138/117/216 137/118/217 116/116/218
f 116/116/218 137/118/217 117/119/219
s 12
f 134/121/220 120/122/221 135/120/222
f 135/120/222 120/122/221 119/123/223
s 13
f 136/124/224 135/120/225 118/125/226
f 118/125/226 135/120/225 119/123/227
s 14
f 136/124/228 118/125/229 137/118/230
f 137/118/230 118/125/229 117/119/231
s off
f 129/126/232 128/127/233 127/128/234
s 15
f 129/126/235 127/128/236 130/129/237
f 130/129/237 127/128/236 126/130/238
s 16
f 131/131/239 130/129/240 125/132/241
f 125/132/241 130/129/240 126/130/242
s 17
f 132/133/243 131/131/244 124/134/245
f 124/134/245 131/131/244 125/132/246
s 18
f 132/133/247 124/134/248 133/135/249
f 133/135/249 124/134/248 123/136/250
s 19
f 133/135/251 123/136/252 134/121/253
f 134/121/253 123/136/252 122/137/254
s 20
f 134/121/255 122/137/256 120/122/257
f 120/122/257 122/137/256 121/138/258
