# This file uses centimeters as units for non-parametric coordinates.

g default
v 97.964859 1.044122 -201.160889
v 79.893692 1.044122 -199.734192
v -35.191269 1.044122 -177.382996
v -74.186981 1.044122 -165.969604
v -117.700508 1.044122 -151.702881
v -142.667282 1.044122 -139.338379
v -146.471741 1.044122 -133.631714
v -139.813934 1.044122 -127.449432
v -129.351669 1.044122 -120.316071
v -94.635963 1.044122 -115.560486
v -53.262451 1.044122 -120.791626
v -30.435699 1.044122 -130.778320
v -9.035583 1.044122 -141.240601
v 40.184616 1.044122 -155.031769
v 92.258194 1.044122 -163.591797
v 101.769333 1.044122 -161.214050
v 117.462753 1.044122 -157.885101
v 132.205032 1.044122 -160.262909
v 141.240616 1.044122 -174.054077
v 140.051712 1.044122 -179.285248
v 133.631668 1.044122 -185.467438
v 114.371628 1.044122 -195.216400
v 97.964859 -1.044122 -201.160889
v 79.893692 -1.044122 -199.734192
v -35.191269 -1.044122 -177.382996
v -74.186981 -1.044122 -165.969604
v -117.700508 -1.044122 -151.702881
v -142.667282 -1.044122 -139.338379
v -146.471741 -1.044122 -133.631714
v -139.813934 -1.044122 -127.449432
v -129.351669 -1.044122 -120.316071
v -94.635963 -1.044122 -115.560486
v -53.262451 -1.044122 -120.791626
v -30.435699 -1.044122 -130.778320
v -9.035583 -1.044122 -141.240601
v 40.184616 -1.044122 -155.031769
v 92.258194 -1.044122 -163.591797
v 101.769333 -1.044122 -161.214050
v 117.462753 -1.044122 -157.885101
v 132.205032 -1.044122 -160.262909
v 141.240616 -1.044122 -174.054077
v 140.051712 -1.044122 -179.285248
v 133.631668 -1.044122 -185.467438
v 114.371628 -1.044122 -195.216400
vt 0.436118 0.803694
vt 0.427892 0.794835
vt 0.443711 0.798632
vt 0.460163 0.765412
vt 0.418401 0.780914
vt 0.412073 0.734723
vt 0.479146 0.707514
vt 0.419034 0.679673
vt 0.494332 0.655628
vt 0.432322 0.649300
vt 0.446242 0.620826
vt 0.524072 0.502499
vt 0.464593 0.555335
vt 0.475982 0.486048
vt 0.525970 0.478455
vt 0.518061 0.456624
vt 0.472818 0.473392
vt 0.468389 0.452511
vt 0.505089 0.430997
vt 0.471553 0.432896
vt 0.496863 0.422455
vt 0.489903 0.420873
vt 0.621648 0.803694
vt 0.614055 0.798632
vt 0.629874 0.794835
vt 0.597603 0.765412
vt 0.639366 0.780914
vt 0.645693 0.734723
vt 0.578621 0.707514
vt 0.638733 0.679673
vt 0.563434 0.655628
vt 0.625445 0.649300
vt 0.611524 0.620826
vt 0.533695 0.502499
vt 0.593174 0.555335
vt 0.581784 0.486048
vt 0.531796 0.478455
vt 0.539706 0.456624
vt 0.584948 0.473392
vt 0.589377 0.452511
vt 0.552677 0.430998
vt 0.586214 0.432896
vt 0.560903 0.422455
vt 0.567864 0.420873
vn 0.000000 1.000000 0.000000
vn 0.000000 1.000000 0.000000
vn 0.000000 1.000000 0.000000
vn 0.000000 1.000000 -0.000000
vn 0.000000 1.000000 -0.000000
vn 0.000000 1.000000 0.000000
vn 0.000000 1.000000 0.000000
vn 0.000000 1.000000 0.000000
vn 0.000000 1.000000 0.000000
vn 0.000000 1.000000 0.000000
vn 0.000000 1.000000 -0.000000
vn 0.000000 1.000000 0.000000
vn 0.000000 1.000000 -0.000000
vn 0.000000 1.000000 0.000000
vn 0.000000 1.000000 0.000000
vn 0.000000 1.000000 0.000000
vn 0.000000 1.000000 0.000000
vn 0.000000 1.000000 0.000000
vn 0.000000 1.000000 -0.000000
vn 0.000000 1.000000 -0.000000
vn 0.000000 1.000000 -0.000000
vn 0.000000 1.000000 0.000000
vn 0.000000 -1.000000 0.000000
vn 0.000000 -1.000000 0.000000
vn 0.000000 -1.000000 0.000000
vn 0.000000 -1.000000 -0.000000
vn 0.000000 -1.000000 0.000000
vn 0.000000 -1.000000 -0.000000
vn 0.000000 -1.000000 -0.000000
vn 0.000000 -1.000000 0.000000
vn 0.000000 -1.000000 0.000000
vn 0.000000 -1.000000 0.000000
vn 0.000000 -1.000000 0.000000
vn 0.000000 -1.000000 0.000000
vn 0.000000 -1.000000 -0.000000
vn 0.000000 -1.000000 0.000000
vn 0.000000 -1.000000 0.000000
vn 0.000000 -1.000000 0.000000
vn 0.000000 -1.000000 0.000000
vn 0.000000 -1.000000 -0.000000
vn 0.000000 -1.000000 -0.000000
vn 0.000000 -1.000000 -0.000000
vn 0.000000 -1.000000 -0.000000
vn 0.000000 -1.000000 0.000000
s 1
g l1
f 7/1/1 8/2/2 6/3/3
f 6/3/3 8/2/2 5/4/4
f 8/2/2 9/5/5 5/4/4
f 9/5/5 10/6/6 5/4/4
f 5/4/4 10/6/6 4/7/7
f 10/6/6 11/8/8 4/7/7
f 4/7/7 11/8/8 3/9/9
f 11/8/8 12/10/10 3/9/9
f 12/10/10 13/11/11 3/9/9
f 3/9/9 13/11/11 2/12/12
f 13/11/11 14/13/13 2/12/12
f 14/13/13 15/14/14 2/12/12
f 2/12/12 15/14/14 1/15/15
f 1/15/15 15/14/14 22/16/16
f 15/14/14 16/17/17 22/16/16
f 16/17/17 17/18/18 22/16/16
f 22/16/16 17/18/18 21/19/19
f 17/18/18 18/20/20 21/19/19
f 21/19/19 18/20/20 20/21/21
f 18/20/20 19/22/22 20/21/21
s 2
f 29/23/23 28/24/24 30/25/25
f 28/24/24 27/26/26 30/25/25
f 30/25/25 27/26/26 31/27/27
f 31/27/27 27/26/26 32/28/28
f 27/26/26 26/29/29 32/28/28
f 32/28/28 26/29/29 33/30/30
f 26/29/29 25/31/31 33/30/30
f 33/30/30 25/31/31 34/32/32
f 34/32/32 25/31/31 35/33/33
f 25/31/31 24/34/34 35/33/33
f 35/33/33 24/34/34 36/35/35
f 36/35/35 24/34/34 37/36/36
f 24/34/34 23/37/37 37/36/36
f 23/37/37 44/38/38 37/36/36
f 37/36/36 44/38/38 38/39/39
f 38/39/39 44/38/38 39/40/40
f 44/38/38 43/41/41 39/40/40
f 39/40/40 43/41/41 40/42/42
f 43/41/41 42/43/43 40/42/42
f 42/43/43 41/44/44 40/42/42
g default
v -63.724733 -1.044122 -110.804903
v -69.431417 -1.044122 -107.713801
v -77.040335 -1.044122 -97.489291
v -100.342656 -1.044122 -60.395811
v -141.953952 -1.044122 4.993361
v -174.054090 -1.044122 48.031326
v -199.734201 -1.044122 93.209307
v -196.880857 -1.044122 98.915996
v -189.271932 -1.044122 98.202662
v -184.516358 -1.044122 94.160420
v -171.676304 -1.044122 82.271481
v -157.409576 -1.044122 71.809207
v -142.667281 -1.044122 60.633608
v -139.813944 -1.044122 61.822494
v -133.393912 -1.044122 74.662558
v -126.022767 -1.044122 91.782634
v -122.693873 -1.044122 98.915996
v -126.022767 -1.044122 104.622685
v -139.813944 -1.044122 128.400568
v -169.774070 -1.044122 174.529656
v -176.431881 -1.044122 184.754147
v -179.998562 -1.044122 195.454195
v -177.858554 -1.044122 201.160884
v -169.298514 -1.044122 196.167529
v -158.360688 -1.044122 188.320828
v -150.038431 -1.044122 181.663022
v -137.673936 -1.044122 171.914092
v -126.498323 -1.044122 164.067391
v -98.440431 -1.044122 132.680587
v -85.600375 -1.044122 117.462743
v -72.760311 -1.044122 99.391557
v -67.529183 -1.044122 85.124823
v -51.122451 -1.044122 54.451358
v -29.484572 -1.044122 14.742296
v -0.475559 -1.044122 -31.386779
v -0.951124 -1.044122 -43.751297
v -3.328914 -1.044122 -47.793530
v -6.895600 -1.044122 -50.884650
v -18.546733 -1.044122 -55.640231
v -34.477936 -1.044122 -60.158029
v -61.346942 -1.044122 -53.737987
v -68.480304 -1.044122 -51.360215
v -64.675827 -1.044122 -57.066908
v -47.080218 -1.044122 -80.844776
v -44.226862 -1.044122 -95.111501
v -47.555765 -1.044122 -102.007107
v -51.122451 -1.044122 -106.049322
v -53.262458 -1.044122 -107.000453
v -56.591361 -1.044122 -110.329355
v -69.776186 -1.044122 -24.753364
v -58.183287 -1.044122 -23.806991
v -75.454349 -1.044122 12.627841
v -96.984032 -1.044122 54.031084
v -100.769477 -1.044122 60.182424
v -108.813525 -1.044122 53.084721
v -121.589381 -1.044122 43.621132
v -123.955285 -1.044122 41.255228
v -109.050118 -1.044122 21.145085
v -89.886329 -1.044122 -9.375010
v -82.315449 -1.044122 -23.097239
v -63.724733 1.044122 -110.804903
v -69.431417 1.044122 -107.713801
v -77.040335 1.044122 -97.489291
v -100.342656 1.044122 -60.395811
v -141.953952 1.044122 4.993361
v -174.054090 1.044122 48.031326
v -199.734201 1.044122 93.209307
v -196.880857 1.044122 98.915996
v -189.271932 1.044122 98.202662
v -184.516358 1.044122 94.160420
v -171.676304 1.044122 82.271481
v -157.409576 1.044122 71.809207
v -142.667281 1.044122 60.633608
v -139.813944 1.044122 61.822494
v -133.393912 1.044122 74.662558
v -126.022767 1.044122 91.782634
v -122.693873 1.044122 98.915996
v -126.022767 1.044122 104.622685
v -139.813944 1.044122 128.400568
v -169.774070 1.044122 174.529656
v -176.431881 1.044122 184.754147
v -179.998562 1.044122 195.454195
v -177.858554 1.044122 201.160884
v -169.298514 1.044122 196.167529
v -158.360688 1.044122 188.320828
v -150.038431 1.044122 181.663022
v -137.673936 1.044122 171.914092
v -126.498323 1.044122 164.067391
v -98.440431 1.044122 132.680587
v -85.600375 1.044122 117.462743
v -72.760311 1.044122 99.391557
v -67.529183 1.044122 85.124823
v -51.122451 1.044122 54.451358
v -29.484572 1.044122 14.742296
v -0.475559 1.044122 -31.386779
v -0.951124 1.044122 -43.751297
v -3.328914 1.044122 -47.793530
v -6.895600 1.044122 -50.884650
v -18.546733 1.044122 -55.640231
v -34.477936 1.044122 -60.158029
v -61.346942 1.044122 -53.737987
v -68.480304 1.044122 -51.360215
v -64.675827 1.044122 -57.066908
v -47.080218 1.044122 -80.844776
v -44.226862 1.044122 -95.111501
v -47.555765 1.044122 -102.007107
v -51.122451 1.044122 -106.049322
v -53.262458 1.044122 -107.000453
v -56.591361 1.044122 -110.329355
v -69.776186 1.044122 -24.753364
v -58.183287 1.044122 -23.806991
v -75.454349 1.044122 12.627841
v -96.984032 1.044122 54.031084
v -100.769477 1.044122 60.182424
v -108.813525 1.044122 53.084721
v -121.589381 1.044122 43.621132
v -123.955285 1.044122 41.255228
v -109.050118 1.044122 21.145085
v -89.886329 1.044122 -9.375010
v -82.315449 1.044122 -23.097239
vt 0.030999 0.417083
vt 0.028151 0.409490
vt 0.042388 0.410439
vt 0.032897 0.395253
vt 0.056942 0.399999
vt 0.041755 0.381649
vt 0.068015 0.391140
vt 0.081619 0.320271
vt 0.084467 0.378168
vt 0.099337 0.367728
vt 0.136670 0.325966
vt 0.099969 0.288633
vt 0.153754 0.305717
vt 0.104399 0.281040
vt 0.170839 0.281672
vt 0.177799 0.262690
vt 0.099969 0.271548
vt 0.090162 0.248769
vt 0.199629 0.221876
vt 0.133571 0.229502
vt 0.138607 0.221317
vt 0.167254 0.166228
vt 0.228420 0.169041
vt 0.122868 0.220058
vt 0.190234 0.117749
vt 0.267018 0.107663
vt 0.081619 0.231684
vt 0.105868 0.207466
vt 0.102720 0.204318
vt 0.266386 0.091211
vt 0.263222 0.085833
vt 0.258476 0.081720
vt 0.242974 0.075392
vt 0.221776 0.069381
vt 0.186025 0.077923
vt 0.176534 0.081087
vt 0.174809 0.116489
vt 0.158125 0.118693
vt 0.077823 0.230102
vt 0.005688 0.281040
vt 0.001892 0.273447
vt 0.015812 0.280091
vt 0.036061 0.213334
vt 0.022140 0.274712
vt 0.039224 0.258893
vt 0.058207 0.244972
vt 0.078772 0.156069
vt 0.122553 0.177560
vt 0.134139 0.069065
vt 0.148051 0.136951
vt 0.165144 0.019709
vt 0.181596 0.073494
vt 0.205008 0.041856
vt 0.208804 0.022873
vt 0.175268 0.006105
vt 0.204375 0.013698
vt 0.199629 0.008320
vt 0.196782 0.007054
vt 0.182861 0.001992
vt 0.192353 0.002625
vt 0.303224 0.001992
vt 0.314613 0.008636
vt 0.300376 0.009585
vt 0.305122 0.023822
vt 0.329167 0.019077
vt 0.313981 0.037427
vt 0.340240 0.027935
vt 0.353845 0.098804
vt 0.356692 0.040907
vt 0.371562 0.051347
vt 0.408895 0.093110
vt 0.372195 0.130443
vt 0.425979 0.113358
vt 0.376624 0.138036
vt 0.443064 0.137403
vt 0.450024 0.156386
vt 0.372195 0.147527
vt 0.362387 0.170306
vt 0.471855 0.197199
vt 0.405796 0.189573
vt 0.410833 0.197758
vt 0.439479 0.252848
vt 0.500645 0.250034
vt 0.395093 0.199017
vt 0.462460 0.301327
vt 0.539244 0.311412
vt 0.353845 0.187391
vt 0.378094 0.211609
vt 0.374946 0.214757
vt 0.538611 0.327864
vt 0.535447 0.333242
vt 0.530701 0.337355
vt 0.515199 0.343683
vt 0.494001 0.349694
vt 0.458250 0.341152
vt 0.448759 0.337988
vt 0.447035 0.302586
vt 0.430350 0.300382
vt 0.350048 0.188973
vt 0.277913 0.138036
vt 0.288038 0.138985
vt 0.274117 0.145629
vt 0.308286 0.205741
vt 0.294365 0.144363
vt 0.311450 0.160182
vt 0.330432 0.174103
vt 0.350997 0.263006
vt 0.394778 0.241515
vt 0.406364 0.350011
vt 0.420277 0.282124
vt 0.437369 0.399366
vt 0.453821 0.345581
vt 0.477233 0.377219
vt 0.481030 0.396202
vt 0.447493 0.412970
vt 0.476600 0.405377
vt 0.471855 0.410756
vt 0.469007 0.412021
vt 0.455086 0.417083
vt 0.464578 0.416451
vn 0.000000 -1.000000 0.000000
vn 0.000000 -1.000000 0.000000
vn 0.000000 -1.000000 0.000000
vn 0.000000 -1.000000 0.000000
vn 0.000000 -1.000000 0.000000
vn 0.000000 -1.000000 0.000000
vn 0.000000 -1.000000 0.000000
vn 0.000000 -1.000000 0.000000
vn 0.000000 -1.000000 0.000000
vn 0.000000 -1.000000 0.000000
vn 0.000000 -1.000000 0.000000
vn 0.000000 -1.000000 0.000000
vn 0.000000 -1.000000 0.000000
vn 0.000000 -1.000000 0.000000
vn 0.000000 -1.000000 0.000000
vn 0.000000 -1.000000 0.000000
vn 0.000000 -1.000000 0.000000
vn 0.000000 -1.000000 0.000000
vn 0.000000 -1.000000 0.000000
vn 0.000000 -1.000000 0.000000
vn 0.000000 -1.000000 0.000000
vn 0.000000 -1.000000 0.000000
vn 0.000000 -1.000000 0.000000
vn 0.000000 -1.000000 0.000000
vn 0.000000 -1.000000 0.000000
vn 0.000000 -1.000000 0.000000
vn 0.000000 -1.000000 0.000000
vn 0.000000 -1.000000 0.000000
vn 0.000000 -1.000000 0.000000
vn 0.000000 -1.000000 0.000000
vn 0.000000 -1.000000 0.000000
vn 0.000000 -1.000000 0.000000
vn 0.000000 -1.000000 0.000000
vn 0.000000 -1.000000 0.000000
vn 0.000000 -1.000000 0.000000
vn 0.000000 -1.000000 0.000000
vn 0.000000 -1.000000 0.000000
vn 0.000000 -1.000000 0.000000
vn 0.000000 -1.000000 0.000000
vn 0.000000 -1.000000 0.000000
vn 0.000000 -1.000000 0.000000
vn 0.000000 -1.000000 0.000000
vn 0.000000 -1.000000 0.000000
vn 0.000000 -1.000000 0.000000
vn 0.000000 -1.000000 0.000000
vn 0.000000 -1.000000 0.000000
vn 0.000000 -1.000000 0.000000
vn 0.000000 -1.000000 0.000000
vn 0.000000 -1.000000 0.000000
vn 0.000000 -1.000000 0.000000
vn 0.000000 -1.000000 0.000000
vn 0.000000 -1.000000 0.000000
vn 0.000000 -1.000000 0.000000
vn 0.000000 -1.000000 0.000000
vn 0.000000 -1.000000 0.000000
vn 0.000000 -1.000000 0.000000
vn 0.000000 -1.000000 0.000000
vn 0.000000 -1.000000 0.000000
vn 0.000000 -1.000000 0.000000
vn 0.000000 -1.000000 0.000000
vn 0.000000 1.000000 -0.000000
vn 0.000000 1.000000 -0.000000
vn 0.000000 1.000000 -0.000000
vn 0.000000 1.000000 -0.000000
vn 0.000000 1.000000 -0.000000
vn -0.000000 1.000000 -0.000000
vn -0.000000 1.000000 -0.000000
vn 0.000000 1.000000 -0.000000
vn 0.000000 1.000000 -0.000000
vn -0.000000 1.000000 -0.000000
vn -0.000000 1.000000 -0.000000
vn 0.000000 1.000000 -0.000000
vn -0.000000 1.000000 -0.000000
vn 0.000000 1.000000 -0.000000
vn 0.000000 1.000000 -0.000000
vn 0.000000 1.000000 -0.000000
vn 0.000000 1.000000 -0.000000
vn 0.000000 1.000000 -0.000000
vn 0.000000 1.000000 -0.000000
vn 0.000000 1.000000 -0.000000
vn 0.000000 1.000000 -0.000000
vn 0.000000 1.000000 -0.000000
vn 0.000000 1.000000 -0.000000
vn 0.000000 1.000000 -0.000000
vn 0.000000 1.000000 -0.000000
vn 0.000000 1.000000 -0.000000
vn -0.000000 1.000000 -0.000000
vn 0.000000 1.000000 -0.000000
vn -0.000000 1.000000 -0.000000
vn 0.000000 1.000000 -0.000000
vn 0.000000 1.000000 -0.000000
vn 0.000000 1.000000 -0.000000
vn -0.000000 1.000000 -0.000000
vn -0.000000 1.000000 -0.000000
vn 0.000000 1.000000 -0.000000
vn -0.000000 1.000000 -0.000000
vn 0.000000 1.000000 -0.000000
vn 0.000000 1.000000 -0.000000
vn -0.000000 1.000000 -0.000000
vn 0.000000 1.000000 -0.000000
vn 0.000000 1.000000 -0.000000
vn 0.000000 1.000000 -0.000000
vn -0.000000 1.000000 -0.000000
vn 0.000000 1.000000 -0.000000
vn 0.000000 1.000000 -0.000000
vn -0.000000 1.000000 -0.000000
vn -0.000000 1.000000 -0.000000
vn -0.000000 1.000000 -0.000000
vn 0.000000 1.000000 -0.000000
vn 0.000000 1.000000 -0.000000
vn 0.000000 1.000000 -0.000000
vn -0.000000 1.000000 -0.000000
vn 0.000000 1.000000 -0.000000
vn -0.000000 1.000000 -0.000000
vn 0.000000 1.000000 -0.000000
vn 0.000000 1.000000 -0.000000
vn -0.000000 1.000000 -0.000000
vn -0.000000 1.000000 -0.000000
vn -0.000000 1.000000 -0.000000
vn -0.000000 1.000000 -0.000000
s 1
g l2
f 67/45/45 66/46/46 68/47/47
f 66/46/46 65/48/48 68/47/47
f 68/47/47 65/48/48 69/49/49
f 65/48/48 64/50/50 69/49/49
f 69/49/49 64/50/50 70/51/51
f 64/50/50 63/52/52 70/51/51
f 70/51/51 63/52/52 71/53/53
f 71/53/53 63/52/52 72/54/54
f 72/54/54 63/52/52 73/55/55
f 63/52/52 62/56/56 73/55/55
f 73/55/55 62/56/56 74/57/57
f 62/56/56 61/58/58 74/57/57
f 74/57/57 61/58/58 75/59/59
f 75/59/59 61/58/58 76/60/60
f 61/58/58 60/61/61 76/60/60
f 60/61/61 59/62/62 76/60/60
f 76/60/60 59/62/62 77/63/63
f 59/62/62 98/64/64 77/63/63
f 98/64/64 97/65/65 77/63/63
f 97/65/65 96/66/66 77/63/63
f 77/63/63 96/66/66 78/67/67
f 98/64/64 59/62/62 99/68/68
f 96/66/66 95/69/69 78/67/67
f 78/67/67 95/69/69 79/70/70
f 59/62/62 58/71/71 99/68/68
f 99/68/68 58/71/71 100/72/72
f 100/72/72 58/71/71 101/73/73
f 79/70/70 95/69/69 80/74/74
f 80/74/74 95/69/69 81/75/75
f 81/75/75 95/69/69 82/76/76
f 82/76/76 95/69/69 83/77/77
f 83/77/77 95/69/69 84/78/78
f 84/78/78 95/69/69 85/79/79
f 85/79/79 95/69/69 86/80/80
f 95/69/69 94/81/81 86/80/80
f 94/81/81 104/82/82 86/80/80
f 58/71/71 57/83/83 101/73/73
f 52/84/84 51/85/85 53/86/86
f 51/85/85 50/87/87 53/86/86
f 53/86/86 50/87/87 54/88/88
f 54/88/88 50/87/87 55/89/89
f 55/89/89 50/87/87 56/90/90
f 56/90/90 50/87/87 57/83/83
f 50/87/87 49/91/91 57/83/83
f 57/83/83 49/91/91 101/73/73
f 101/73/73 49/91/91 102/92/92
f 49/91/91 48/93/93 102/92/92
f 102/92/92 48/93/93 103/94/94
f 103/94/94 48/93/93 104/82/82
f 104/82/82 48/93/93 86/80/80
f 48/93/93 47/95/95 86/80/80
f 86/80/80 47/95/95 87/96/96
f 87/96/96 47/95/95 88/97/97
f 88/97/97 47/95/95 89/98/98
f 47/95/95 46/99/99 89/98/98
f 89/98/98 46/99/99 90/100/100
f 90/100/100 46/99/99 91/101/101
f 91/101/101 46/99/99 92/102/102
f 46/99/99 45/103/103 92/102/102
f 93/104/104 92/102/102 45/103/103
s 3
f 127/105/105 128/106/106 126/107/107
f 126/107/107 128/106/106 125/108/108
f 128/106/106 129/109/109 125/108/108
f 125/108/108 129/109/109 124/110/110
f 129/109/109 130/111/111 124/110/110
f 124/110/110 130/111/111 123/112/112
f 130/111/111 131/113/113 123/112/112
f 131/113/113 132/114/114 123/112/112
f 132/114/114 133/115/115 123/112/112
f 123/112/112 133/115/115 122/116/116
f 133/115/115 134/117/117 122/116/116
f 122/116/116 134/117/117 121/118/118
f 134/117/117 135/119/119 121/118/118
f 135/119/119 136/120/120 121/118/118
f 121/118/118 136/120/120 120/121/121
f 120/121/121 136/120/120 119/122/122
f 136/120/120 137/123/123 119/122/122
f 119/122/122 137/123/123 158/124/124
f 158/124/124 137/123/123 157/125/125
f 157/125/125 137/123/123 156/126/126
f 137/123/123 138/127/127 156/126/126
f 158/124/124 159/128/128 119/122/122
f 156/126/126 138/127/127 155/129/129
f 138/127/127 139/130/130 155/129/129
f 119/122/122 159/128/128 118/131/131
f 159/128/128 160/132/132 118/131/131
f 160/132/132 161/133/133 118/131/131
f 139/130/130 140/134/134 155/129/129
f 140/134/134 141/135/135 155/129/129
f 141/135/135 142/136/136 155/129/129
f 142/136/136 143/137/137 155/129/129
f 143/137/137 144/138/138 155/129/129
f 144/138/138 145/139/139 155/129/129
f 145/139/139 146/140/140 155/129/129
f 155/129/129 146/140/140 154/141/141
f 154/141/141 146/140/140 164/142/142
f 118/131/131 161/133/133 117/143/143
f 112/144/144 113/145/145 111/146/146
f 111/146/146 113/145/145 110/147/147
f 113/145/145 114/148/148 110/147/147
f 114/148/148 115/149/149 110/147/147
f 115/149/149 116/150/150 110/147/147
f 116/150/150 117/143/143 110/147/147
f 110/147/147 117/143/143 109/151/151
f 117/143/143 161/133/133 109/151/151
f 161/133/133 162/152/152 109/151/151
f 109/151/151 162/152/152 108/153/153
f 162/152/152 163/154/154 108/153/153
f 163/154/154 164/142/142 108/153/153
f 164/142/142 146/140/140 108/153/153
f 108/153/153 146/140/140 107/155/155
f 146/140/140 147/156/156 107/155/155
f 147/156/156 148/157/157 107/155/155
f 148/157/157 149/158/158 107/155/155
f 107/155/155 149/158/158 106/159/159
f 149/158/158 150/160/160 106/159/159
f 150/160/160 151/161/161 106/159/159
f 151/161/161 152/162/162 106/159/159
f 106/159/159 152/162/162 105/163/163
f 105/163/163 152/162/162 153/164/164
g default
v 28.533463 1.044122 -111.993805
v 23.777878 1.044122 -109.378250
v 14.266739 1.044122 -68.004730
v 9.511154 1.044122 -29.960129
v 2.377777 1.044122 3.328918
v -0.951126 1.044122 19.973434
v -7.133362 1.044122 27.582352
v -17.120071 1.044122 40.184631
v -19.022308 1.044122 48.982445
v -20.211182 1.044122 52.311340
v -22.826767 1.044122 58.969154
v -21.637863 1.044122 63.486954
v -17.595627 1.044122 61.822495
v -10.462265 1.044122 58.969154
v -8.084488 1.044122 59.206940
v -8.560043 1.044122 65.626961
v -11.888947 1.044122 122.693878
v 0.237778 1.044122 150.989563
v 24.253448 1.044122 171.676315
v 43.275742 1.044122 177.858566
v 76.089218 1.044122 178.809677
v 164.067398 1.044122 169.774078
v 187.369705 1.044122 160.262939
v 194.027542 1.044122 155.507355
v 196.880844 1.044122 148.373993
v 199.734207 1.044122 144.093979
v 194.978622 1.044122 121.742767
v 180.711899 1.044122 95.587097
v 179.760788 1.044122 93.684860
v 178.809708 1.044122 93.209305
v 174.291885 1.044122 91.544853
v 170.725204 1.044122 88.929283
v 162.165176 1.044122 76.089233
v 155.507370 1.044122 63.011391
v 153.605148 1.044122 50.409119
v 153.129562 1.044122 45.177979
v 151.465103 1.044122 42.324631
v 150.513992 1.044122 44.464653
v 150.276199 1.044122 41.849083
v 149.325089 1.044122 38.995735
v 147.422867 1.044122 41.373528
v 145.045059 1.044122 66.578079
v 141.002853 1.044122 110.329376
v 138.862869 1.044122 135.533936
v 138.387253 1.044122 139.813950
v 118.889420 1.044122 143.142853
v 55.640244 1.044122 148.373993
v 35.429062 1.044122 145.758423
v 24.728989 1.044122 138.862839
v 19.497879 1.044122 132.442810
v 19.022293 1.044122 123.169434
v 21.400085 1.044122 94.635986
v 25.204559 1.044122 71.333656
v 29.960114 1.044122 54.689133
v 33.051254 1.044122 39.946846
v 33.764603 1.044122 36.617950
v 34.002365 1.044122 35.904617
v 35.191269 1.044122 35.666824
v 35.904587 1.044122 34.240158
v 38.044601 1.044122 31.386810
v 39.946854 1.044122 30.435699
v 44.702438 1.044122 25.204567
v 48.506882 1.044122 21.162331
v 58.493607 1.044122 11.413391
v 81.795914 1.044122 -8.560028
v 98.440475 1.044122 -22.351196
v 112.231613 1.044122 -34.002365
v 122.218338 1.044122 -40.897949
v 123.169418 1.044122 -41.135727
v 123.645004 1.044122 -42.324615
v 131.729477 1.044122 -52.073547
v 143.618393 1.044122 -68.004730
v 146.471756 1.044122 -74.662537
v 141.240616 1.044122 -80.844772
v 132.680588 1.044122 -88.453720
v 118.413834 1.044122 -96.538177
v 109.853806 1.044122 -97.489288
v 102.007156 1.044122 -91.782608
v 98.440475 1.044122 -86.075928
v 84.411484 1.044122 -68.480301
v 55.878006 1.044122 -38.520157
v 39.946854 1.044122 -25.204544
v 42.800186 1.044122 -41.849060
v 48.031326 1.044122 -58.493576
v 51.360245 1.044122 -68.718063
v 55.164719 1.044122 -81.558121
v 53.975815 1.044122 -89.880386
v 46.366867 1.044122 -100.104874
v 40.184616 1.044122 -108.427109
v 34.240158 1.044122 -111.280472
v 28.533463 -1.044122 -111.993805
v 23.777878 -1.044122 -109.378250
v 14.266739 -1.044122 -68.004730
v 9.511154 -1.044122 -29.960129
v 2.377777 -1.044122 3.328918
v -0.951126 -1.044122 19.973434
v -7.133362 -1.044122 27.582352
v -17.120071 -1.044122 40.184631
v -19.022308 -1.044122 48.982445
v -20.211182 -1.044122 52.311340
v -22.826767 -1.044122 58.969154
v -21.637863 -1.044122 63.486954
v -17.595627 -1.044122 61.822495
v -10.462265 -1.044122 58.969154
v -8.084488 -1.044122 59.206940
v -8.560043 -1.044122 65.626961
v -11.888947 -1.044122 122.693878
v 0.237778 -1.044122 150.989563
v 24.253448 -1.044122 171.676315
v 43.275742 -1.044122 177.858566
v 76.089218 -1.044122 178.809677
v 164.067398 -1.044122 169.774078
v 187.369705 -1.044122 160.262939
v 194.027542 -1.044122 155.507355
v 196.880844 -1.044122 148.373993
v 199.734207 -1.044122 144.093979
v 194.978622 -1.044122 121.742767
v 180.711899 -1.044122 95.587097
v 179.760788 -1.044122 93.684860
v 178.809708 -1.044122 93.209305
v 174.291885 -1.044122 91.544853
v 170.725204 -1.044122 88.929283
v 162.165176 -1.044122 76.089233
v 155.507370 -1.044122 63.011391
v 153.605148 -1.044122 50.409119
v 153.129562 -1.044122 45.177979
v 151.465103 -1.044122 42.324631
v 150.513992 -1.044122 44.464653
v 150.276199 -1.044122 41.849083
v 149.325089 -1.044122 38.995735
v 147.422867 -1.044122 41.373528
v 145.045059 -1.044122 66.578079
v 141.002853 -1.044122 110.329376
v 138.862869 -1.044122 135.533936
v 138.387253 -1.044122 139.813950
v 118.889420 -1.044122 143.142853
v 55.640244 -1.044122 148.373993
v 35.429062 -1.044122 145.758423
v 24.728989 -1.044122 138.862839
v 19.497879 -1.044122 132.442810
v 19.022293 -1.044122 123.169434
v 21.400085 -1.044122 94.635986
v 25.204559 -1.044122 71.333656
v 29.960114 -1.044122 54.689133
v 33.051254 -1.044122 39.946846
v 33.764603 -1.044122 36.617950
v 34.002365 -1.044122 35.904617
v 35.191269 -1.044122 35.666824
v 35.904587 -1.044122 34.240158
v 38.044601 -1.044122 31.386810
v 39.946854 -1.044122 30.435699
v 44.702438 -1.044122 25.204567
v 48.506882 -1.044122 21.162331
v 58.493607 -1.044122 11.413391
v 81.795914 -1.044122 -8.560028
v 98.440475 -1.044122 -22.351196
v 112.231613 -1.044122 -34.002365
v 122.218338 -1.044122 -40.897949
v 123.169418 -1.044122 -41.135727
v 123.645004 -1.044122 -42.324615
v 131.729477 -1.044122 -52.073547
v 143.618393 -1.044122 -68.004730
v 146.471756 -1.044122 -74.662537
v 141.240616 -1.044122 -80.844772
v 132.680588 -1.044122 -88.453720
v 118.413834 -1.044122 -96.538177
v 109.853806 -1.044122 -97.489288
v 102.007156 -1.044122 -91.782608
v 98.440475 -1.044122 -86.075928
v 84.411484 -1.044122 -68.480301
v 55.878006 -1.044122 -38.520157
v 39.946854 -1.044122 -25.204544
v 42.800186 -1.044122 -41.849060
v 48.031326 -1.044122 -58.493576
v 51.360245 -1.044122 -68.718063
v 55.164719 -1.044122 -81.558121
v 53.975815 -1.044122 -89.880386
v 46.366867 -1.044122 -100.104874
v 40.184616 -1.044122 -108.427109
v 34.240158 -1.044122 -111.280472
vt 0.883426 0.574318
vt 0.882160 0.571470
vt 0.885641 0.570521
vt 0.880578 0.578747
vt 0.878047 0.575583
vt 0.881844 0.574951
vt 0.653101 0.546160
vt 0.658479 0.548375
vt 0.651519 0.552171
vt 0.874884 0.542047
vt 0.886273 0.563561
vt 0.888804 0.546793
vt 0.654999 0.561030
vt 0.667971 0.552171
vt 0.897663 0.529392
vt 0.869505 0.483833
vt 0.909053 0.512307
vt 0.656581 0.565459
vt 0.913798 0.508827
vt 0.876782 0.729977
vt 0.869822 0.738203
vt 0.872985 0.721118
vt 0.866658 0.450297
vt 0.919810 0.506612
vt 0.921075 0.505980
vt 0.922341 0.503449
vt 0.941324 0.468647
vt 0.947651 0.438907
vt 0.943855 0.433212
vt 0.940058 0.423721
vt 0.931199 0.417393
vt 0.900194 0.404738
vt 0.866025 0.444602
vt 0.783133 0.392715
vt 0.840082 0.440172
vt 0.755925 0.433212
vt 0.739473 0.393981
vt 0.729032 0.436692
vt 0.714162 0.402207
vt 0.682208 0.429732
vt 0.714795 0.445867
vt 0.707835 0.454410
vt 0.666072 0.467381
vt 0.707202 0.466748
vt 0.670502 0.543313
vt 0.710366 0.504714
vt 0.715428 0.535719
vt 0.671135 0.551855
vt 0.721755 0.557866
vt 0.725868 0.577482
vt 0.845777 0.685367
vt 0.846409 0.686949
vt 0.844511 0.685051
vt 0.659112 0.577165
vt 0.672400 0.593933
vt 0.680626 0.604058
vt 0.726818 0.581911
vt 0.727134 0.582860
vt 0.685055 0.626204
vt 0.694547 0.670498
vt 0.728716 0.583177
vt 0.729665 0.585075
vt 0.732512 0.588871
vt 0.735043 0.590137
vt 0.741371 0.597097
vt 0.746433 0.602476
vt 0.759721 0.615447
vt 0.790726 0.642023
vt 0.713530 0.776169
vt 0.700874 0.721118
vt 0.719857 0.779649
vt 0.727450 0.778700
vt 0.735360 0.774903
vt 0.743586 0.763830
vt 0.753710 0.750225
vt 0.755292 0.739152
vt 0.750230 0.722068
vt 0.745800 0.708463
vt 0.738840 0.686317
vt 0.735043 0.664170
vt 0.756241 0.681887
vt 0.812873 0.660373
vt 0.794207 0.721751
vt 0.831223 0.675876
vt 0.812873 0.745163
vt 0.857166 0.699921
vt 0.858432 0.748327
vt 0.839449 0.759084
vt 0.817619 0.752756
vt 0.828059 0.760350
vt 0.778064 0.207323
vt 0.780278 0.211120
vt 0.776798 0.210170
vt 0.775216 0.202894
vt 0.776482 0.206690
vt 0.772685 0.206057
vt 0.547739 0.235481
vt 0.546157 0.229470
vt 0.553117 0.233266
vt 0.769521 0.239594
vt 0.780911 0.218080
vt 0.783442 0.234848
vt 0.549637 0.220611
vt 0.562609 0.229470
vt 0.792301 0.252249
vt 0.764143 0.297808
vt 0.803691 0.269334
vt 0.551219 0.216182
vt 0.808436 0.272814
vt 0.771420 0.051664
vt 0.767623 0.060522
vt 0.764459 0.043438
vt 0.740415 0.096273
vt 0.739149 0.096590
vt 0.741047 0.094692
vt 0.761296 0.331344
vt 0.814448 0.275028
vt 0.815713 0.275661
vt 0.816979 0.278192
vt 0.835961 0.312994
vt 0.842289 0.342734
vt 0.838493 0.348429
vt 0.834696 0.357920
vt 0.825837 0.364248
vt 0.794832 0.376903
vt 0.760663 0.337039
vt 0.677771 0.388925
vt 0.734720 0.341468
vt 0.650562 0.348429
vt 0.634111 0.387660
vt 0.623670 0.344949
vt 0.608800 0.379434
vt 0.576846 0.351909
vt 0.609433 0.335773
vt 0.602473 0.327231
vt 0.560710 0.314260
vt 0.601840 0.314892
vt 0.565140 0.238328
vt 0.605004 0.276927
vt 0.610066 0.245921
vt 0.565772 0.229786
vt 0.616393 0.223775
vt 0.620506 0.204159
vt 0.623354 0.198464
vt 0.621772 0.198781
vt 0.624303 0.196566
vt 0.553750 0.204476
vt 0.567038 0.187707
vt 0.575264 0.177583
vt 0.621455 0.199730
vt 0.579693 0.155437
vt 0.627150 0.192769
vt 0.629681 0.191504
vt 0.636009 0.184544
vt 0.641071 0.179165
vt 0.589185 0.111143
vt 0.654359 0.166194
vt 0.685364 0.139618
vt 0.751804 0.081720
vt 0.753070 0.033314
vt 0.734087 0.022557
vt 0.722697 0.021291
vt 0.712257 0.028884
vt 0.707511 0.036477
vt 0.688845 0.059890
vt 0.725861 0.105765
vt 0.650879 0.099754
vt 0.707511 0.121267
vt 0.629681 0.117471
vt 0.633478 0.095324
vt 0.595512 0.060522
vt 0.640438 0.073178
vt 0.644868 0.059573
vt 0.608167 0.005472
vt 0.649930 0.042489
vt 0.648348 0.031415
vt 0.638224 0.017811
vt 0.629998 0.006738
vt 0.622088 0.002941
vt 0.614495 0.001992
vn 0.000000 1.000000 0.000000
vn 0.000000 1.000000 -0.000000
vn 0.000000 1.000000 -0.000000
vn 0.000000 1.000000 0.000000
vn 0.000000 1.000000 0.000000
vn 0.000000 1.000000 0.000000
vn 0.000000 1.000000 -0.000000
vn 0.000000 1.000000 -0.000000
vn 0.000000 1.000000 -0.000000
vn 0.000000 1.000000 0.000000
vn 0.000000 1.000000 0.000000
vn 0.000000 1.000000 0.000000
vn 0.000000 1.000000 0.000000
vn 0.000000 1.000000 0.000000
vn 0.000000 1.000000 -0.000000
vn 0.000000 1.000000 -0.000000
vn 0.000000 1.000000 0.000000
vn 0.000000 1.000000 0.000000
vn 0.000000 1.000000 -0.000000
vn 0.000000 1.000000 -0.000000
vn 0.000000 1.000000 -0.000000
vn 0.000000 1.000000 -0.000000
vn 0.000000 1.000000 -0.000000
vn 0.000000 1.000000 0.000000
vn 0.000000 1.000000 0.000000
vn 0.000000 1.000000 -0.000000
vn 0.000000 1.000000 -0.000000
vn 0.000000 1.000000 -0.000000
vn 0.000000 1.000000 -0.000000
vn 0.000000 1.000000 -0.000000
vn 0.000000 1.000000 0.000000
vn 0.000000 1.000000 0.000000
vn 0.000000 1.000000 -0.000000
vn 0.000000 1.000000 0.000000
vn 0.000000 1.000000 0.000000
vn 0.000000 1.000000 0.000000
vn 0.000000 1.000000 0.000000
vn 0.000000 1.000000 0.000000
vn 0.000000 1.000000 -0.000000
vn 0.000000 1.000000 0.000000
vn 0.000000 1.000000 0.000000
vn 0.000000 1.000000 0.000000
vn 0.000000 1.000000 0.000000
vn 0.000000 1.000000 0.000000
vn 0.000000 1.000000 0.000000
vn 0.000000 1.000000 -0.000000
vn 0.000000 1.000000 0.000000
vn 0.000000 1.000000 0.000000
vn 0.000000 1.000000 0.000000
vn 0.000000 1.000000 0.000000
vn 0.000000 1.000000 0.000000
vn 0.000000 1.000000 -0.000000
vn 0.000000 1.000000 -0.000000
vn 0.000000 1.000000 0.000000
vn 0.000000 1.000000 -0.000000
vn 0.000000 1.000000 0.000000
vn 0.000000 1.000000 0.000000
vn 0.000000 1.000000 -0.000000
vn 0.000000 1.000000 0.000000
vn 0.000000 1.000000 0.000000
vn 0.000000 1.000000 -0.000000
vn 0.000000 1.000000 0.000000
vn 0.000000 1.000000 0.000000
vn 0.000000 1.000000 -0.000000
vn 0.000000 1.000000 -0.000000
vn 0.000000 1.000000 0.000000
vn 0.000000 1.000000 0.000000
vn 0.000000 1.000000 -0.000000
vn 0.000000 1.000000 0.000000
vn 0.000000 1.000000 -0.000000
vn 0.000000 1.000000 -0.000000
vn 0.000000 1.000000 0.000000
vn 0.000000 1.000000 0.000000
vn 0.000000 1.000000 -0.000000
vn 0.000000 1.000000 -0.000000
vn 0.000000 1.000000 0.000000
vn 0.000000 1.000000 -0.000000
vn 0.000000 1.000000 -0.000000
vn 0.000000 1.000000 0.000000
vn 0.000000 1.000000 0.000000
vn 0.000000 1.000000 -0.000000
vn 0.000000 1.000000 -0.000000
vn 0.000000 1.000000 0.000000
vn 0.000000 1.000000 -0.000000
vn 0.000000 1.000000 0.000000
vn 0.000000 1.000000 0.000000
vn 0.000000 1.000000 0.000000
vn 0.000000 1.000000 -0.000000
vn 0.000000 1.000000 0.000000
vn 0.000000 1.000000 -0.000000
vn 0.000000 -1.000000 0.000000
vn 0.000000 -1.000000 -0.000000
vn 0.000000 -1.000000 -0.000000
vn 0.000000 -1.000000 0.000000
vn 0.000000 -1.000000 0.000000
vn 0.000000 -1.000000 0.000000
vn 0.000000 -1.000000 0.000000
vn 0.000000 -1.000000 0.000000
vn 0.000000 -1.000000 0.000000
vn 0.000000 -1.000000 0.000000
vn 0.000000 -1.000000 0.000000
vn 0.000000 -1.000000 0.000000
vn 0.000000 -1.000000 0.000000
vn 0.000000 -1.000000 0.000000
vn 0.000000 -1.000000 -0.000000
vn 0.000000 -1.000000 -0.000000
vn 0.000000 -1.000000 0.000000
vn 0.000000 -1.000000 0.000000
vn 0.000000 -1.000000 0.000000
vn 0.000000 -1.000000 -0.000000
vn 0.000000 -1.000000 -0.000000
vn 0.000000 -1.000000 0.000000
vn 0.000000 -1.000000 0.000000
vn 0.000000 -1.000000 0.000000
vn 0.000000 -1.000000 0.000000
vn 0.000000 -1.000000 0.000000
vn 0.000000 -1.000000 0.000000
vn 0.000000 -1.000000 0.000000
vn 0.000000 -1.000000 0.000000
vn 0.000000 -1.000000 0.000000
vn 0.000000 -1.000000 0.000000
vn 0.000000 -1.000000 0.000000
vn 0.000000 -1.000000 0.000000
vn 0.000000 -1.000000 0.000000
vn 0.000000 -1.000000 0.000000
vn 0.000000 -1.000000 -0.000000
vn 0.000000 -1.000000 -0.000000
vn 0.000000 -1.000000 0.000000
vn 0.000000 -1.000000 0.000000
vn 0.000000 -1.000000 0.000000
vn 0.000000 -1.000000 0.000000
vn 0.000000 -1.000000 -0.000000
vn 0.000000 -1.000000 -0.000000
vn 0.000000 -1.000000 0.000000
vn 0.000000 -1.000000 -0.000000
vn 0.000000 -1.000000 -0.000000
vn 0.000000 -1.000000 -0.000000
vn 0.000000 -1.000000 -0.000000
vn 0.000000 -1.000000 -0.000000
vn 0.000000 -1.000000 -0.000000
vn 0.000000 -1.000000 -0.000000
vn 0.000000 -1.000000 -0.000000
vn 0.000000 -1.000000 0.000000
vn 0.000000 -1.000000 -0.000000
vn 0.000000 -1.000000 0.000000
vn 0.000000 -1.000000 0.000000
vn 0.000000 -1.000000 0.000000
vn 0.000000 -1.000000 0.000000
vn 0.000000 -1.000000 0.000000
vn 0.000000 -1.000000 0.000000
vn 0.000000 -1.000000 -0.000000
vn 0.000000 -1.000000 -0.000000
vn 0.000000 -1.000000 0.000000
vn 0.000000 -1.000000 -0.000000
vn 0.000000 -1.000000 -0.000000
vn 0.000000 -1.000000 -0.000000
vn 0.000000 -1.000000 -0.000000
vn 0.000000 -1.000000 -0.000000
vn 0.000000 -1.000000 0.000000
vn 0.000000 -1.000000 0.000000
vn 0.000000 -1.000000 0.000000
vn 0.000000 -1.000000 0.000000
vn 0.000000 -1.000000 -0.000000
vn 0.000000 -1.000000 0.000000
vn 0.000000 -1.000000 0.000000
vn 0.000000 -1.000000 0.000000
vn 0.000000 -1.000000 -0.000000
vn 0.000000 -1.000000 0.000000
vn 0.000000 -1.000000 0.000000
vn 0.000000 -1.000000 -0.000000
vn 0.000000 -1.000000 0.000000
vn 0.000000 -1.000000 -0.000000
vn 0.000000 -1.000000 -0.000000
vn 0.000000 -1.000000 0.000000
vn 0.000000 -1.000000 0.000000
vn 0.000000 -1.000000 -0.000000
vn 0.000000 -1.000000 0.000000
vn 0.000000 -1.000000 -0.000000
vn 0.000000 -1.000000 -0.000000
vn 0.000000 -1.000000 0.000000
s 1
g l3
f 201/165/165 202/166/166 200/167/167
f 204/168/168 205/169/169 203/170/170
f 176/171/171 177/172/172 175/173/173
f 205/169/169 206/174/174 203/170/170
f 203/170/170 206/174/174 202/166/166
f 202/166/166 206/174/174 200/167/167
f 200/167/167 206/174/174 199/175/175
f 199/175/175 206/174/174 198/176/176
f 175/173/173 177/172/172 174/177/177
f 177/172/172 178/178/178 174/177/177
f 198/176/176 206/174/174 197/179/179
f 206/174/174 207/180/180 197/179/179
f 197/179/179 207/180/180 196/181/181
f 174/177/177 178/178/178 173/182/182
f 196/181/181 207/180/180 195/183/183
f 237/184/184 238/185/185 236/186/186
f 207/180/180 208/187/187 195/183/183
f 195/183/183 208/187/187 194/188/188
f 194/188/188 208/187/187 193/189/189
f 193/189/189 208/187/187 192/190/190
f 192/190/190 208/187/187 191/191/191
f 191/191/191 208/187/187 190/192/192
f 190/192/192 208/187/187 189/193/193
f 189/193/193 208/187/187 188/194/194
f 188/194/194 208/187/187 187/195/195
f 187/195/195 208/187/187 186/196/196
f 208/187/187 209/197/197 186/196/196
f 186/196/196 209/197/197 185/198/198
f 209/197/197 210/199/199 185/198/198
f 210/199/199 211/200/200 185/198/198
f 185/198/198 211/200/200 184/201/201
f 211/200/200 212/202/202 184/201/201
f 184/201/201 212/202/202 183/203/203
f 183/203/203 212/202/202 182/204/204
f 212/202/202 213/205/205 182/204/204
f 213/205/205 214/206/206 182/204/204
f 182/204/204 214/206/206 181/207/207
f 214/206/206 215/208/208 181/207/207
f 181/207/207 215/208/208 180/209/209
f 215/208/208 216/210/210 180/209/209
f 216/210/210 217/211/211 180/209/209
f 180/209/209 217/211/211 179/212/212
f 217/211/211 218/213/213 179/212/212
f 218/213/213 219/214/214 179/212/212
f 233/215/215 234/216/216 232/217/217
f 173/182/182 178/178/178 172/218/218
f 178/178/178 179/212/212 172/218/218
f 179/212/212 219/214/214 172/218/218
f 172/218/218 219/214/214 171/219/219
f 171/219/219 219/214/214 170/220/220
f 219/214/214 220/221/221 170/220/220
f 220/221/221 221/222/222 170/220/220
f 170/220/220 221/222/222 169/223/223
f 169/223/223 221/222/222 168/224/224
f 221/222/222 222/225/225 168/224/224
f 222/225/225 223/226/226 168/224/224
f 223/226/226 224/227/227 168/224/224
f 224/227/227 225/228/228 168/224/224
f 225/228/228 226/229/229 168/224/224
f 226/229/229 227/230/230 168/224/224
f 227/230/230 228/231/231 168/224/224
f 228/231/231 229/232/232 168/224/224
f 166/233/233 167/234/234 165/235/235
f 165/235/235 167/234/234 254/236/236
f 254/236/236 167/234/234 253/237/237
f 253/237/237 167/234/234 252/238/238
f 252/238/238 167/234/234 251/239/239
f 251/239/239 167/234/234 250/240/240
f 250/240/240 167/234/234 249/241/241
f 249/241/241 167/234/234 248/242/242
f 167/234/234 168/224/224 248/242/242
f 248/242/242 168/224/224 247/243/243
f 247/243/243 168/224/224 246/244/244
f 168/224/224 229/232/232 246/244/244
f 246/244/244 229/232/232 245/245/245
f 229/232/232 230/246/246 245/245/245
f 245/245/245 230/246/246 244/247/247
f 230/246/246 231/248/248 244/247/247
f 231/248/248 232/217/217 244/247/247
f 244/247/247 232/217/217 243/249/249
f 232/217/217 234/216/216 243/249/249
f 234/216/216 235/250/250 243/249/249
f 235/250/250 236/186/186 243/249/249
f 236/186/186 238/185/185 243/249/249
f 238/185/185 239/251/251 243/249/249
f 239/251/251 240/252/252 243/249/249
f 243/249/249 240/252/252 242/253/253
f 240/252/252 241/254/254 242/253/253
s 7
f 291/255/255 290/256/256 292/257/257
f 294/258/258 293/259/259 295/260/260
f 266/261/261 265/262/262 267/263/263
f 295/260/260 293/259/259 296/264/264
f 293/259/259 292/257/257 296/264/264
f 292/257/257 290/256/256 296/264/264
f 290/256/256 289/265/265 296/264/264
f 289/265/265 288/266/266 296/264/264
f 265/262/262 264/267/267 267/263/263
f 267/263/263 264/267/267 268/268/268
f 288/266/266 287/269/269 296/264/264
f 296/264/264 287/269/269 297/270/270
f 287/269/269 286/271/271 297/270/270
f 264/267/267 263/272/272 268/268/268
f 286/271/271 285/273/273 297/270/270
f 327/274/274 326/275/275 328/276/276
f 323/277/277 322/278/278 324/279/279
f 297/270/270 285/273/273 298/280/280
f 285/273/273 284/281/281 298/280/280
f 284/281/281 283/282/282 298/280/280
f 283/282/282 282/283/283 298/280/280
f 282/283/283 281/284/284 298/280/280
f 281/284/284 280/285/285 298/280/280
f 280/285/285 279/286/286 298/280/280
f 279/286/286 278/287/287 298/280/280
f 278/287/287 277/288/288 298/280/280
f 277/288/288 276/289/289 298/280/280
f 298/280/280 276/289/289 299/290/290
f 276/289/289 275/291/291 299/290/290
f 299/290/290 275/291/291 300/292/292
f 300/292/292 275/291/291 301/293/293
f 275/291/291 274/294/294 301/293/293
f 301/293/293 274/294/294 302/295/295
f 274/294/294 273/296/296 302/295/295
f 273/296/296 272/297/297 302/295/295
f 302/295/295 272/297/297 303/298/298
f 303/298/298 272/297/297 304/299/299
f 272/297/297 271/300/300 304/299/299
f 304/299/299 271/300/300 305/301/301
f 271/300/300 270/302/302 305/301/301
f 305/301/301 270/302/302 306/303/303
f 306/303/303 270/302/302 307/304/304
f 270/302/302 269/305/305 307/304/304
f 307/304/304 269/305/305 308/306/306
f 308/306/306 269/305/305 309/307/307
f 312/308/308 311/309/309 313/310/310
f 263/272/272 262/311/311 268/268/268
f 268/268/268 262/311/311 269/305/305
f 269/305/305 262/311/311 309/307/307
f 262/311/311 261/312/312 309/307/307
f 261/312/312 260/313/313 309/307/307
f 309/307/307 260/313/313 310/314/314
f 310/314/314 260/313/313 311/309/309
f 260/313/313 259/315/315 311/309/309
f 311/309/309 259/315/315 313/310/310
f 313/310/310 259/315/315 314/316/316
f 314/316/316 259/315/315 315/317/317
f 315/317/317 259/315/315 316/318/318
f 316/318/318 259/315/315 317/319/319
f 259/315/315 258/320/320 317/319/319
f 317/319/319 258/320/320 318/321/321
f 318/321/321 258/320/320 319/322/322
f 326/275/275 325/323/323 328/276/276
f 328/276/276 325/323/323 329/324/324
f 329/324/324 325/323/323 330/325/325
f 330/325/325 325/323/323 331/326/326
f 331/326/326 325/323/323 332/327/327
f 332/327/327 325/323/323 333/328/328
f 333/328/328 325/323/323 334/329/329
f 325/323/323 324/279/279 334/329/329
f 324/279/279 322/278/278 334/329/329
f 322/278/278 321/330/330 334/329/329
f 334/329/329 321/330/330 335/331/331
f 321/330/330 320/332/332 335/331/331
f 320/332/332 319/322/322 335/331/331
f 335/331/331 319/322/322 336/333/333
f 319/322/322 258/320/320 336/333/333
f 336/333/333 258/320/320 337/334/334
f 258/320/320 257/335/335 337/334/334
f 337/334/334 257/335/335 338/336/336
f 338/336/336 257/335/335 339/337/337
f 257/335/335 256/338/338 339/337/337
f 339/337/337 256/338/338 340/339/339
f 340/339/339 256/338/338 341/340/340
f 341/340/340 256/338/338 342/341/341
f 342/341/341 256/338/338 343/342/342
f 343/342/342 256/338/338 344/343/343
f 344/343/343 256/338/338 255/344/344
