# This file uses centimeters as units for non-parametric coordinates.

g default
v -222.815201 0.000000 215.231735
v -112.657333 0.000000 166.543320
v -147.973022 0.000000 156.611633
v -71.129761 0.000000 72.462143
v -196.689468 0.000000 150.363846
v -168.280304 0.000000 153.390747
v -222.815201 -1.198175 215.231735
v -112.657333 -1.198175 166.543320
v -147.973022 -1.198175 156.611633
v -71.129761 -1.198175 72.462143
v -196.689468 -1.198175 150.363846
v -168.280304 -1.198175 153.390747
vt 0.000000 0.000000
vt 0.706779 0.000000
vt 0.353652 0.543878
vt 0.957961 0.747767
vt 0.013663 1.000000
vt 0.379401 0.270100
vt 0.706779 0.000000
vt 0.000000 0.000000
vt 0.353652 0.543878
vt 0.379401 0.270100
vt 0.013663 1.000000
vt 0.957961 0.747767
vn 0.000000 1.000000 0.000000
vn 0.000000 1.000000 0.000000
vn 0.000000 1.000000 0.000000
vn 0.000000 1.000000 -0.000000
vn 0.000000 1.000000 0.000000
vn 0.000000 1.000000 0.000000
vn 0.000000 1.000000 0.000000
vn 0.000000 1.000000 0.000000
vn 0.000000 -1.000000 0.000000
vn 0.000000 -1.000000 0.000000
vn 0.000000 -1.000000 0.000000
vn 0.000000 -1.000000 0.000000
vn 0.000000 -1.000000 -0.000000
vn 0.000000 -1.000000 -0.000000
vn 0.000000 -1.000000 -0.000000
vn 0.000000 -1.000000 -0.000000
s 1
g l3
f 2/2/1 3/3/2 1/1/3
f 1/1/3 3/3/2 6/6/4
s 2
f 5/5/5 6/6/6 4/4/7
f 6/6/6 3/3/8 4/4/7
s 3
f 8/7/9 7/8/10 9/9/11
f 7/8/10 12/10/12 9/9/11
s 4
f 11/11/13 10/12/14 12/10/15
f 12/10/15 10/12/14 9/9/16
g default
v 222.815201 0.000000 -215.231735
v 112.657333 0.000000 -166.543320
v 147.973022 0.000000 -156.611633
v 71.129761 0.000000 -72.462143
v 196.689468 0.000000 -150.363846
v 168.280304 0.000000 -153.390747
v 222.815201 -1.198175 -215.231735
v 112.657333 -1.198175 -166.543320
v 147.973022 -1.198175 -156.611633
v 71.129761 -1.198175 -72.462143
v 196.689468 -1.198175 -150.363846
v 168.280304 -1.198175 -153.390747
vt 0.000000 0.000000
vt 0.706779 0.000000
vt 0.353652 0.543878
vt 0.957961 0.747767
vt 0.013663 1.000000
vt 0.379401 0.270100
vt 0.706779 0.000000
vt 0.000000 0.000000
vt 0.353652 0.543878
vt 0.379401 0.270100
vt 0.013663 1.000000
vt 0.957961 0.747767
vn 0.000000 1.000000 -0.000000
vn 0.000000 1.000000 -0.000000
vn 0.000000 1.000000 -0.000000
vn 0.000000 1.000000 0.000000
vn 0.000000 1.000000 0.000000
vn 0.000000 1.000000 0.000000
vn 0.000000 1.000000 0.000000
vn 0.000000 1.000000 0.000000
vn 0.000000 -1.000000 -0.000000
vn 0.000000 -1.000000 -0.000000
vn 0.000000 -1.000000 -0.000000
vn 0.000000 -1.000000 -0.000000
vn 0.000000 -1.000000 0.000000
vn 0.000000 -1.000000 0.000000
vn 0.000000 -1.000000 0.000000
vn 0.000000 -1.000000 0.000000
s 1
g l1
f 14/14/17 15/15/18 13/13/19
f 13/13/19 15/15/18 18/18/20
s 2
f 17/17/21 18/18/22 16/16/23
f 18/18/22 15/15/24 16/16/23
s 3
f 20/19/25 19/20/26 21/21/27
f 19/20/26 24/22/28 21/21/27
s 4
f 23/23/29 22/24/30 24/22/31
f 24/22/31 22/24/30 21/21/32
g default
v -215.231735 0.000000 -222.815201
v -166.543320 0.000000 -112.657333
v -156.611633 0.000000 -147.973022
v -72.462143 0.000000 -71.129761
v -150.363846 0.000000 -196.689468
v -153.390747 0.000000 -168.280304
v -215.231735 -1.198175 -222.815201
v -166.543320 -1.198175 -112.657333
v -156.611633 -1.198175 -147.973022
v -72.462143 -1.198175 -71.129761
v -150.363846 -1.198175 -196.689468
v -153.390747 -1.198175 -168.280304
vt 0.000000 0.000000
vt 0.706779 0.000000
vt 0.353652 0.543878
vt 0.957961 0.747767
vt 0.013663 1.000000
vt 0.379401 0.270100
vt 0.706779 0.000000
vt 0.000000 0.000000
vt 0.353652 0.543878
vt 0.379401 0.270100
vt 0.013663 1.000000
vt 0.957961 0.747767
vn 0.000000 1.000000 0.000000
vn 0.000000 1.000000 0.000000
vn 0.000000 1.000000 0.000000
vn 0.000000 1.000000 0.000000
vn 0.000000 1.000000 0.000000
vn 0.000000 1.000000 0.000000
vn 0.000000 1.000000 0.000000
vn 0.000000 1.000000 0.000000
vn 0.000000 -1.000000 0.000000
vn 0.000000 -1.000000 0.000000
vn 0.000000 -1.000000 0.000000
vn 0.000000 -1.000000 0.000000
vn 0.000000 -1.000000 0.000000
vn 0.000000 -1.000000 -0.000000
vn 0.000000 -1.000000 0.000000
vn 0.000000 -1.000000 -0.000000
s 1
g l2
f 26/26/33 27/27/34 25/25/35
f 25/25/35 27/27/34 30/30/36
s 2
f 29/29/37 30/30/38 28/28/39
f 30/30/38 27/27/40 28/28/39
s 3
f 32/31/41 31/32/42 33/33/43
f 31/32/42 36/34/44 33/33/43
s 4
f 35/35/45 34/36/46 36/34/47
f 36/34/47 34/36/46 33/33/48
g default
v 215.231735 0.000000 222.815201
v 166.543320 0.000000 112.657333
v 156.611633 0.000000 147.973022
v 72.462143 0.000000 71.129761
v 150.363846 0.000000 196.689468
v 153.390747 0.000000 168.280304
v 215.231735 -1.198175 222.815201
v 166.543320 -1.198175 112.657333
v 156.611633 -1.198175 147.973022
v 72.462143 -1.198175 71.129761
v 150.363846 -1.198175 196.689468
v 153.390747 -1.198175 168.280304
vt 0.000000 0.000000
vt 0.706779 0.000000
vt 0.353652 0.543878
vt 0.957961 0.747767
vt 0.013663 1.000000
vt 0.379401 0.270100
vt 0.706779 0.000000
vt 0.000000 0.000000
vt 0.353652 0.543878
vt 0.379401 0.270100
vt 0.013663 1.000000
vt 0.957961 0.747767
vn 0.000000 1.000000 0.000000
vn 0.000000 1.000000 0.000000
vn 0.000000 1.000000 0.000000
vn 0.000000 1.000000 0.000000
vn 0.000000 1.000000 0.000000
vn 0.000000 1.000000 0.000000
vn 0.000000 1.000000 0.000000
vn 0.000000 1.000000 0.000000
vn 0.000000 -1.000000 -0.000000
vn 0.000000 -1.000000 -0.000000
vn 0.000000 -1.000000 -0.000000
vn 0.000000 -1.000000 0.000000
vn 0.000000 -1.000000 -0.000000
vn 0.000000 -1.000000 0.000000
vn 0.000000 -1.000000 -0.000000
vn 0.000000 -1.000000 0.000000
s 1
g l4
f 38/38/49 39/39/50 37/37/51
f 37/37/51 39/39/50 42/42/52
s 2
f 41/41/53 42/42/54 40/40/55
f 42/42/54 39/39/56 40/40/55
s 3
f 44/43/57 43/44/58 45/45/59
f 43/44/58 48/46/60 45/45/59
s 4
f 47/47/61 46/48/62 48/46/63
f 48/46/63 46/48/62 45/45/64
