# This file uses centimeters as units for non-parametric coordinates.

g default
v 168.897430 0.000000 -80.276154
v 147.907730 0.000000 -90.704781
v 139.042374 0.000000 -213.369232
v 147.907730 0.000000 -69.847527
v 139.042374 0.000000 -80.276154
v 130.177017 0.000000 -90.704781
v 139.042374 0.000000 -36.609531
v 130.177017 0.000000 -69.847527
v 109.187317 0.000000 -80.276154
v 168.897430 -0.972749 -80.276154
v 147.907730 -0.972749 -90.704781
v 139.042374 -0.972749 -213.369232
v 147.907730 -0.972749 -69.847527
v 139.042374 -0.972749 -80.276154
v 130.177017 -0.972749 -90.704781
v 139.042374 -0.972749 -36.609531
v 130.177017 -0.972749 -69.847527
v 109.187317 -0.972749 -80.276154
vt 0.000000 0.000000
vt 0.500000 0.000000
vt 1.000000 0.000000
vt 0.000000 0.500000
vt 0.500000 0.500000
vt 1.000000 0.500000
vt 0.000000 1.000000
vt 0.500000 1.000000
vt 1.000000 1.000000
vt 0.000000 0.000000
vt 0.000000 0.500000
vt 0.500000 0.000000
vt 0.500000 0.500000
vt 1.000000 0.500000
vt 1.000000 0.000000
vt 0.500000 1.000000
vt 0.000000 1.000000
vt 1.000000 1.000000
vn 0.000000 1.000000 0.000000
vn 0.000000 1.000000 0.000000
vn 0.000000 1.000000 0.000000
vn 0.000000 1.000000 0.000000
vn 0.000000 1.000000 0.000000
vn 0.000000 1.000000 0.000000
vn 0.000000 1.000000 0.000000
vn 0.000000 1.000000 0.000000
vn 0.000000 1.000000 0.000000
vn 0.000000 -1.000000 0.000000
vn 0.000000 -1.000000 0.000000
vn 0.000000 -1.000000 0.000000
vn 0.000000 -1.000000 0.000000
vn 0.000000 -1.000000 0.000000
vn 0.000000 -1.000000 0.000000
vn 0.000000 -1.000000 0.000000
vn 0.000000 -1.000000 0.000000
vn 0.000000 -1.000000 0.000000
s 1
g l3
f 1/1/1 2/2/2 4/4/3
f 4/4/3 2/2/2 5/5/4
f 5/5/4 2/2/2 6/6/5
f 2/2/2 3/3/6 6/6/5
f 5/5/4 8/8/7 4/4/3
f 4/4/3 8/8/7 7/7/8
f 5/5/4 6/6/5 8/8/7
f 8/8/7 6/6/5 9/9/9
s 2
f 10/10/10 13/11/11 11/12/12
f 13/11/11 14/13/13 11/12/12
f 14/13/13 15/14/14 11/12/12
f 11/12/12 15/14/14 12/15/15
f 14/13/13 13/11/11 17/16/16
f 13/11/11 16/17/17 17/16/16
f 14/13/13 17/16/16 15/14/14
f 17/16/16 18/18/18 15/14/14
g default
v 186.407547 0.000000 14.927527
v 173.444244 0.000000 -4.598779
v 227.098846 0.000000 -115.261986
v 163.015610 0.000000 13.464132
v 160.552307 0.000000 0.000000
v 158.089005 0.000000 -13.464132
v 138.718994 0.000000 37.816402
v 147.660370 0.000000 4.598779
v 134.697067 0.000000 -14.927527
v 186.407547 -0.972749 14.927527
v 173.444244 -0.972749 -4.598779
v 227.098846 -0.972749 -115.261986
v 163.015610 -0.972749 13.464132
v 160.552307 -0.972749 0.000000
v 158.089005 -0.972749 -13.464132
v 138.718994 -0.972749 37.816402
v 147.660370 -0.972749 4.598779
v 134.697067 -0.972749 -14.927527
vt 0.000000 0.000000
vt 0.500000 0.000000
vt 1.000000 0.000000
vt 0.000000 0.500000
vt 0.500000 0.500000
vt 1.000000 0.500000
vt 0.000000 1.000000
vt 0.500000 1.000000
vt 1.000000 1.000000
vt 0.000000 0.000000
vt 0.000000 0.500000
vt 0.500000 0.000000
vt 0.500000 0.500000
vt 1.000000 0.500000
vt 1.000000 0.000000
vt 0.500000 1.000000
vt 0.000000 1.000000
vt 1.000000 1.000000
vn 0.000000 1.000000 0.000000
vn 0.000000 1.000000 0.000000
vn 0.000000 1.000000 0.000000
vn 0.000000 1.000000 0.000000
vn 0.000000 1.000000 0.000000
vn 0.000000 1.000000 0.000000
vn 0.000000 1.000000 0.000000
vn 0.000000 1.000000 0.000000
vn 0.000000 1.000000 0.000000
vn 0.000000 -1.000000 0.000000
vn 0.000000 -1.000000 0.000000
vn 0.000000 -1.000000 0.000000
vn 0.000000 -1.000000 -0.000000
vn 0.000000 -1.000000 0.000000
vn 0.000000 -1.000000 0.000000
vn 0.000000 -1.000000 -0.000000
vn 0.000000 -1.000000 0.000000
vn 0.000000 -1.000000 0.000000
s 1
g l4
f 19/19/19 20/20/20 22/22/21
f 22/22/21 20/20/20 23/23/22
f 23/23/22 20/20/20 24/24/23
f 20/20/20 21/21/24 24/24/23
f 23/23/22 26/26/25 22/22/21
f 22/22/21 26/26/25 25/25/26
f 23/23/22 24/24/23 26/26/25
f 26/26/25 24/24/23 27/27/27
s 2
f 28/28/28 31/29/29 29/30/30
f 31/29/29 32/31/31 29/30/30
f 32/31/31 33/32/32 29/30/30
f 29/30/30 33/32/32 30/33/33
f 32/31/31 31/29/29 35/34/34
f 31/29/29 34/35/35 35/34/34
f 32/31/31 35/34/34 33/32/32
f 35/34/34 36/36/36 33/32/32
g default
v 153.969894 0.000000 106.131393
v 152.506500 0.000000 82.739464
v 254.304352 0.000000 13.729614
v 134.443588 0.000000 93.168091
v 139.042374 0.000000 80.276154
v 143.641159 0.000000 67.384216
v 101.225967 0.000000 102.109467
v 125.578239 0.000000 77.812843
v 124.114845 0.000000 54.420918
v 153.969894 -0.972749 106.131393
v 152.506500 -0.972749 82.739464
v 254.304352 -0.972749 13.729614
v 134.443588 -0.972749 93.168091
v 139.042374 -0.972749 80.276154
v 143.641159 -0.972749 67.384216
v 101.225967 -0.972749 102.109467
v 125.578239 -0.972749 77.812843
v 124.114845 -0.972749 54.420918
vt 0.000000 0.000000
vt 0.500000 0.000000
vt 1.000000 0.000000
vt 0.000000 0.500000
vt 0.500000 0.500000
vt 1.000000 0.500000
vt 0.000000 1.000000
vt 0.500000 1.000000
vt 1.000000 1.000000
vt 0.000000 0.000000
vt 0.000000 0.500000
vt 0.500000 0.000000
vt 0.500000 0.500000
vt 1.000000 0.500000
vt 1.000000 0.000000
vt 0.500000 1.000000
vt 0.000000 1.000000
vt 1.000000 1.000000
vn 0.000000 1.000000 0.000000
vn 0.000000 1.000000 0.000000
vn 0.000000 1.000000 0.000000
vn 0.000000 1.000000 0.000000
vn 0.000000 1.000000 0.000000
vn 0.000000 1.000000 0.000000
vn 0.000000 1.000000 0.000000
vn 0.000000 1.000000 0.000000
vn 0.000000 1.000000 0.000000
vn 0.000000 -1.000000 0.000000
vn 0.000000 -1.000000 0.000000
vn 0.000000 -1.000000 -0.000000
vn 0.000000 -1.000000 0.000000
vn 0.000000 -1.000000 -0.000000
vn 0.000000 -1.000000 0.000000
vn 0.000000 -1.000000 0.000000
vn 0.000000 -1.000000 0.000000
vn 0.000000 -1.000000 0.000000
s 1
g l5
f 37/37/37 38/38/38 40/40/39
f 40/40/39 38/38/38 41/41/40
f 41/41/40 38/38/38 42/42/41
f 38/38/38 39/39/42 42/42/41
f 41/41/40 44/44/43 40/40/39
f 40/40/39 44/44/43 43/43/44
f 41/41/40 42/42/41 44/44/43
f 44/44/43 42/42/41 45/45/45
s 2
f 46/46/46 49/47/47 47/48/48
f 49/47/47 50/49/49 47/48/48
f 50/49/49 51/50/50 47/48/48
f 47/48/48 51/50/50 48/51/51
f 50/49/49 49/47/47 53/52/52
f 49/47/47 52/53/53 53/52/52
f 50/49/49 53/52/52 51/50/50
f 53/52/52 54/54/54 51/50/50
g default
v 80.276154 0.000000 168.897430
v 90.704781 0.000000 147.907730
v 213.369232 0.000000 139.042374
v 69.847527 0.000000 147.907730
v 80.276154 0.000000 139.042374
v 90.704781 0.000000 130.177017
v 36.609531 0.000000 139.042374
v 69.847527 0.000000 130.177017
v 80.276154 0.000000 109.187317
v 80.276154 -0.972749 168.897430
v 90.704781 -0.972749 147.907730
v 213.369232 -0.972749 139.042374
v 69.847527 -0.972749 147.907730
v 80.276154 -0.972749 139.042374
v 90.704781 -0.972749 130.177017
v 36.609531 -0.972749 139.042374
v 69.847527 -0.972749 130.177017
v 80.276154 -0.972749 109.187317
vt 0.000000 0.000000
vt 0.500000 0.000000
vt 1.000000 0.000000
vt 0.000000 0.500000
vt 0.500000 0.500000
vt 1.000000 0.500000
vt 0.000000 1.000000
vt 0.500000 1.000000
vt 1.000000 1.000000
vt 0.000000 0.000000
vt 0.000000 0.500000
vt 0.500000 0.000000
vt 0.500000 0.500000
vt 1.000000 0.500000
vt 1.000000 0.000000
vt 0.500000 1.000000
vt 0.000000 1.000000
vt 1.000000 1.000000
vn 0.000000 1.000000 0.000000
vn 0.000000 1.000000 0.000000
vn 0.000000 1.000000 0.000000
vn 0.000000 1.000000 0.000000
vn 0.000000 1.000000 0.000000
vn 0.000000 1.000000 0.000000
vn 0.000000 1.000000 0.000000
vn 0.000000 1.000000 0.000000
vn 0.000000 1.000000 0.000000
vn 0.000000 -1.000000 0.000000
vn 0.000000 -1.000000 0.000000
vn 0.000000 -1.000000 0.000000
vn 0.000000 -1.000000 0.000000
vn 0.000000 -1.000000 0.000000
vn 0.000000 -1.000000 0.000000
vn 0.000000 -1.000000 0.000000
vn 0.000000 -1.000000 0.000000
vn 0.000000 -1.000000 0.000000
s 1
g l6
f 55/55/55 56/56/56 58/58/57
f 58/58/57 56/56/56 59/59/58
f 59/59/58 56/56/56 60/60/59
f 56/56/56 57/57/60 60/60/59
f 59/59/58 62/62/61 58/58/57
f 58/58/57 62/62/61 61/61/62
f 59/59/58 60/60/59 62/62/61
f 62/62/61 60/60/59 63/63/63
s 2
f 64/64/64 67/65/65 65/66/66
f 67/65/65 68/67/67 65/66/66
f 68/67/67 69/68/68 65/66/66
f 65/66/66 69/68/68 66/69/69
f 68/67/67 67/65/65 71/70/70
f 67/65/65 70/71/71 71/70/70
f 68/67/67 71/70/70 69/68/68
f 71/70/70 72/72/72 69/68/68
g default
v -168.897430 0.000000 80.276154
v -147.907730 0.000000 90.704781
v -139.042374 0.000000 213.369232
v -147.907730 0.000000 69.847527
v -139.042374 0.000000 80.276154
v -130.177017 0.000000 90.704781
v -139.042374 0.000000 36.609531
v -130.177017 0.000000 69.847527
v -109.187317 0.000000 80.276154
v -168.897430 -0.972749 80.276154
v -147.907730 -0.972749 90.704781
v -139.042374 -0.972749 213.369232
v -147.907730 -0.972749 69.847527
v -139.042374 -0.972749 80.276154
v -130.177017 -0.972749 90.704781
v -139.042374 -0.972749 36.609531
v -130.177017 -0.972749 69.847527
v -109.187317 -0.972749 80.276154
vt 0.000000 0.000000
vt 0.500000 0.000000
vt 1.000000 0.000000
vt 0.000000 0.500000
vt 0.500000 0.500000
vt 1.000000 0.500000
vt 0.000000 1.000000
vt 0.500000 1.000000
vt 1.000000 1.000000
vt 0.000000 0.000000
vt 0.000000 0.500000
vt 0.500000 0.000000
vt 0.500000 0.500000
vt 1.000000 0.500000
vt 1.000000 0.000000
vt 0.500000 1.000000
vt 0.000000 1.000000
vt 1.000000 1.000000
vn 0.000000 1.000000 0.000000
vn 0.000000 1.000000 0.000000
vn 0.000000 1.000000 0.000000
vn 0.000000 1.000000 0.000000
vn 0.000000 1.000000 0.000000
vn 0.000000 1.000000 0.000000
vn 0.000000 1.000000 0.000000
vn 0.000000 1.000000 0.000000
vn 0.000000 1.000000 0.000000
vn 0.000000 -1.000000 0.000000
vn 0.000000 -1.000000 0.000000
vn 0.000000 -1.000000 0.000000
vn 0.000000 -1.000000 0.000000
vn 0.000000 -1.000000 0.000000
vn 0.000000 -1.000000 0.000000
vn 0.000000 -1.000000 0.000000
vn 0.000000 -1.000000 0.000000
vn 0.000000 -1.000000 0.000000
s 1
g l9
f 73/73/73 74/74/74 76/76/75
f 76/76/75 74/74/74 77/77/76
f 77/77/76 74/74/74 78/78/77
f 74/74/74 75/75/78 78/78/77
f 77/77/76 80/80/79 76/76/75
f 76/76/75 80/80/79 79/79/80
f 77/77/76 78/78/77 80/80/79
f 80/80/79 78/78/77 81/81/81
s 2
f 82/82/82 85/83/83 83/84/84
f 85/83/83 86/85/85 83/84/84
f 86/85/85 87/86/86 83/84/84
f 83/84/84 87/86/86 84/87/87
f 86/85/85 85/83/83 89/88/88
f 85/83/83 88/89/89 89/88/88
f 86/85/85 89/88/88 87/86/86
f 89/88/88 90/90/90 87/86/86
g default
v 106.131393 0.000000 -153.969894
v 82.739464 0.000000 -152.506500
v 13.729614 0.000000 -254.304352
v 93.168091 0.000000 -134.443588
v 80.276154 0.000000 -139.042374
v 67.384216 0.000000 -143.641159
v 102.109467 0.000000 -101.225967
v 77.812843 0.000000 -125.578239
v 54.420918 0.000000 -124.114845
v 106.131393 -0.972749 -153.969894
v 82.739464 -0.972749 -152.506500
v 13.729614 -0.972749 -254.304352
v 93.168091 -0.972749 -134.443588
v 80.276154 -0.972749 -139.042374
v 67.384216 -0.972749 -143.641159
v 102.109467 -0.972749 -101.225967
v 77.812843 -0.972749 -125.578239
v 54.420918 -0.972749 -124.114845
vt 0.000000 0.000000
vt 0.500000 0.000000
vt 1.000000 0.000000
vt 0.000000 0.500000
vt 0.500000 0.500000
vt 1.000000 0.500000
vt 0.000000 1.000000
vt 0.500000 1.000000
vt 1.000000 1.000000
vt 0.000000 0.000000
vt 0.000000 0.500000
vt 0.500000 0.000000
vt 0.500000 0.500000
vt 1.000000 0.500000
vt 1.000000 0.000000
vt 0.500000 1.000000
vt 0.000000 1.000000
vt 1.000000 1.000000
vn 0.000000 1.000000 0.000000
vn 0.000000 1.000000 0.000000
vn 0.000000 1.000000 0.000000
vn 0.000000 1.000000 0.000000
vn 0.000000 1.000000 0.000000
vn 0.000000 1.000000 0.000000
vn 0.000000 1.000000 0.000000
vn 0.000000 1.000000 0.000000
vn 0.000000 1.000000 0.000000
vn 0.000000 -1.000000 -0.000000
vn 0.000000 -1.000000 -0.000000
vn 0.000000 -1.000000 -0.000000
vn 0.000000 -1.000000 -0.000000
vn 0.000000 -1.000000 -0.000000
vn 0.000000 -1.000000 0.000000
vn 0.000000 -1.000000 -0.000000
vn 0.000000 -1.000000 -0.000000
vn 0.000000 -1.000000 0.000000
s 1
g l2
f 91/91/91 92/92/92 94/94/93
f 94/94/93 92/92/92 95/95/94
f 95/95/94 92/92/92 96/96/95
f 92/92/92 93/93/96 96/96/95
f 95/95/94 98/98/97 94/94/93
f 94/94/93 98/98/97 97/97/98
f 95/95/94 96/96/95 98/98/97
f 98/98/97 96/96/95 99/99/99
s 2
f 100/100/100 103/101/101 101/102/102
f 103/101/101 104/103/103 101/102/102
f 104/103/103 105/104/104 101/102/102
f 101/102/102 105/104/104 102/105/105
f 104/103/103 103/101/101 107/106/106
f 103/101/101 106/107/107 107/106/106
f 104/103/103 107/106/106 105/104/104
f 107/106/106 108/108/108 105/104/104
g default
v -186.407547 0.000000 -14.927527
v -173.444244 0.000000 4.598779
v -227.098846 0.000000 115.261986
v -163.015610 0.000000 -13.464132
v -160.552307 0.000000 -0.000000
v -158.089005 0.000000 13.464132
v -138.718994 0.000000 -37.816402
v -147.660370 0.000000 -4.598779
v -134.697067 0.000000 14.927527
v -186.407547 -0.972749 -14.927527
v -173.444244 -0.972749 4.598779
v -227.098846 -0.972749 115.261986
v -163.015610 -0.972749 -13.464132
v -160.552307 -0.972749 -0.000000
v -158.089005 -0.972749 13.464132
v -138.718994 -0.972749 -37.816402
v -147.660370 -0.972749 -4.598779
v -134.697067 -0.972749 14.927527
vt 0.000000 0.000000
vt 0.500000 0.000000
vt 1.000000 0.000000
vt 0.000000 0.500000
vt 0.500000 0.500000
vt 1.000000 0.500000
vt 0.000000 1.000000
vt 0.500000 1.000000
vt 1.000000 1.000000
vt 0.000000 0.000000
vt 0.000000 0.500000
vt 0.500000 0.000000
vt 0.500000 0.500000
vt 1.000000 0.500000
vt 1.000000 0.000000
vt 0.500000 1.000000
vt 0.000000 1.000000
vt 1.000000 1.000000
vn 0.000000 1.000000 0.000000
vn 0.000000 1.000000 0.000000
vn 0.000000 1.000000 0.000000
vn 0.000000 1.000000 0.000000
vn 0.000000 1.000000 0.000000
vn 0.000000 1.000000 0.000000
vn 0.000000 1.000000 0.000000
vn 0.000000 1.000000 0.000000
vn 0.000000 1.000000 0.000000
vn 0.000000 -1.000000 0.000000
vn 0.000000 -1.000000 0.000000
vn 0.000000 -1.000000 -0.000000
vn 0.000000 -1.000000 0.000000
vn 0.000000 -1.000000 -0.000000
vn 0.000000 -1.000000 -0.000000
vn 0.000000 -1.000000 0.000000
vn 0.000000 -1.000000 0.000000
vn 0.000000 -1.000000 0.000000
s 1
g l10
f 109/109/109 110/110/110 112/112/111
f 112/112/111 110/110/110 113/113/112
f 113/113/112 110/110/110 114/114/113
f 110/110/110 111/111/114 114/114/113
f 113/113/112 116/116/115 112/112/111
f 112/112/111 116/116/115 115/115/116
f 113/113/112 114/114/113 116/116/115
f 116/116/115 114/114/113 117/117/117
s 2
f 118/118/118 121/119/119 119/120/120
f 121/119/119 122/121/121 119/120/120
f 122/121/121 123/122/122 119/120/120
f 119/120/120 123/122/122 120/123/123
f 122/121/121 121/119/119 125/124/124
f 121/119/119 124/125/125 125/124/124
f 122/121/121 125/124/124 123/122/122
f 125/124/124 126/126/126 123/122/122
g default
v -14.927527 0.000000 186.407547
v 4.598779 0.000000 173.444244
v 115.261986 0.000000 227.098846
v -13.464132 0.000000 163.015610
v -0.000000 0.000000 160.552307
v 13.464132 0.000000 158.089005
v -37.816402 0.000000 138.718994
v -4.598779 0.000000 147.660370
v 14.927527 0.000000 134.697067
v -14.927527 -0.972749 186.407547
v 4.598779 -0.972749 173.444244
v 115.261986 -0.972749 227.098846
v -13.464132 -0.972749 163.015610
v -0.000000 -0.972749 160.552307
v 13.464132 -0.972749 158.089005
v -37.816402 -0.972749 138.718994
v -4.598779 -0.972749 147.660370
v 14.927527 -0.972749 134.697067
vt 0.000000 0.000000
vt 0.500000 0.000000
vt 1.000000 0.000000
vt 0.000000 0.500000
vt 0.500000 0.500000
vt 1.000000 0.500000
vt 0.000000 1.000000
vt 0.500000 1.000000
vt 1.000000 1.000000
vt 0.000000 0.000000
vt 0.000000 0.500000
vt 0.500000 0.000000
vt 0.500000 0.500000
vt 1.000000 0.500000
vt 1.000000 0.000000
vt 0.500000 1.000000
vt 0.000000 1.000000
vt 1.000000 1.000000
vn 0.000000 1.000000 0.000000
vn 0.000000 1.000000 0.000000
vn 0.000000 1.000000 0.000000
vn 0.000000 1.000000 0.000000
vn 0.000000 1.000000 0.000000
vn 0.000000 1.000000 0.000000
vn 0.000000 1.000000 0.000000
vn 0.000000 1.000000 0.000000
vn 0.000000 1.000000 0.000000
vn 0.000000 -1.000000 0.000000
vn 0.000000 -1.000000 0.000000
vn 0.000000 -1.000000 0.000000
vn 0.000000 -1.000000 0.000000
vn 0.000000 -1.000000 -0.000000
vn 0.000000 -1.000000 0.000000
vn 0.000000 -1.000000 -0.000000
vn 0.000000 -1.000000 0.000000
vn 0.000000 -1.000000 -0.000000
s 1
g l7
f 127/127/127 128/128/128 130/130/129
f 130/130/129 128/128/128 131/131/130
f 131/131/130 128/128/128 132/132/131
f 128/128/128 129/129/132 132/132/131
f 131/131/130 134/134/133 130/130/129
f 130/130/129 134/134/133 133/133/134
f 131/131/130 132/132/131 134/134/133
f 134/134/133 132/132/131 135/135/135
s 2
f 136/136/136 139/137/137 137/138/138
f 139/137/137 140/139/139 137/138/138
f 140/139/139 141/140/140 137/138/138
f 137/138/138 141/140/140 138/141/141
f 140/139/139 139/137/137 143/142/142
f 139/137/137 142/143/143 143/142/142
f 140/139/139 143/142/142 141/140/140
f 143/142/142 144/144/144 141/140/140
g default
v -80.276154 0.000000 -168.897430
v -90.704781 0.000000 -147.907730
v -213.369232 0.000000 -139.042374
v -69.847527 0.000000 -147.907730
v -80.276154 0.000000 -139.042374
v -90.704781 0.000000 -130.177017
v -36.609531 0.000000 -139.042374
v -69.847527 0.000000 -130.177017
v -80.276154 0.000000 -109.187317
v -80.276154 -0.972749 -168.897430
v -90.704781 -0.972749 -147.907730
v -213.369232 -0.972749 -139.042374
v -69.847527 -0.972749 -147.907730
v -80.276154 -0.972749 -139.042374
v -90.704781 -0.972749 -130.177017
v -36.609531 -0.972749 -139.042374
v -69.847527 -0.972749 -130.177017
v -80.276154 -0.972749 -109.187317
vt 0.000000 0.000000
vt 0.500000 0.000000
vt 1.000000 0.000000
vt 0.000000 0.500000
vt 0.500000 0.500000
vt 1.000000 0.500000
vt 0.000000 1.000000
vt 0.500000 1.000000
vt 1.000000 1.000000
vt 0.000000 0.000000
vt 0.000000 0.500000
vt 0.500000 0.000000
vt 0.500000 0.500000
vt 1.000000 0.500000
vt 1.000000 0.000000
vt 0.500000 1.000000
vt 0.000000 1.000000
vt 1.000000 1.000000
vn 0.000000 1.000000 0.000000
vn 0.000000 1.000000 0.000000
vn 0.000000 1.000000 0.000000
vn 0.000000 1.000000 0.000000
vn 0.000000 1.000000 0.000000
vn 0.000000 1.000000 0.000000
vn 0.000000 1.000000 0.000000
vn 0.000000 1.000000 0.000000
vn 0.000000 1.000000 0.000000
vn 0.000000 -1.000000 0.000000
vn 0.000000 -1.000000 0.000000
vn 0.000000 -1.000000 0.000000
vn 0.000000 -1.000000 0.000000
vn 0.000000 -1.000000 0.000000
vn 0.000000 -1.000000 0.000000
vn 0.000000 -1.000000 0.000000
vn 0.000000 -1.000000 0.000000
vn 0.000000 -1.000000 0.000000
s 1
g l12
f 145/145/145 146/146/146 148/148/147
f 148/148/147 146/146/146 149/149/148
f 149/149/148 146/146/146 150/150/149
f 146/146/146 147/147/150 150/150/149
f 149/149/148 152/152/151 148/148/147
f 148/148/147 152/152/151 151/151/152
f 149/149/148 150/150/149 152/152/151
f 152/152/151 150/150/149 153/153/153
s 2
f 154/154/154 157/155/155 155/156/156
f 157/155/155 158/157/157 155/156/156
f 158/157/157 159/158/158 155/156/156
f 155/156/156 159/158/158 156/159/159
f 158/157/157 157/155/155 161/160/160
f 157/155/155 160/161/161 161/160/160
f 158/157/157 161/160/160 159/158/158
f 161/160/160 162/162/162 159/158/158
g default
v -153.969894 0.000000 -106.131393
v -152.506500 0.000000 -82.739464
v -254.304352 0.000000 -13.729614
v -134.443588 0.000000 -93.168091
v -139.042374 0.000000 -80.276154
v -143.641159 0.000000 -67.384216
v -101.225967 0.000000 -102.109467
v -125.578239 0.000000 -77.812843
v -124.114845 0.000000 -54.420918
v -153.969894 -0.972749 -106.131393
v -152.506500 -0.972749 -82.739464
v -254.304352 -0.972749 -13.729614
v -134.443588 -0.972749 -93.168091
v -139.042374 -0.972749 -80.276154
v -143.641159 -0.972749 -67.384216
v -101.225967 -0.972749 -102.109467
v -125.578239 -0.972749 -77.812843
v -124.114845 -0.972749 -54.420918
vt 0.000000 0.000000
vt 0.500000 0.000000
vt 1.000000 0.000000
vt 0.000000 0.500000
vt 0.500000 0.500000
vt 1.000000 0.500000
vt 0.000000 1.000000
vt 0.500000 1.000000
vt 1.000000 1.000000
vt 0.000000 0.000000
vt 0.000000 0.500000
vt 0.500000 0.000000
vt 0.500000 0.500000
vt 1.000000 0.500000
vt 1.000000 0.000000
vt 0.500000 1.000000
vt 0.000000 1.000000
vt 1.000000 1.000000
vn 0.000000 1.000000 0.000000
vn 0.000000 1.000000 0.000000
vn 0.000000 1.000000 0.000000
vn 0.000000 1.000000 0.000000
vn 0.000000 1.000000 0.000000
vn 0.000000 1.000000 0.000000
vn 0.000000 1.000000 0.000000
vn 0.000000 1.000000 0.000000
vn 0.000000 1.000000 0.000000
vn 0.000000 -1.000000 -0.000000
vn 0.000000 -1.000000 -0.000000
vn 0.000000 -1.000000 0.000000
vn 0.000000 -1.000000 -0.000000
vn 0.000000 -1.000000 0.000000
vn 0.000000 -1.000000 0.000000
vn 0.000000 -1.000000 -0.000000
vn 0.000000 -1.000000 0.000000
vn 0.000000 -1.000000 0.000000
s 1
g l11
f 163/163/163 164/164/164 166/166/165
f 166/166/165 164/164/164 167/167/166
f 167/167/166 164/164/164 168/168/167
f 164/164/164 165/165/168 168/168/167
f 167/167/166 170/170/169 166/166/165
f 166/166/165 170/170/169 169/169/170
f 167/167/166 168/168/167 170/170/169
f 170/170/169 168/168/167 171/171/171
s 2
f 172/172/172 175/173/173 173/174/174
f 175/173/173 176/175/175 173/174/174
f 176/175/175 177/176/176 173/174/174
f 173/174/174 177/176/176 174/177/177
f 176/175/175 175/173/173 179/178/178
f 175/173/173 178/179/179 179/178/178
f 176/175/175 179/178/178 177/176/176
f 179/178/178 180/180/180 177/176/176
g default
v -106.131393 0.000000 153.969894
v -82.739464 0.000000 152.506500
v -13.729614 0.000000 254.304352
v -93.168091 0.000000 134.443588
v -80.276154 0.000000 139.042374
v -67.384216 0.000000 143.641159
v -102.109467 0.000000 101.225967
v -77.812843 0.000000 125.578239
v -54.420918 0.000000 124.114845
v -106.131393 -0.972749 153.969894
v -82.739464 -0.972749 152.506500
v -13.729614 -0.972749 254.304352
v -93.168091 -0.972749 134.443588
v -80.276154 -0.972749 139.042374
v -67.384216 -0.972749 143.641159
v -102.109467 -0.972749 101.225967
v -77.812843 -0.972749 125.578239
v -54.420918 -0.972749 124.114845
vt 0.000000 0.000000
vt 0.500000 0.000000
vt 1.000000 0.000000
vt 0.000000 0.500000
vt 0.500000 0.500000
vt 1.000000 0.500000
vt 0.000000 1.000000
vt 0.500000 1.000000
vt 1.000000 1.000000
vt 0.000000 0.000000
vt 0.000000 0.500000
vt 0.500000 0.000000
vt 0.500000 0.500000
vt 1.000000 0.500000
vt 1.000000 0.000000
vt 0.500000 1.000000
vt 0.000000 1.000000
vt 1.000000 1.000000
vn 0.000000 1.000000 0.000000
vn 0.000000 1.000000 0.000000
vn 0.000000 1.000000 0.000000
vn 0.000000 1.000000 0.000000
vn 0.000000 1.000000 0.000000
vn 0.000000 1.000000 0.000000
vn 0.000000 1.000000 0.000000
vn 0.000000 1.000000 0.000000
vn 0.000000 1.000000 0.000000
vn 0.000000 -1.000000 0.000000
vn 0.000000 -1.000000 0.000000
vn 0.000000 -1.000000 0.000000
vn 0.000000 -1.000000 0.000000
vn 0.000000 -1.000000 0.000000
vn 0.000000 -1.000000 0.000000
vn 0.000000 -1.000000 0.000000
vn 0.000000 -1.000000 0.000000
vn 0.000000 -1.000000 -0.000000
s 1
g l8
f 181/181/181 182/182/182 184/184/183
f 184/184/183 182/182/182 185/185/184
f 185/185/184 182/182/182 186/186/185
f 182/182/182 183/183/186 186/186/185
f 185/185/184 188/188/187 184/184/183
f 184/184/183 188/188/187 187/187/188
f 185/185/184 186/186/185 188/188/187
f 188/188/187 186/186/185 189/189/189
s 2
f 190/190/190 193/191/191 191/192/192
f 193/191/191 194/193/193 191/192/192
f 194/193/193 195/194/194 191/192/192
f 191/192/192 195/194/194 192/195/195
f 194/193/193 193/191/191 197/196/196
f 193/191/191 196/197/197 197/196/196
f 194/193/193 197/196/196 195/194/194
f 197/196/196 198/198/198 195/194/194
g default
v 14.927527 0.000000 -186.407547
v -4.598779 0.000000 -173.444244
v -115.261986 0.000000 -227.098846
v 13.464132 0.000000 -163.015610
v 0.000000 0.000000 -160.552307
v -13.464132 0.000000 -158.089005
v 37.816402 0.000000 -138.718994
v 4.598779 0.000000 -147.660370
v -14.927527 0.000000 -134.697067
v 14.927527 -0.972749 -186.407547
v -4.598779 -0.972749 -173.444244
v -115.261986 -0.972749 -227.098846
v 13.464132 -0.972749 -163.015610
v 0.000000 -0.972749 -160.552307
v -13.464132 -0.972749 -158.089005
v 37.816402 -0.972749 -138.718994
v 4.598779 -0.972749 -147.660370
v -14.927527 -0.972749 -134.697067
vt 0.000000 0.000000
vt 0.500000 0.000000
vt 1.000000 0.000000
vt 0.000000 0.500000
vt 0.500000 0.500000
vt 1.000000 0.500000
vt 0.000000 1.000000
vt 0.500000 1.000000
vt 1.000000 1.000000
vt 0.000000 0.000000
vt 0.000000 0.500000
vt 0.500000 0.000000
vt 0.500000 0.500000
vt 1.000000 0.500000
vt 1.000000 0.000000
vt 0.500000 1.000000
vt 0.000000 1.000000
vt 1.000000 1.000000
vn 0.000000 1.000000 0.000000
vn 0.000000 1.000000 0.000000
vn 0.000000 1.000000 0.000000
vn 0.000000 1.000000 0.000000
vn 0.000000 1.000000 0.000000
vn 0.000000 1.000000 0.000000
vn 0.000000 1.000000 0.000000
vn 0.000000 1.000000 0.000000
vn 0.000000 1.000000 0.000000
vn 0.000000 -1.000000 -0.000000
vn 0.000000 -1.000000 -0.000000
vn 0.000000 -1.000000 -0.000000
vn 0.000000 -1.000000 -0.000000
vn 0.000000 -1.000000 0.000000
vn 0.000000 -1.000000 0.000000
vn 0.000000 -1.000000 0.000000
vn 0.000000 -1.000000 -0.000000
vn 0.000000 -1.000000 0.000000
s 1
g l1
f 199/199/199 200/200/200 202/202/201
f 202/202/201 200/200/200 203/203/202
f 203/203/202 200/200/200 204/204/203
f 200/200/200 201/201/204 204/204/203
f 203/203/202 206/206/205 202/202/201
f 202/202/201 206/206/205 205/205/206
f 203/203/202 204/204/203 206/206/205
f 206/206/205 204/204/203 207/207/207
s 2
f 208/208/208 211/209/209 209/210/210
f 211/209/209 212/211/211 209/210/210
f 212/211/211 213/212/212 209/210/210
f 209/210/210 213/212/212 210/213/213
f 212/211/211 211/209/209 215/214/214
f 211/209/209 214/215/215 215/214/214
f 212/211/211 215/214/214 213/212/212
f 215/214/214 216/216/216 213/212/212
